<?xml version="1.0" encoding="utf-8"?>
<svg viewBox="0 0 500 150" preserveAspectRatio="xMinYMid" xmlns="http://www.w3.org/2000/svg">
  <defs/>
  <rect width="44" height="45" style="fill: rgb(115, 0, 230);" x="135"/>
  <rect y="100" width="44" height="45" style="fill: rgb(229, 255, 242);" x="405"/>
  <rect y="50" width="44" height="45" style="fill: rgb(115, 115, 115);" x="225"/>
  <rect width="44" height="45" style="fill: rgb(230, 0, 0);"/>
  <rect width="44" height="45" style="fill: rgb(115, 230, 0);" x="45"/>
  <rect width="44" height="45" style="fill: rgb(0, 230, 230);" x="90"/>
  <rect y="50" width="44" height="45" style="fill: rgb(0, 0, 230);"/>
  <rect y="50" width="44" height="45" style="fill: rgb(23, 23, 207);" x="45"/>
  <rect y="50" width="44" height="45" style="fill: rgb(46, 46, 184);" x="90"/>
  <rect y="50" width="44" height="45" style="fill: rgb(69, 69, 161);" x="135"/>
  <rect y="50" width="44" height="45" style="fill: rgb(92, 92, 138);" x="180"/>
  <rect y="100" width="44" height="45" style="fill: rgb(0, 26, 13);"/>
  <rect y="100" width="44" height="45" style="fill: rgb(0, 77, 38);" x="45"/>
  <rect y="100" width="44" height="45" style="fill: rgb(0, 128, 64);" x="90"/>
  <rect y="100" width="44" height="45" style="fill: rgb(0, 179, 89);" x="135"/>
  <rect y="100" width="44" height="45" style="fill: rgb(0, 230, 115);" x="180"/>
  <rect y="100" width="44" height="45" style="fill: rgb(26, 255, 140);" x="225"/>
  <rect y="100" width="44" height="45" style="fill: rgb(77, 255, 166);" x="270"/>
  <rect y="100" width="44" height="45" style="fill: rgb(128, 255, 191);" x="315"/>
  <rect y="100" width="44" height="45" style="fill: rgb(179, 255, 217);" x="360"/>
</svg>