<?xml version="1.0" encoding="utf-8"?>
<svg viewBox="0 0 400 400" xmlns="http://www.w3.org/2000/svg" xmlns:bx="https://boxy-svg.com">
  <defs/>
  <path style="fill: rgb(230, 0, 115);" transform="matrix(2.397621, 0, 0, 2.397621, -893.461609, -476.488739)" d="M 414.353 209.909624918 A 83.416 83.416 0 0 1 456.061 198.734 L 456.061 248.784 A 33.366 33.366 0 0 0 439.378 253.254196377 Z" bx:shape="pie 456.061 282.15 33.366 83.416 330 360 1@1fd95571"/>
  <path style="fill: rgb(230, 0, 230);" transform="matrix(2.397621, 0, 0, 2.397621, -893.461609, -476.488739)" d="M 383.820624918 240.442 A 83.416 83.416 0 0 1 414.353 209.909624918 L 439.378 253.254196377 A 33.366 33.366 0 0 0 427.165196377 265.467 Z" bx:shape="pie 456.061 282.15 33.366 83.416 300 330 1@0485a2d4"/>
  <path style="fill: rgb(115, 0, 230);" transform="matrix(2.397621, 0, 0, 2.397621, -893.461609, -476.488739)" d="M 372.645 282.15 A 83.416 83.416 0 0 1 383.820624918 240.442 L 427.165196377 265.467 A 33.366 33.366 0 0 0 422.695 282.15 Z" bx:shape="pie 456.061 282.15 33.366 83.416 270 300 1@502be54f"/>
  <path style="fill: rgb(0, 0, 230);" transform="matrix(2.397621, 0, 0, 2.397621, -893.461609, -476.488739)" d="M 383.820624918 323.858 A 83.416 83.416 0 0 1 372.645 282.15 L 422.695 282.15 A 33.366 33.366 0 0 0 427.165196377 298.833 Z" bx:shape="pie 456.061 282.15 33.366 83.416 240 270 1@35336d44"/>
  <path style="fill: rgb(0, 115, 230);" transform="matrix(2.397621, 0, 0, 2.397621, -893.461609, -476.488739)" d="M 414.353 354.390375082 A 83.416 83.416 0 0 1 383.820624918 323.858 L 427.165196377 298.833 A 33.366 33.366 0 0 0 439.378 311.045803623 Z" bx:shape="pie 456.061 282.15 33.366 83.416 210 240 1@29f61dee"/>
  <path style="fill: rgb(0, 230, 230);" transform="matrix(2.397621, 0, 0, 2.397621, -893.461609, -476.488739)" d="M 456.061 365.566 A 83.416 83.416 0 0 1 414.353 354.390375082 L 439.378 311.045803623 A 33.366 33.366 0 0 0 456.061 315.516 Z" bx:shape="pie 456.061 282.15 33.366 83.416 180 210 1@b5eccaaf"/>
  <path style="fill: rgb(0, 230, 115);" transform="matrix(2.397621, 0, 0, 2.397621, -893.461609, -476.488739)" d="M 497.769 354.390375082 A 83.416 83.416 0 0 1 456.061 365.566 L 456.061 315.516 A 33.366 33.366 0 0 0 472.744 311.045803623 Z" bx:shape="pie 456.061 282.15 33.366 83.416 150 180 1@f3b23a18"/>
  <path style="fill: rgb(0, 230, 0);" transform="matrix(2.397621, 0, 0, 2.397621, -893.461609, -476.488739)" d="M 528.301375082 323.858 A 83.416 83.416 0 0 1 497.769 354.390375082 L 472.744 311.045803623 A 33.366 33.366 0 0 0 484.956803623 298.833 Z" bx:shape="pie 456.061 282.15 33.366 83.416 120 150 1@ea55dee0"/>
  <path style="fill: rgb(115, 230, 0);" transform="matrix(2.397621, 0, 0, 2.397621, -893.461609, -476.488739)" d="M 539.477 282.15 A 83.416 83.416 0 0 1 528.301375082 323.858 L 484.956803623 298.833 A 33.366 33.366 0 0 0 489.427 282.15 Z" bx:shape="pie 456.061 282.15 33.366 83.416 90 120 1@80dd6f13"/>
  <path style="fill: rgb(230, 230, 0);" transform="matrix(2.397621, 0, 0, 2.397621, -893.461609, -476.488739)" d="M 528.301375082 240.442 A 83.416 83.416 0 0 1 539.477 282.15 L 489.427 282.15 A 33.366 33.366 0 0 0 484.956803623 265.467 Z" bx:shape="pie 456.061 282.15 33.366 83.416 60 90 1@6aaa9614"/>
  <path style="fill: rgb(230, 115, 0);" transform="matrix(2.397621, 0, 0, 2.397621, -893.461609, -476.488739)" d="M 497.769 209.909624918 A 83.416 83.416 0 0 1 528.301375082 240.442 L 484.956803623 265.467 A 33.366 33.366 0 0 0 472.744 253.254196377 Z" bx:shape="pie 456.061 282.15 33.366 83.416 30 60 1@91eb9528"/>
  <path style="fill: rgb(230, 0, 0);" transform="matrix(2.397621, 0, 0, 2.397621, -893.436401, -476.207214)" d="M 456.061 198.734 A 83.416 83.416 0 0 1 497.769 209.909624918 L 472.744 253.254196377 A 33.366 33.366 0 0 0 456.061 248.784 Z" bx:shape="pie 456.061 282.15 33.366 83.416 0 30 1@bc7efbef"/>
</svg>