<?xml version="1.0" encoding="utf-8"?>
<svg viewBox="0 0 500 200" preserveAspectRatio="xMinYMid" xmlns="http://www.w3.org/2000/svg">
  <defs/>
  <rect y="118.616" width="15" height="45.606" style="fill: rgb(115, 0, 230);" x="83.948"/>
  <text style="fill: rgb(51, 51, 51); font-family: Barlow; font-size: 18px; white-space: pre;" x="415.548" y="98.985">Rot</text>
  <text style="fill: rgb(51, 51, 51); font-family: Barlow; font-size: 18px; white-space: pre;" x="0" y="98.985" transform="matrix(1, 0, 0, 1, 2.842170943040401e-14, 90.37402819624509)">Farbreihe mit 12 Grundfarben</text>
  <text style="fill: rgb(51, 51, 51); font-family: Barlow; font-size: 18px; white-space: pre;" x="69.258" y="98.985">Blau</text>
  <text style="fill: rgb(51, 51, 51); font-family: Barlow; font-size: 18px; white-space: pre;" x="138.516" y="98.985">Cyan</text>
  <text style="fill: rgb(51, 51, 51); font-family: Barlow; font-size: 18px; white-space: pre;" x="207.774" y="99.985">Grün</text>
  <text style="fill: rgb(51, 51, 51); font-family: Barlow; font-size: 18px; white-space: pre;" x="277.032" y="98.985">Gelb</text>
  <text style="fill: rgb(51, 51, 51); font-family: Barlow; font-size: 18px; white-space: pre;" x="346.29" y="98.985">Orange</text>
  <text style="fill: rgb(51, 51, 51); font-family: Barlow; font-size: 18px; white-space: pre;" x="415.548" y="17.985">625 nm</text>
  <text style="fill: rgb(51, 51, 51); font-family: Barlow; font-size: 18px; white-space: pre;" x="0" y="17.985">380</text>
  <text style="fill: rgb(51, 51, 51); font-family: Barlow; font-size: 18px; white-space: pre;" x="69.258" y="17.985">440</text>
  <text style="fill: rgb(51, 51, 51); font-family: Barlow; font-size: 18px; white-space: pre;" x="138.516" y="17.985">485</text>
  <text style="fill: rgb(51, 51, 51); font-family: Barlow; font-size: 18px; white-space: pre;" x="207.774" y="17.985">510</text>
  <text style="fill: rgb(51, 51, 51); font-family: Barlow; font-size: 18px; white-space: pre;" x="277.032" y="17.985">565</text>
  <text style="fill: rgb(51, 51, 51); font-family: Barlow; font-size: 18px; white-space: pre;" x="346.29" y="17.985">590</text>
  <rect x="461.714" y="23.639" width="15" height="45.606" style="fill: rgb(244, 0, 32);"/>
  <rect x="415.548" y="23.639" width="15" height="45.606" style="fill: rgb(255, 46, 4);"/>
  <rect x="438.634" y="23.639" width="15" height="45.606" style="fill: rgb(255, 0, 17);"/>
  <rect x="46.172" y="23.639" width="15" height="45.606" style="fill: rgb(127, 0, 204);"/>
  <rect y="23.639" width="15" height="45.606" style="fill: rgb(195, 1, 197);"/>
  <rect x="23.086" y="23.639" width="15" height="45.606" style="fill: rgb(168, 2, 193);"/>
  <rect x="115.43" y="23.639" width="15" height="45.606" style="fill: rgb(32, 75, 185);"/>
  <rect x="69.258" y="23.639" width="15" height="45.606" style="fill: rgb(71, 36, 186);"/>
  <rect x="92.344" y="23.639" width="15" height="45.606" style="fill: rgb(30, 56, 189);"/>
  <rect x="184.688" y="23.639" width="15" height="45.606" style="fill: rgb(26, 224, 231);"/>
  <rect x="138.516" y="23.639" width="15" height="45.606" style="fill: rgb(28, 131, 249);"/>
  <rect x="161.602" y="23.639" width="15" height="45.606" style="fill: rgb(27, 179, 247);"/>
  <rect x="253.946" y="23.639" width="15" height="45.606" style="fill: rgb(104, 187, 0);"/>
  <rect x="207.774" y="23.639" width="15" height="45.606" style="fill: rgb(15, 186, 117);"/>
  <rect x="230.86" y="23.639" width="15" height="45.606" style="fill: rgb(2, 185, 2);"/>
  <rect x="323.204" y="23.639" width="15" height="45.606" style="fill: rgb(255, 182, 1);"/>
  <rect x="277.032" y="23.639" width="15" height="45.606" style="fill: rgb(253, 242, 62);"/>
  <rect x="300.118" y="23.639" width="15" height="45.606" style="fill: rgb(255, 207, 3);"/>
  <rect x="392.462" y="23.639" width="15" height="45.606" style="fill: rgb(255, 68, 0);"/>
  <rect x="346.29" y="23.639" width="15" height="45.606" style="fill: rgb(255, 136, 3);"/>
  <rect x="369.376" y="23.639" width="15" height="45.606" style="fill: rgb(252, 108, 0);"/>
  <rect y="118.616" width="15" height="45.606" style="fill: rgb(230, 0, 230);" x="41.974"/>
  <rect y="118.616" width="15" height="45.606" style="fill: rgb(230, 0, 115);"/>
  <rect y="120.103" width="15" height="45.606" style="fill: rgb(230, 0, 0);" x="461.714"/>
  <rect y="120.103" width="15" height="45.606" style="fill: rgb(230, 115, 0);" x="419.74"/>
  <rect y="120.103" width="15" height="45.606" style="fill: rgb(230, 230, 0);" x="377.766"/>
  <rect y="120.103" width="15" height="45.606" style="fill: rgb(115, 230, 0);" x="335.792"/>
  <rect y="120.103" width="15" height="45.606" style="fill: rgb(0, 230, 0);" x="293.818"/>
  <rect y="120.103" width="15" height="45.606" style="fill: rgb(0, 230, 115);" x="251.844"/>
  <rect y="120.103" width="15" height="45.606" style="fill: rgb(0, 230, 230);" x="209.87"/>
  <rect y="120.103" width="15" height="45.606" style="fill: rgb(0, 115, 230);" x="167.896"/>
  <rect y="120.103" width="15" height="45.606" style="fill: rgb(0, 0, 230);" x="125.922"/>
  <text style="fill: rgb(51, 51, 51); font-family: Barlow; font-size: 18px; white-space: pre;" x="0" y="98.985">Violett</text>
</svg>