<?xml version="1.0" encoding="utf-8"?>
<svg viewBox="0 0 420 400" xmlns="http://www.w3.org/2000/svg">
  <defs/>
  <g>
    <title>Layout</title>
    <rect width="390" height="350" style="stroke-width: 2px; stroke: rgba(240, 86, 86, 0.5); fill: none;" x="15" y="25">
      <title>margin</title>
    </rect>
    <rect width="420" height="399.97" style="stroke-width: 2px; stroke: rgba(240, 86, 86, 0.5); fill: none;">
      <title>frame</title>
    </rect>
  </g>
  <g transform="matrix(1, 0, 0, 1, -471.539001, -145.832993)" style="transform-origin: 431.539px 46.0699px;">
    <title>Grundlinien</title>
    <line style="fill: rgb(216, 216, 216); stroke-width: 2px; stroke: rgba(0, 128, 255, 0.255);" x1="471.539" y1="445.833" x2="891.539" y2="445.833"/>
    <line style="fill: rgb(216, 216, 216); stroke-width: 2px; stroke: rgba(0, 128, 255, 0.255);" x1="471.539" y1="495.833" x2="891.539" y2="495.833"/>
    <line style="fill: rgb(216, 216, 216); stroke-width: 2px; stroke: rgba(0, 128, 255, 0.255);" x1="471.539" y1="470.833" x2="891.539" y2="470.833"/>
    <line style="fill: rgb(216, 216, 216); stroke-width: 2px; stroke: rgba(0, 128, 255, 0.255);" x1="471.539" y1="195.833" x2="891.539" y2="195.833"/>
    <line style="fill: rgb(216, 216, 216); stroke-width: 2px; stroke: rgba(0, 128, 255, 0.255);" x1="471.539" y1="420.833" x2="891.539" y2="420.833"/>
    <line style="fill: rgb(216, 216, 216); stroke-width: 2px; stroke: rgba(0, 128, 255, 0.255);" x1="471.539" y1="220.833" x2="891.539" y2="220.833"/>
    <line style="fill: rgb(216, 216, 216); stroke-width: 2px; stroke: rgba(0, 128, 255, 0.255);" x1="471.539" y1="170.833" x2="891.539" y2="170.833"/>
    <line style="fill: rgb(216, 216, 216); stroke-width: 2px; stroke: rgba(0, 128, 255, 0.255);" x1="471.539" y1="145.833" x2="891.539" y2="145.833"/>
    <line style="fill: rgb(216, 216, 216); stroke-width: 2px; stroke: rgba(0, 128, 255, 0.255);" x1="471.539" y1="245.833" x2="891.539" y2="245.833"/>
    <line style="fill: rgb(216, 216, 216); stroke-width: 2px; stroke: rgba(0, 128, 255, 0.255);" x1="471.539" y1="270.833" x2="891.539" y2="270.833"/>
    <line style="fill: rgb(216, 216, 216); stroke-width: 2px; stroke: rgba(0, 128, 255, 0.255);" x1="471.539" y1="295.833" x2="891.539" y2="295.833"/>
    <line style="fill: rgb(216, 216, 216); stroke-width: 2px; stroke: rgba(0, 128, 255, 0.255);" x1="471.539" y1="320.833" x2="891.539" y2="320.833"/>
    <line style="fill: rgb(216, 216, 216); stroke-width: 2px; stroke: rgba(0, 128, 255, 0.255);" x1="471.539" y1="345.833" x2="891.539" y2="345.833"/>
    <line style="fill: rgb(216, 216, 216); stroke-width: 2px; stroke: rgba(0, 128, 255, 0.255);" x1="471.539" y1="370.833" x2="891.539" y2="370.833"/>
    <line style="fill: rgb(216, 216, 216); stroke-width: 2px; stroke: rgba(0, 128, 255, 0.255);" x1="471.539" y1="395.833" x2="891.539" y2="395.833"/>
    <line style="fill: rgb(216, 216, 216); stroke-width: 2px; stroke: rgba(0, 128, 255, 0.255);" x1="471.539" y1="519.833" x2="891.539" y2="519.833"/>
    <line style="fill: rgb(216, 216, 216); stroke-width: 2px; stroke: rgba(0, 128, 255, 0.255);" x1="471.539" y1="545.833" x2="891.539" y2="545.833"/>
  </g>
  <g transform="matrix(1, 0, 0, 1, -450.231995, 0)">
    <title>Horizontal-Einteilung</title>
    <line style="fill: rgb(216, 216, 216); stroke-width: 2px; stroke: rgba(0, 128, 255, 0.255); transform-origin: 465.231px 200.003px;" x1="465.232" y1="0" x2="465.232" y2="400"/>
    <line style="fill: rgb(216, 216, 216); stroke-width: 2px; stroke: rgba(0, 128, 255, 0.255); transform-origin: 530.231px 200.003px;" x1="530.232" y1="0" x2="530.232" y2="400"/>
    <line style="fill: rgb(216, 216, 216); stroke-width: 2px; stroke: rgba(0, 128, 255, 0.255); transform-origin: 595.231px 200.003px;" x1="595.231" y1="0" x2="595.232" y2="400"/>
    <line style="fill: rgb(216, 216, 216); stroke-width: 2px; stroke: rgba(0, 128, 255, 0.255); transform-origin: 499.998px 200.003px;" x1="660.231" y1="0" x2="660.231" y2="400"/>
    <line style="fill: rgb(216, 216, 216); stroke-width: 2px; stroke: rgba(0, 128, 255, 0.255); transform-origin: 725.231px 200.003px;" x1="725.232" y1="0" x2="725.231" y2="400"/>
    <line style="fill: rgb(216, 216, 216); stroke-width: 2px; stroke: rgba(0, 128, 255, 0.255); transform-origin: 790.231px 200.003px;" x1="790.232" y1="0" x2="790.232" y2="400"/>
    <line style="fill: rgb(216, 216, 216); stroke-width: 2px; stroke: rgba(0, 128, 255, 0.255); transform-origin: 855.231px 200.003px;" x1="855.232" y1="0" x2="855.232" y2="400"/>
  </g>
</svg>