<?xml version="1.0" encoding="UTF-8" standalone="no"?>
<svg
   xmlns:dc="http://purl.org/dc/elements/1.1/"
   xmlns:cc="http://creativecommons.org/ns#"
   xmlns:rdf="http://www.w3.org/1999/02/22-rdf-syntax-ns#"
   xmlns:svg="http://www.w3.org/2000/svg"
   xmlns="http://www.w3.org/2000/svg"
   viewBox="0 0 676.91248 104.575"
   height="104.575"
   width="676.91248"
   xml:space="preserve"
   version="1.1"
   id="svg2"><metadata
     id="metadata8"><rdf:RDF><cc:Work
         rdf:about=""><dc:format>image/svg+xml</dc:format><dc:type
           rdf:resource="http://purl.org/dc/dcmitype/StillImage" /></cc:Work></rdf:RDF></metadata><defs
     id="defs6"><clipPath
       id="clipPath18"
       clipPathUnits="userSpaceOnUse"><path
         id="path20"
         d="m 0,0 5415,0 0,836.555 -5415,0 L 0,0 Z" /></clipPath></defs><g
     transform="matrix(1.25,0,0,-1.25,0,104.575)"
     id="g10"><g
       transform="scale(0.1,0.1)"
       id="g12"><g
         id="g14"><g
           clip-path="url(#clipPath18)"
           id="g16"><path
             id="path22"
             style="fill:#73c82c;fill-opacity:1;fill-rule:evenodd;stroke:none"
             d="m 157.461,505.273 c -0.559,-2.148 -4.629,-7.078 -6.059,-7.773 0,-3.367 -2.05,-6.562 -5.175,-8.641 0,-5.285 -8.957,-7.621 -10.082,-13.254 -1.028,-5.136 -3.231,-10 -7.204,-12.664 0,-4.757 -7.769,-6.574 -7.769,-11.234 -2.324,-1.18 -4.457,-8.641 -6.043,-8.641 0,-3.222 -3.527,-5.468 -4.328,-9.5 -1.84,-0.937 -4.321,-5.203 -4.321,-7.785 -4.085,-2.019 -2.789,-7.429 -6.9136,-9.488 0,-2.914 -3.457,-6.508 -3.457,-9.516 -1.5391,0 -5.1836,-15.839 -5.1836,-18.144 -3.3633,0 -2.1055,-28.934 -0.8711,-33.613 2.6015,-9.903 3.2226,-20.575 9.5117,-26.864 1.6446,-1.64 2.6566,-4.523 3.4566,-6.918 1.258,-0.613 5.829,-5.125 6.911,-6.472 2.504,-3.125 19.007,-7.129 19.007,-8.211 8.325,-1.192 12.832,-6.047 19.871,-6.047 0,0.039 23.532,-7.383 25.918,-7.774 0,-3.418 11.239,-2.273 11.239,-5.183 7.406,-0.754 14.808,-1.485 22.215,-2.227 7.445,-0.754 15.023,-5.336 22.711,-7.277 0,-2.871 16.019,-4.102 20.011,-3.621 9.555,1.14 17.114,-1.563 25.133,-1.563 12.93,0 24.82,-3.457 37.809,-3.457 0,-4.386 30.347,0.867 32.824,0.867 0,2.852 31.902,6.192 36.047,6.844 6.379,1.008 12.761,2.016 19.136,3.059 6.215,1.015 8.461,5.39 15.083,7.375 8.492,2.547 12.062,5.887 19.585,7.773 0,-0.109 15.95,7.781 17.286,7.781 2.339,3.528 6.656,4.551 9.074,7.774 2.344,3.113 7.648,7.5 11.222,10.359 4.055,3.246 8.215,14.336 8.215,19.016 3.532,0 2.524,17.703 0,20.734 -4.761,1.582 -6.382,3.563 -11.519,3.172 -7.594,-0.586 -13.953,-1.828 -22.18,-2.305 0,-2.48 -18.141,-3.593 -18.141,-6.054 -5.261,0 -10.546,-0.86 -14.683,-0.86 0,-2.097 -9.457,-2.597 -12.102,-2.597 0,-2.727 -25.05,-2.032 -25.05,-4.317 -1.813,0 -10.379,-1.347 -10.379,-2.597 -3.121,-0.176 -18.137,-0.254 -18.137,-2.586 -6.07,0.398 -22.086,-2.59 -23.328,-2.59 0,-1.836 -56.16,-11.102 -60.629,-12.285 -5.66,-1.504 -7.883,0.84 -13.567,0.5 -4.91,-0.313 -6.339,2.273 -9.617,2.273 -1.383,2.813 -2.066,0.645 -3.449,3.465 -2.73,0 -3.48,2.609 -5.617,4.32 -3.539,2.821 -3.578,6.602 -6.484,9.5 -1.762,1.77 -4.293,12.961 -7.782,12.961 -1.297,3.914 -8.929,24.188 -11.222,24.188 0,4.258 -1.321,5.422 -0.051,9.933 1.133,4.032 1.781,8.875 1.781,12.102 0,1.457 1.645,9.082 2.59,9.082 0.305,5.934 1.723,13.473 1.723,18.141 3.089,0 3.121,18.144 7.785,18.144 0,2.539 1.019,5.684 3.453,6.906 1.359,5.379 4.133,7.821 7.344,12.102 3.265,4.352 12.093,6.141 17.132,8.199 2.325,0.957 16.125,1.231 16.125,2.168 3.45,0 25.063,2.481 25.063,5.176 5.391,0 11.973,1.191 18.426,1.445 5.422,0.211 7.859,2.012 11.812,2.012 0,5.176 24.66,6.269 30.235,6.914 0,1.016 7.101,2.59 8.644,2.59 0,2.09 11.734,2.121 14.344,2.254 9.789,0.461 15.711,4.66 24.535,4.66 8.57,0 14.473,3.359 23.902,3.836 7.489,0.39 14.985,0.773 22.465,1.152 4.781,0.246 7.442,1.926 12.387,1.926 0,0.285 25.789,3.445 28.512,3.445 0,-0.019 11.789,2.774 13.863,3.5 6.242,2.145 14.215,3.414 19.832,3.414 0,0.078 6.523,2.852 7.84,3.418 5.398,2.305 8.086,0.957 12.355,0.547 4.817,-0.461 9.93,0.469 14.571,1.66 3.953,1.016 8.878,3.102 12.652,1.758 2.379,-0.848 15.648,0.426 15.648,-1.324 4.743,0 5.914,-1.731 10.371,-1.731 0,-0.468 17.372,-4.328 19.004,-4.328 0,-1.894 6.282,-1.55 7.785,-1.718 2.813,-1.954 5.622,-3.891 8.422,-5.84 3.516,-2.426 6.149,-6.621 7.125,-10.867 1.403,-6.028 3.871,-9.145 5.192,-14.407 3.644,-1.816 3.926,-7.605 7.765,-9.492 2.598,-7.715 6.063,-12.09 6.063,-19.883 2.355,0 2.891,-18.144 5.18,-18.144 0,-2.633 4.832,-17.274 6.043,-17.274 0.511,-6.261 1.597,-11.316 3.21,-17.289 2.036,-7.539 -1.46,-15.828 -3.21,-23.152 -0.75,-3.152 -3,-8.973 -6.043,-10.535 0,-2.246 -1.926,-6.25 -3.457,-7.774 -1.684,-1.691 -5.188,-6.308 -5.188,-8.644 -0.883,0 -4.32,-7.207 -4.32,-8.633 -2.278,0 -2.664,-11.238 -5.176,-11.238 -0.57,-2.239 -3.32,-9.504 -5.191,-9.504 0,-6.043 -5.18,-12.988 -5.18,-20.731 -0.109,0 -7.699,-15.597 -7.488,-17.851 0.941,-10.332 -3.309,-14.082 -4.618,-24.492 -0.664,-5.325 -2.589,-8.633 -2.589,-12.961 -1.032,0 -2.586,-5.469 -2.586,-6.914 -3.039,0 0.441,-15.547 -2.59,-15.547 -1.145,-5.606 -2.731,-7.227 -3.457,-13.817 -0.367,-3.3 -3.629,-21.601 -5.188,-21.601 0,-1.672 -1.469,-9.504 -2.593,-9.504 0,-7.852 0.703,-12.91 0.214,-20.742 -0.332,-5.321 -1.937,-8.075 -1.937,-14.383 0,-1.977 -0.969,-9.817 -2.602,-9.817 0,-4.199 -1.554,-7.812 -0.23,-13.242 1.566,-6.484 1.969,-11.426 1.969,-17.851 3.207,0 1.718,-27.7347 1.718,-31.5433 0,-10.4687 -3.39,-18.457 -4.097,-29.7929 -0.68,-10.8985 -8.043,-16.543 -9.715,-25.0704 -4.66,-2.3125 -49.235,-26.67965 -59.289,-23.789025 -2.344,0.671875 -1.02,2.187505 -3.789,2.187505 0,1.875 -4.828,2.6289 -6.336,3.17578 -2.973,1.07422 -7.985,3.82812 -9.211,6.33594 -1.524,0 -19.02,6.7187 -19.02,6.0469 -1.804,0 -6.91,1.7187 -6.91,3.457 -1.687,0 -4.644,1.1992 -6.055,2.5859 -4.324,4.2969 -13.898,6.3594 -13.187,14.4922 0.406,4.6211 1.832,7.4922 -0.625,12.2969 -1.766,1.5508 -2.332,9.5 -3.457,9.5 0.523,13.7422 2.594,24.2187 2.594,36.6328 0,13.0277 -0.868,26.7657 -0.868,38.5347 -0.464,0 4.571,27.157 3.457,31.114 -1.449,5.097 -1.593,15.261 -5.128,18.554 -4.02,3.75 -6.547,2.743 -12.153,2.176 0,-0.984 -13.511,-6.316 -16.418,-6.914 0,-1.797 -9.804,-3.191 -11.664,-3.445 -5.054,-0.695 -8.394,-3.457 -12.519,-3.457 0,-3.574 -21.606,-1.25 -21.606,-6.067 -8.109,0 -14.304,-3.847 -21.89,-4.597 -9.258,-0.918 -12.582,-4.883 -21.883,-4.883 -7.629,0 -14.813,-2.734 -23.645,-2.336 -7.797,0.352 -13.324,3.516 -20.992,1.281 -8.398,-2.441 -14.074,1.055 -21.316,1.055 -5.297,1.133 -14.567,-1.75 -22.461,-1.75 0,-2.773 -57.836,6.055 -63.078,6.055 0,1.836 -21.594,3.507 -21.594,6.906 -11.047,1.402 -16.988,5.976 -29.375,6.914 -5.242,2.332 -11.988,6.922 -17.719,6.922 -1.73,0 -7.348,0.937 -7.348,2.597 -2.789,0 -16.4136,3.86 -16.4136,6.895 -6.5938,0 -13.0547,8.652 -19.8711,8.652 0,0.891 -11.3945,7.774 -13.8164,7.774 -3.375,3.664 -10.2813,8.574 -12.1055,12.09 -3.3437,0 -8.1836,6.035 -10.3594,8.64 -2.1836,0 -6.8554,4.262 -7.7812,6.047 -3.8399,3.098 -6.0469,5.391 -6.0469,9.512 -0.3125,0 -4.6562,7.051 -5.1914,8.633 -1.0898,0 -4.6406,7.031 -5.1758,8.64 -2.3008,6.907 -4.2422,14.641 -5.3555,21.106 -0.66792,3.906 -1.84761,7.734 -2.92573,11.543 -0.40625,1.457 -2.96485,5.371 -3.02344,5.871 -0.20312,1.687 -1.15234,18.504 -1.65625,18.504 0,10.136 -3.683592,107.14 -2.597655,107.14 0,2.711 1.636715,19.871 4.324215,19.871 0,1.352 4.32422,20.032 4.89844,26.778 0.25,3.008 3.73832,23.34 7.19922,23.34 0,6.953 7.6133,13.086 9.5039,20.722 6.4023,3.235 7.4414,13.664 12.9649,16.43 0,4.645 7.7656,6.461 7.7656,11.227 4.3554,2.902 4.7344,8.41 8.6484,10.371 0,2.91 5.1797,4.375 5.1797,7.777 4.5898,3.934 7.6602,7.34 11.2344,12.086 3.3281,1.672 4,6.504 7.7773,7.789 1.0547,3.195 2.6016,3.988 5.1875,6.043 0,1.519 1.4453,4.039 2.5899,5.184 2.7929,2.781 13.9144,21.597 16.4144,21.597 1.418,5.735 4.91,10.988 9.793,15.266 2.464,2.168 4.457,8.07 8.347,8.07 0.989,1.988 2.594,1.172 2.594,2.59 2.98,0 1.684,2.133 4.316,3.449 0,3.258 7.985,10.363 11.235,10.363 2.769,3.688 5.258,4.848 9.262,7.188 6.374,3.723 32.257,35.383 38.257,36.875 1.106,2.195 5.703,3.457 7.778,3.457 0,0.668 8.558,6.055 10.371,6.055 1.211,2.422 33.996,28.261 42.336,38.019 2.55,0 7.175,3.887 8.636,6.043 3.457,1.133 4.614,3.301 6.911,6.051 1.91,0 4.402,1.836 5.621,3.461 1.84,2.457 4.183,4.289 6.476,6.332 2.977,2.633 1.442,2.867 3.457,4.898 4.258,4.258 11.285,5.246 15.555,9.493 2.25,2.246 4.68,8.652 8.637,8.652 3.636,4.375 6.629,7.09 11.234,8.633 4.395,6.601 13.938,7.043 18.141,11.23 1.59,1.602 7.332,6.055 9.5,6.055 1.386,2.765 7.711,4.473 11.238,5.176 0,1.875 8.637,2.246 8.637,4.328 1.894,0.457 7.781,2.117 7.781,3.457 5.93,1.961 8.703,2.586 15.555,2.586 0,2.269 12.16,2.461 14.777,2.406 7.871,-0.199 15.75,-0.383 23.617,-0.578 4.406,-0.11 7.82,1.648 13.137,0.976 10.176,-1.3 16.894,-5.39 25.933,-5.39 1.688,0 9.793,-1.477 9.793,-2.598 4.414,-1.086 10.723,-2.57 15.032,-5.363 11.957,-7.723 20.574,-16.367 31.043,-26.317 6.492,-6.164 14.136,-14.035 16.132,-21.886 3.821,-1.922 7.243,-15.551 8.633,-15.551 0,-9.508 4.258,-18.941 5.192,-29.371 3.222,0 7.777,-17.422 7.777,-19.879 1.461,0 1.727,-17.277 5.184,-17.277 0,-5.637 1.828,-8.84 1.117,-14.582 -0.699,-5.586 -3.707,-10.973 -3.707,-16.524 -0.907,0 -3.457,-5.508 -3.457,-6.91 -4.196,-3.176 -7.114,-7.238 -10.989,-10.746 -4.019,-3.641 -25.3,-7.031 -25.3,-10 -7.535,0 -13.539,-3.68 -22.164,-2.969 -4.071,0.344 -8.461,0.938 -12.266,2.492 -3.395,1.375 -4.266,5.145 -7.039,6.532 0,4.121 -6.047,5.429 -6.047,9.511 -2.852,1.391 -5.187,7.586 -5.187,10.352 -3.391,0 -3.84,14.941 -8.641,17.289 0,1.168 -6.527,15.555 -7.777,15.555 0,5.554 -9.321,13.25 -13.387,18.14 -3.25,3.899 -8.942,3.156 -10.797,6.906 -5.586,1.114 -9.691,3.188 -12.969,-1.718 -2.929,0 -6.058,-3.289 -9.066,-3.883 -4.813,-0.961 -7.563,-5.188 -12.106,-6.488 -1.476,-0.43 -8.203,-4.043 -8.203,-4.317 -3.047,0 -5.672,-2.176 -9.508,-3.453 0,-2.348 -9.203,-4.027 -11.226,-6.058 -3.528,-3.516 -8.688,-5.372 -12.961,-7.77 -2.91,0 -7.809,-4.359 -9.504,-6.914 -5.117,-1.262 -7.949,-5.18 -12.957,-5.18 0,-0.722 -6.441,-3.457 -7.773,-3.457 -3.094,-3.398 -9.661,-8.027 -11.239,-11.23 -10.258,-3.418 -19.386,-12.606 -25.926,-20.742 -5.664,-1.407 -9.488,-6.227 -13.644,-10.711 -4.375,-4.719 -8.656,-7.59 -13.129,-12.61 -2.984,-3.359 -7.117,-9.511 -11.234,-9.511 -3.028,-3.622 -13.828,-11.227 -13.828,-15.547 -3.508,-2.735 -9.504,-6.211 -9.504,-10.371 -2.746,-2.442 -8.711,-10.372 -12.094,-10.372 -0.985,-1.992 -2.586,-1.179 -2.586,-2.597 -3.16,-2.09 -2.164,-4.508 -5.191,-6.043 0,-4.699 -5.106,-5.656 -7.344,-8.645 -3.078,-4.082 -11.66,-9.011 -11.66,-13.816 -1.125,0 -2.922,-5.43 -4.328,-6.477 -3.34,-2.5 -6.629,-7.871 -7.766,-12.539 -3.817,-2.851 -8.238,-12.09 -12.961,-12.09" /><path
             id="path24"
             style="fill:#73c82c;fill-opacity:1;fill-rule:evenodd;stroke:none"
             d="m 1400.76,573.527 c -1,-3.664 -5.39,-7.843 -8.65,-9.504 -2,-5.996 -3.7,-8.757 -4.32,-15.546 -3.24,-11.114 -6.98,-21.891 3.46,-30.243 0,-1.847 6.83,-4.441 8.93,-4.601 6.18,-0.488 9.75,-1.445 16.13,-1.445 0,-1.25 31.96,-0.379 31.96,1.73 1.54,0 8.64,1.57 8.64,2.586 6.06,0.879 9.77,1.73 16.42,1.73 1.88,0 20.73,1.59 20.73,3.457 7.01,0.829 31.1,5.196 34.56,6.043 3.37,6.684 17.35,7.786 24.77,7.786 8.56,0 17.03,2.449 25.75,2.246 5.81,-0.149 17.74,-3.223 17.74,-10.032 2.97,-1.972 5.76,-6.043 6.91,-9.5 1.53,-4.582 4.41,-7.16 6.05,-12.101 0.89,0 7.9,-16.309 8.21,-18.145 1.34,-8.008 5.47,-10.152 6.19,-19.57 0.4,-5.215 2.19,-7.949 2.88,-14.121 0.27,0 3.72,-18.164 4.32,-20.731 2.41,0 7.33,-22.023 7.43,-26.316 0.17,-7.387 -6.98,-13.43 -12.61,-13.43 -3.24,-4.855 -8.94,-5.011 -14.69,-6.047 0,-0.91 -5.66,-3.554 -7.35,-3.886 -4.9,-0.977 -10.78,-1.797 -16.84,-2.168 -6.4,-1.895 -13.42,-4.317 -20.09,-4.317 -11.35,0 -21.06,-2.597 -31.32,-2.597 -4.46,0 -10.29,-0.039 -15.99,0.539 -5.4,0.523 -10.38,-1.399 -17.28,-1.399 -3.81,0 -34.56,-1.457 -34.56,-2.597 -12.1,-0.86 -17.65,-4.317 -28.5,-4.317 0,-1.484 -17.58,-4.629 -20.75,-4.89 -4.71,-0.383 -9.62,-2.024 -14.25,-2.024 -6.09,0 -12.8,0.207 -18.87,-0.429 -3.62,-0.372 -6.13,-2.149 -10.08,-2.149 -5.12,0 -8.34,-1.738 -12.09,-1.738 0,-2.598 -7.78,-1.289 -7.78,-4.317 -3.19,0 -7.06,-2.683 -9.5,-5.183 0,-2.824 -5.33,-8.742 -7.78,-10.371 -3.2,-3.653 -1.73,-7.707 -2.86,-11.907 -3.03,-11.367 0.64,-15.371 7.18,-23.515 3.12,0 6.2,-4.317 9.5,-4.317 0,-0.722 6.45,-3.457 7.78,-3.457 0,-2.832 14.67,-6.914 19.01,-7.785 0,-1.961 24.19,-2.066 24.19,-6.043 4.46,0 7.38,-1.726 12.97,-1.726 0,-4.895 14.2,0.183 16.41,0.867 8.83,0.488 17.07,2.59 24.19,2.59 0,2.051 12.57,3.992 15.55,4.312 0,3.125 12.44,7.903 14.69,11.242 2.9,0 4.85,2.598 8.21,2.598 4.2,0 7.15,0.879 10.51,0.566 5.1,-0.468 5.81,-1.035 9.65,-3.867 1.59,-1.172 6.19,-5.593 6.19,-6.211 3.65,-3.269 14.21,-20.203 16.85,-22.461 3.53,-3.015 14.45,-22.441 15.12,-31.113 -0.29,0 3.77,-18.515 3.91,-21.211 0.09,-1.863 -1.15,-8.152 -2.18,-8.152 0,-3.985 -0.87,-8.781 -0.87,-13.84 -1.43,0 -2.58,-16.426 -2.58,-18.992 -1.7,0 -4.32,-17.199 -4.32,-19.875 -4.3,-2.129 -1.8,-7.363 -6.05,-9.5 0,-9.961 -22.66,-24.289 -22.66,-20.363 11.3,0 -62.02,-21.883 -62.02,-17.665 -4.68,-1.457 -9.49,1.219 -13.82,2.586 -5.87,0.586 -9.41,1.817 -14.98,2.317 -7.47,0.672 -16.43,6.336 -23.9,6.336 0,0.332 -15.53,4.59 -17.28,5.176 -6.96,2.324 -13.35,6.046 -20.74,6.046 0,2.442 -6.91,0.965 -6.91,3.465 -5.66,0.93 -10.14,2.492 -16.42,3.449 0,5.028 -22.46,2.02 -22.46,7.782 -1.99,0 -17.27,5.832 -17.27,7.773 -3.94,0.996 -8.19,3.621 -10.38,6.926 -4.54,0 -6.68,6.902 -11.23,6.902 -0.96,1.895 -7.49,6.043 -9.5,6.043 -1.51,2.239 -6.95,6.906 -9.51,6.906 -2.74,3.293 -4.32,4.239 -4.32,8.653 -0.51,0 -1.78,3.203 -3.46,4.316 0,0.332 -7.58,3.039 -8.63,5.188 -2.18,1.804 -5.18,3.035 -5.18,6.043 -2.79,1.406 -0.67,2.082 -3.46,3.457 0,4.765 -7.78,6.562 -7.78,11.242 -2.18,1.062 -3.43,4.18 -3.89,6.473 -0.95,4.757 -1.29,-0.84 -1.29,5.617 -0.19,0 -2.6,4.851 -2.6,6.043 -4.08,2.121 -5.66,16.406 -7.77,16.406 0,6.777 -5.19,14.102 -5.19,20.742 -3.27,0 -0.14,32.832 -4.32,32.832 0,4.727 -1.72,6.262 -1.72,12.102 -1.61,0 -0.87,18.601 -0.87,21.375 0,3.39 3.92,23.554 2.59,23.554 0,6.036 0.87,12.922 0.87,17.707 0,3.614 2.6,5.848 2.6,9.93 0,17.18 7.91,29.246 10.93,44.356 1.71,8.515 7.21,14.121 7.21,23.047 2.01,1.007 4.32,5.625 4.32,7.773 0.81,0 3.45,5.059 3.45,6.918 1.71,0.848 3.08,6.043 4.32,6.043 0,1.496 3.78,9.5 5.19,9.5 2.26,8.926 7.12,14.238 8.63,23.328 2.42,0 2.21,19.879 5.18,19.879 3.14,10.406 -3.88,21.258 -11.22,26.777 0,1.285 -1.5,5.184 -2.59,5.184 0,5.066 -4.48,3.808 -6.06,7.723 -1.63,4.066 -7.77,7.753 -7.77,11.289 -1.91,0 -0.87,5.468 -0.87,6.914 -3.56,2.851 -5.41,5.277 -7.77,9.218 -4.56,7.594 -3.45,22.688 -3.45,30.235 0,8.984 -1.55,17.676 0.28,27.832 1,5.566 1.44,11.797 1.44,16.523 0.34,0 5.19,9.739 5.19,11.231 3.66,2.433 6.86,12.09 12.09,12.09 1.09,2.168 3.97,3.8 6.05,5.195 0,2.832 3.46,4.308 5.42,6.301 5.26,5.32 10.74,10.164 17.91,12.703 7.14,2.519 15.27,0.761 22.66,1.133 11.22,0.546 17.33,8.441 27.45,11.816 10.61,3.555 15.49,6.887 29.38,8.652 0,1.407 8.95,3.461 10.94,3.461 6.83,0 8.67,-0.121 16.28,-0.652 4.91,-0.356 7.48,2.211 11.94,2.664 6.26,0.625 60.52,13.531 61.92,13.531 0,3.449 22.94,6.496 26.79,7.774 4.65,1.554 4.97,2.597 11.23,2.597 4.19,0 7.58,1.723 11.67,1.723 6.53,0 20.36,5.34 22.03,5.625 4.27,0.699 5.55,2.223 11.23,2.5 7.23,0.359 11.1,1.551 17.85,3.113 1.5,0.34 10.66,3.074 10.66,3.457 9.56,0 16.86,2.586 25.93,2.586 0,-1.426 27.71,1.754 31.99,2.207 3.12,0.332 25.02,2.168 25.02,-2.207 5.33,-1.328 6.64,-5.566 12.1,-6.914 3.47,-4.316 6.27,-9.375 10.36,-12.09 1.07,-4.265 5.14,-9.773 8.65,-12.097 0,-1.418 3.84,-7.785 5.18,-7.785 0.45,-1.817 3.26,-7.77 4.32,-7.77 1.16,-5.531 4.32,-13.672 4.32,-18.148 3.88,0 6.32,-15.547 9.51,-15.547 1.18,-5 4.32,-12.422 4.32,-16.414 1.18,0 4.84,-8.137 5.19,-9.504 3.92,-2.012 3.27,-7.852 3.02,-11.668 -0.28,-4.153 0.56,-5.774 -3.02,-8.215 -1.42,-4.168 -3.46,-1.719 -3.46,-6.328 0,-7.016 -1.77,-8.367 -7.79,-12.235 -4.53,-2.921 -9.83,-5.613 -13.82,-5.613 0,-2.531 -14.42,-3.879 -17.71,-4.113 -5.71,-0.402 -9.17,-3.676 -15.55,-3.676 -3.06,0 -25.49,-3.914 -25.49,-4.312 -5.76,0 -11.1,-4.329 -17.85,-4.329 -6.41,0 -10.41,-2.585 -15.41,-2.585 -7.53,0 -16.36,-2.59 -23.76,-2.59 -7.33,0 -11.24,-2.598 -17.86,-2.598 -7.81,0 -11.04,-3.457 -17.56,-3.457 -5.03,0 -8.5,-3.457 -12.97,-3.457 0,-4.481 -16.07,-4.797 -20.03,-5.012 -2.74,-0.144 -17.11,-2.738 -17.11,-4.48 -6.66,0 -9.24,-3.465 -15.56,-3.465 0,-2.707 -9.5,-1.961 -9.5,-4.317 -2.01,-0.144 -12.1,-0.011 -12.1,-1.726 -2.66,0 -3.89,-1.731 -6.91,-1.731 0,-2.714 -13.73,-3.203 -17.28,-3.449 0,-0.945 -13.53,-9.551 -16.41,-10.379" /><path
             id="path26"
             style="fill:#73c82c;fill-opacity:1;fill-rule:evenodd;stroke:none"
             d="m 1808.56,341.984 c -1.71,-6.23 -7.88,-7.257 -10.12,-12.394 -2.5,-5.723 -2.94,-13.379 -2.04,-19.481 1,-6.847 6.61,-8.781 9.57,-14.785 2.91,-0.969 15.55,-5.422 15.55,-6.918 2.21,0 16.41,-2.301 16.41,-4.312 5.42,0 12.81,-3.457 17.29,-3.457 0,-5.149 51.84,-4.903 51.84,-1.731 1.05,0.059 6.51,-1.172 8.63,-1.289 1.41,-0.066 7.78,-1.504 7.78,0.43 5.04,0 0.43,0.859 4.32,0.859 0,3.957 17.25,4.317 20.73,4.317 0,3.574 13.47,1.875 15.56,6.054 2.9,0 7.69,5.34 9.5,7.774 4.08,0 5.39,6.054 9.51,6.054 1.01,1.993 6.74,5.176 8.63,5.176 0,0.086 8,2.688 9.67,2.989 9.18,1.66 10.92,-6.387 18.85,-9.032 0,-2.043 1.85,-5.578 3.34,-7.812 2.37,-3.586 5.87,-5.852 8.89,-8.84 2.43,-2.41 2.46,-3.137 2.46,-6.68 0,-4.804 2.06,-3.601 3.45,-7.773 1.22,-3.653 4.57,-6.758 4.8,-9.883 0.24,-3.137 7.3,-11.016 7.3,-16.035 5.57,-2.793 6.91,-29.188 6.91,-34.57 1.23,-7.266 -1.41,-12.168 -2.16,-18.145 -0.69,-5.527 -1.78,-11.562 -2.16,-18.137 -0.52,0 -2.85,-7.351 -3.17,-8.933 -1.36,-6.856 -4.92,-17.051 -12.38,-19.59 -3,-8.828 -11.38,-11.434 -20.22,-13.289 -2.58,-0.547 -18.66,-4.875 -18.66,-7.434 -4.65,-1.152 -8.11,-3.242 -13.78,-3.523 -6.06,-0.324 -49.83,-6.711 -54.9,-7.278 -6.21,-0.683 -32.6,-7.117 -35.86,-3.015 -2.91,0 -1.42,1.719 -4.32,1.719 0,1.668 -8.6,0.32 -10.37,0.214 -4.73,-0.293 -6.33,-1.339 -11.74,1.063 -4.73,2.082 -6.24,2.187 -11.1,0.644 -5.09,-1.621 -17.42,2.532 -19.5,6.719 -2.86,0 -5.01,1.875 -9.22,2.305 -4.12,0.398 -8.31,1.769 -12.38,2.441 -1.41,0.235 -8.63,3.899 -8.63,4.766 -3.12,0.176 -18.15,0.254 -18.15,2.59 -3.52,0.496 -19.01,3.875 -19.01,6.043 -4.58,1.062 -11.92,1.367 -13.83,5.175 -3.71,0 -6.8,7.403 -11.23,8.653 -1.02,4.219 -4.31,4.297 -4.31,8.633 -1.04,0 -2.6,5.468 -2.6,6.906 -0.35,0 -6.03,7.168 -7.77,8.64 0,3.782 -3.46,6.368 -3.46,10.372 -4.13,0 -7.09,17.285 -10.37,17.285 -0.91,3.625 -3.61,7.929 -6.05,10.371 -2.62,2.629 -11.23,4.504 -11.23,9.504 -1.95,1.472 -3.45,1.758 -3.45,4.312 -3.4,2.27 -1.27,3.664 -4.33,5.188 0,1.476 -3.37,6.914 -4.32,6.914 0,2.961 -5.38,22.461 -6.91,22.461 0,2.492 -3.15,26.789 -3.46,26.789 -2.04,6.687 -2.02,16.316 -1.05,23.203 1.34,9.512 2.82,18.191 3.22,28.633 0.58,15.301 6.94,28.836 8.2,44.062 0.35,4.16 2.28,20.731 5.19,20.731 0,3.496 2.55,22.472 5.18,22.472 0,3.543 0.87,9.043 0.87,13.817 0.87,0 2.59,7.148 2.59,8.652 0.96,0 4.33,19.16 4.33,21.875 0,3.527 1.6,25.637 4.3,25.637 0.82,3.199 5.92,20.73 6.92,20.73 0,7.442 6.91,14.754 9.51,22.473 1.44,0 3.19,9.832 6.05,11.23 0,3.602 2.77,6.34 3.46,10.36 2.03,0 3.68,8.34 6.04,9.512 0,3.105 3.93,7.492 5.18,11.23 1.19,0 6.91,17.305 6.91,19.016 0.62,0 5.18,11.414 5.18,12.957 1.77,0 7.79,21.914 7.79,24.195 1.08,0 2.33,28.305 2.21,31.84 -0.2,6.211 -0.2,11.972 0.81,16.972 0.58,2.911 2.15,2.004 2.15,4.747 2.67,2.128 3.3,4.16 5.2,6.054 2.78,2.797 6.64,4.004 9.5,7.344 3.04,3.547 7.06,5.961 11.22,7.344 6.17,2.051 30.24,12.871 30.24,13.828 5.6,0 -0.68,0.859 6.06,0.859 0,2.657 3.05,-0.176 4.31,0 0,1.754 8.64,1.332 8.64,4.317 2.16,0 12.97,1.836 12.97,3.457 9.22,0 19.35,2.812 28.94,3.886 5.74,0.645 7.71,2.129 14.25,1.582 5.25,-0.429 10.05,2.012 16.42,3.176 0,2.551 23.33,0.496 23.33,4.324 3.8,0 25.05,1.114 25.05,4.317 8.99,1.285 18.97,2.285 27.65,5.176 1.56,0.527 6.05,2.492 6.05,3.457 2.66,0.332 12.96,1.718 12.96,3.457 3.66,0 25.92,-1.27 25.92,3.457 3.99,0 5.82,1.73 11.23,1.73 0,0.321 9.9,2.586 11.23,2.586 4.38,0 7.11,1.738 12.53,1.738 6.41,0 12.17,1.231 18.41,2.727 4.33,1.023 39.92,-0.391 39.92,-1.867 7.17,0 12.64,-5.184 20.74,-5.184 0,-2.109 1.72,0.383 1.72,-1.73 3.9,0 5.59,-2.5 8.51,-4.942 2.77,-2.293 14.12,-14.062 15.69,-14.062 2.48,-10.172 6.19,-21.414 15.54,-27.656 0,-1.915 2.88,-6.329 4.32,-7.774 1.57,-1.57 1.91,-3.973 2.59,-6.055 1.7,-0.82 3.47,-3.289 3.47,-5.175 0.66,0 7.84,-14.356 8.14,-16.035 1.99,-11.133 -4.02,-40.645 -10.75,-46.172 -3.01,-1.758 -5.84,-3.282 -9.43,-3.633 -11.16,-1.09 -19.51,-3.543 -32.04,-1.981 -5.53,0.692 -44.25,-7.355 -47.08,-7.355 -3.78,0 -8.66,-1.719 -12.53,-1.719 0,-0.945 -5.67,-2.598 -6.91,-2.598 0,-2.168 -10.46,-1.726 -12.96,-1.726 0,1.457 -8.44,-1.731 -10.8,-1.731 -21.33,0 -40.9,-4.312 -61.78,-4.312 -11.2,0 -54.43,-6.234 -54.43,-7.777 -1.99,0 -9.51,-2.715 -9.51,-4.325 -3.6,0 -5.57,-1.972 -10.08,-2.882 -3.96,-0.789 -6.16,-5.762 -9.79,-5.762 -1.21,-2.434 -7.16,-6.043 -9.5,-6.043 -1.26,-2.469 -3.07,-2.082 -4.75,-4.317 -2.07,-2.742 -4.88,-4.328 -7.35,-7.769 -2.87,-2.32 -5.76,-4.613 -8.64,-6.918 -1.21,-3.801 -2.42,-7.609 -3.63,-11.398 -1.63,-5.176 -3.91,-12.325 -8.46,-15.391 0,-2.07 -4.24,-7.711 -6.05,-9.063 -5.63,-4.226 -4.32,-10.222 -4.32,-15.125 5.28,-2.617 6.13,-7.316 12.78,-8.023 5.75,-0.621 8.79,1.109 14,1.109 0,1.727 25.92,1.086 25.92,4.325 5.14,0 44.93,6.273 44.93,8.632 7.69,0 15.01,3.34 22.46,5.188 0,2.586 14.69,4.539 14.69,6.914 5.54,0.516 10.89,-0.07 13.83,4.316 1.88,0 7.85,3.614 8.64,5.184 2.44,0.82 15.56,3.887 15.56,6.055 2.69,0 7.39,3.214 11.42,3.554 3.83,0.325 5.72,-1.832 9.3,-1.832 0,-0.297 6.48,-4.32 7.78,-4.32 1.4,-2.832 4.29,-2.656 7.21,-3.457 4.44,-1.211 2.03,-0.82 5.32,-3.457 2.82,-2.25 3.14,-4.414 6.04,-6.914 1.95,-1.66 5.62,-5.336 5.62,-7.774 5.04,-3.347 11.24,-16.035 11.24,-21.601 4.36,0 7.21,-17.274 9.5,-17.274 0,-2.453 1.76,-6.504 4.33,-7.777 0,-1.199 3.03,-7.781 3.45,-7.781 0,-4.16 1.72,-8.106 1.72,-12.09 0,-4.668 0,-8.375 0,-13.828 -3.83,0 1.66,-26.778 -1.72,-26.778 0,-4.257 -3.84,-13.113 -8.64,-15.554 0,-5.852 -12.93,-9.504 -17.28,-9.504 0,-2.41 -6.92,-0.957 -6.92,-3.457 -5.72,-1.434 -9.61,-3.457 -15.98,-3.887 -9.32,-0.625 -12.8,-5.808 -22.04,-7.344 0,-0.351 -10.05,-2.246 -12.09,-2.597 0,-2.676 -7.77,-2.539 -7.77,-4.317 -7.2,-0.578 -27.81,-4.316 -29.37,-4.316 0,-3.406 -71.13,-10.371 -74.32,-10.371 0,-1.445 -6.88,-2.598 -8.63,-2.598 0,0.039 -29.37,-4.531 -29.37,-0.859 -1.55,0 -2.42,-1.836 -5.04,-2.305 -3.32,-0.574 -6.63,-1.152 -9.94,-1.726 -7.26,-1.262 -13.98,-0.723 -21.32,-0.286 0,-3.234 -22.47,-2.675 -22.47,-6.054 -4.24,0 -6.98,-1.719 -11.22,-1.719 -3.46,0 -6.92,0 -10.38,0 0,-2.051 -4.2,-4.668 -6.04,-5.184" /><path
             id="path28"
             style="fill:#73c82c;fill-opacity:1;fill-rule:evenodd;stroke:none"
             d="m 3120.1,596 c 0,-1.176 -7.4,-6.059 -8.63,-6.059 -1.42,-2.91 -8.08,-6.113 -11.24,-6.898 -0.86,-1.734 -4.96,-4.332 -6.91,-4.332 -1.22,-2.418 -4.35,-3.457 -6.91,-3.457 0,-1.211 -8.66,-4.75 -10.37,-5.176 -3.57,-5.43 -10.94,-7.305 -17.28,-9.297 -7.03,-2.187 -13.29,-5.39 -20.73,-5.39 0,-2.911 -12.25,-2.68 -14.52,-2.715 -6.07,-0.059 -10.67,-0.02 -15.72,3.574 -1.69,2.512 -2.58,1.965 -2.58,4.316 -3.4,2.286 -1.28,3.645 -4.32,5.188 -0.58,3.172 -2.08,17.289 -4.34,17.289 0,3.109 -3.19,22.465 -5.17,22.465 0,2.062 -0.62,12.09 -1.74,12.09 0.22,3.886 0.45,7.777 0.66,11.66 0.22,4.062 -1.54,5.906 -1.46,10.492 0.12,6.578 0.5,14.043 8.06,15.406 6.64,1.211 12.77,1.321 19.53,1.321 5.08,0.867 6.89,0 12.09,0 0,-2.059 9.51,-1.399 9.51,-3.457 6.43,0 10.33,-0.872 16.41,-0.872 4.03,0 7.43,-1.718 11.24,-1.718 5,0 11.97,-1.387 18.14,-1.731 0,-0.054 8.61,-2.836 9.94,-3.023 6.45,-0.926 11.18,-4.758 16.86,-4.758 0,-4.316 17.63,-3.895 21.39,-9.746 1.6,-2.481 4.89,-15.305 0.19,-15.305 -2.6,-7.879 -4.8,-13.894 -12.1,-19.867 m 682.56,132.184 c 5.1,0 10.35,-41.465 7.78,-41.465 0,-1.563 0.25,-17.715 -0.12,-23.34 -0.39,-5.93 -1.69,-12.266 -5.06,-17.266 -1.74,-1.402 -10.37,-8.066 -10.37,-7.777 -2.07,0 -14.68,-7.223 -14.68,-7.789 -7.85,0 -15.52,-5.172 -24.19,-5.172 0,-0.316 -23.47,-2.641 -26.45,-3.637 -13.6,-4.539 -27.56,-6.234 -40.96,-7.597 0,-3.368 -21.6,-1.278 -21.6,-4.325 -8.88,0 -17.25,-4.972 -28.07,-5.613 -3.78,-0.219 -22.9,-3.129 -22.9,-5.609 -5.39,-0.371 -11.24,-1.739 -15.55,-1.739 0,-1.835 -9.47,-2.832 -12.09,-3.027 -10.05,-0.703 -14.76,-3.867 -25.92,-5.605 0,-1.661 -18.13,-5.18 -20.74,-5.18 0,-3.883 -25.19,-5.785 -29.98,-6.418 -4.23,-0.57 -7.49,-3.957 -11.5,-3.957 0,-1.984 -11.22,-2.59 -13.8,-2.59 0,-1.433 -19.9,-3.758 -19.9,-6.91 -1.71,0 -8.63,-1.234 -8.63,-2.602 -3.5,0 -5,-4.316 -8.63,-4.316 -2.01,-4.07 -7.79,-6.094 -7.79,-10.371 -2.97,-1.973 -5.75,-6.055 -6.91,-9.5 -0.55,-1.641 -3.56,-6.906 -4.31,-6.906 -1.24,-3.731 -2.44,-2.735 -3.45,-6.914 -1.71,-0.856 -4.33,-4.024 -4.33,-6.055 -2.45,-1.625 -7.78,-7.539 -7.78,-10.371 -2.43,-1.211 -4.25,-9.492 -5.18,-9.492 0.29,-3.172 0.58,-6.348 0.87,-9.512 2.6,-0.859 5.18,-1.727 7.76,-2.59 3,-3.738 6.42,-6.91 10.37,-6.91 0,-3.938 24.88,0.047 28.81,-0.031 13.35,-0.254 25.69,0.863 38.68,3.742 6.43,1.426 12.31,1.472 18.93,1.472 0,2.168 10.45,1.727 12.95,1.727 0,1.066 26.78,1.555 26.78,5.188 2.72,0.41 13.82,1.402 13.82,3.457 4.92,1.234 9.65,4.316 14.7,4.316 0,0.574 14.8,7.793 17.71,8.203 3.05,0.442 7.71,2.051 9.08,4.754 1.58,0 5.7,2.258 6.89,3.449 2.14,2.121 6.31,4.375 9.51,5.196 1.78,2.668 10.37,5.878 10.37,7.773 8.14,0 13.99,-3.047 21.43,-6.219 3.98,-1.711 12.26,-6.906 12.26,-11.926 2.74,0 3.33,-10.367 6.05,-10.367 2.7,-8.07 6.01,-14.652 7.79,-21.605 1.12,0 6.05,-15.676 6.46,-18.145 0.32,-1.836 6.4,-17.273 6.5,-17.273 0,-3.004 3.58,-33.703 0,-33.703 0,-2.559 -3.26,-12.09 -5.2,-12.09 0,-1.34 -2.72,-7.774 -3.46,-7.774 0,-3.867 -2.22,-7.597 -5.17,-11.523 -1.96,-2.578 -13.83,-7.715 -13.83,-9.219 -1.09,0 -7.76,-3.664 -7.76,-4.316 -4.09,0 -6.72,-2.598 -10.81,-2.598 -1.37,0 -10.81,-2.187 -10.81,-3.445 -6.42,0 -12.14,-0.883 -18.5,-1.613 -14.42,-1.661 -55.45,-9.247 -62.46,-9.004 -7.63,0.254 -143.25,-20.489 -153.83,-20.489 -11.9,0 -18.34,-2.675 -31.13,-3.281 -7.97,-0.379 -12.97,-5.019 -20.04,-7.383 -3,-0.996 -6.31,-1.093 -7.8,-4.023 -3.04,0 -2.12,-2.598 -5.17,-2.598 -2.79,-3.242 -5.67,-7.754 -8.64,-10.371 -0.59,-5.195 0,-8.808 0,-13.816 1.72,0 6.49,-10.071 8.64,-11.672 2.38,-1.777 5.99,-5.547 7.76,-8.203 3.74,0 9.13,-3.758 11.24,-6.914 2.54,0 8.02,-4.676 9.5,-6.914 3.75,0 4.63,-3.457 8.64,-3.457 0,-2.012 21.88,-4.278 25.98,-4.512 13.13,-0.762 26.59,1.601 39.1,5.5 2.25,0.711 14.41,1.668 14.41,3.328 1.75,0.441 9.51,2.734 9.51,4.336 5.36,1.289 6.07,3.445 12.09,4.316 0,2.188 7.77,1.27 7.77,3.45 1.59,0 7.79,1.406 7.79,2.597 6.19,0.684 8.52,0.438 12.09,5.184 5.46,0 10.58,6.047 16.41,6.047 0,0.359 14.3,6.043 16.42,6.043 0,1.328 20.96,4.629 24.19,4.902 6.58,0.547 11.97,-7.031 16.85,-10.945 2.91,-2.325 4.18,-7.082 7.35,-8.645 0.65,-2.597 3.41,-12.949 5.17,-12.949 1.81,-8.086 6.07,-12.43 6.07,-19.024 3.75,0 2.58,-31.933 2.58,-37.136 2.97,0 0,-24.453 0,-25.918 -1.21,0 -2.01,-16.418 -2.87,-19.016 -1.59,-4.734 -4.36,-12.715 -8.37,-14.687 0,-4.657 -10.66,-11.438 -13.81,-15.117 -1.86,-2.137 -6.99,-5.626 -9.51,-5.626 0,-0.683 -4.93,-2.585 -6.05,-2.585 -1.56,-3.196 -8.68,-6.067 -12.1,-6.907 -2.24,-4.472 -14.17,-7.773 -18.13,-7.773 0,-2.7931 -16.53,-4.4142 -19.02,-9.5118 -4.01,0 -11.89,-4.3946 -16.71,-6.0547 -7.4,-2.5586 -13.51,-2.5977 -21.3,-2.5977 0,-2.2656 -6.91,0.0391 -6.91,-2.5859 -5.29,-1.6211 -30.67,1.6679 -35.43,1.875 -6.96,0.2929 -13.94,0.4765 -20.92,0.8008 -6.37,0.2929 -12.51,2.5078 -18.82,2.5078 -2.34,0 -14.68,-0.3125 -14.68,1.7304 -7.06,0 -13.74,3.8164 -20.3,4.7539 -3.74,0.5274 -22.06,2.7071 -22.06,5.6055 -3,0 -5.46,1.9337 -9.5,2.5977 0,0.676 -6.67,4.316 -7.76,4.316 -1.75,3.536 -12.96,4.258 -12.96,6.922 -1.49,0 -9.5,4.641 -9.5,5.188 -4.25,1.035 -8.77,3.222 -11.24,6.894 -4.34,0 -5.92,6.934 -10.37,6.934 -3.38,4.055 -10.13,7.207 -12.09,11.23 -8.27,0 -11.98,14.043 -17.01,18.418 -4.02,3.528 -5.83,9.825 -9.78,11.817 0,2.597 -1.79,2.804 -2.59,6.047 -3.16,1.64 -1.12,4.461 -4.31,6.043 -0.93,3.671 -4.32,5.8 -4.32,9.511 -0.95,0 -4.33,6.231 -4.33,7.774 -3.49,0 -6.91,26.261 -6.91,29.804 0,7.051 -2.7,16.993 -4.12,25.918 -0.91,5.782 -1.47,11.946 -0.21,17.727 -1.03,8.152 -1.36,16.473 0.17,24.617 1.2,6.348 0.7,12.969 0.7,19.434 1.12,0 1.72,10.039 1.72,12.101 1.47,0 4.57,18.992 4.77,22.032 0.5,8.679 5.6,16.113 5.6,23.757 -0.59,0 6.93,21.114 6.93,22.461 3.4,0 3.81,17.285 6.05,17.285 0,1.602 1.54,9.504 2.59,9.504 0,3.801 0.2,9.578 3.45,11.231 0.83,4.082 2.59,5.105 2.59,8.64 0.72,0 3.46,6.446 3.46,7.774 3.3,0 4.93,15.547 7.76,15.547 1.32,7.961 3.7,11.933 6.07,19.015 0.96,2.957 3.45,5.782 3.45,8.641 1.99,0 3.85,17.93 4.31,20.734 -3.21,0 -4.6,0.227 -6.04,-5.187 -4.05,-0.961 -6.88,-4.317 -10.37,-4.317 0,-0.808 -6.92,-3.593 -8.64,-3.886 -4.21,-0.703 -77.12,-58.485 -79.07,-60.047 -3.38,-2.707 -4.72,-4.328 -9.05,-4.328 0,-2.051 -12.49,-6.035 -14.7,-6.035 0,-2.442 -8.64,-0.918 -8.64,-3.457 -2.87,-0.293 -5.75,-0.586 -8.64,-0.868 -0.76,-1.515 -2.52,-2.824 -4.09,-3.632 -2.34,-1.211 -5.51,-4.309 -7.14,-6.739 -0.85,0 -9.5,-3.926 -9.5,-4.328 -2.91,0 -19.01,-3.887 -19.01,-6.035 -1.94,-0.281 -12.1,-1.992 -12.1,-3.457 -3.5,-0.879 -7.17,-3.457 -10.37,-3.457 0,-2.578 -12.96,-4.121 -12.96,-6.914 -11.05,-2.766 -23.82,-6.719 -36.26,-8.242 -4.53,-0.567 -4.96,-2.168 -7.8,-5.586 -1.96,0 -1.16,-3.145 -3.46,-4.317 -1.4,-5.605 -4.16,-8.328 -4.61,-14.113 -0.84,-10.867 -2.68,-19.41 -4.02,-29.949 -3.25,0 -4.33,-16.121 -4.33,-19.863 -1.04,0 -0.78,-33.7 -4.33,-33.7 0,-3.418 -1.83,-22.472 -5.17,-22.472 0,-3.653 -1.07,-36.289 -1.73,-36.289 0,-3.328 -3.89,-31.094 -1.73,-31.094 1.13,-4.055 0.29,-9.199 -0.51,-13.242 -0.82,-4.082 -0.36,-6.758 -0.36,-12.403 0,-1.777 -5.19,-36.66 -4.96,-41.054 0.25,-3.985 -1.08,-6.336 -1.08,-9.336 -0.59,0 -2.97,-4.512 -4.33,-5.625 -3.02,-2.528 -6.55,-4.239 -8.63,-7.344 -2.82,0 -5.75,-3.4453 -8.63,-3.4453 0,-2.2774 -7.69,-2.5899 -9.51,-2.5899 0,-2.4492 -26.05,-3.4687 -30.45,-3.4687 -4.66,0 -6.99,1.8398 -11.9,3.4687 0,0.9375 -5.43,4.3281 -6.89,4.3281 -1.45,2.8011 -5.62,3.8631 -7.79,6.0231 -2.53,2.532 -7.48,2.032 -9.5,6.067 -4.16,0 -18.14,13.855 -18.14,18.133 -3.1,1.543 -2.73,21.074 -6.91,22.461 -0.59,4.328 -1.15,8.652 -1.74,12.968 -3.11,0 1.51,36.914 0.88,38.875 -2.09,6.438 2.58,27.563 2.58,33.481 0,4.129 -1.83,6.961 -1.43,10.867 0.43,4.484 2.3,6.367 2.3,9.648 0,4.258 -1.62,39.317 2.59,39.317 0,4.25 1.73,6.601 1.73,12.101 0.6,0 2.8,31.129 1.72,35.418 -1.75,1.055 -13.82,6.758 -13.82,6.914 -3.56,0 -6.46,5.188 -10.37,5.188 -2.71,4.023 -7.67,5.75 -10.81,9.5 -2.5,3.008 -9.92,6.211 -9.92,10.371 -0.92,0 -4.7,7.617 -6.04,9.492 -3.53,0 -7.58,5.403 -8.65,8.653 -4.47,2.238 -7.79,11.925 -7.79,16.417 -0.21,0 -5.17,14.278 -5.17,15.547 -1.21,0 11.24,65.606 11.24,68.25 2.26,0 3.14,13.828 6.04,13.828 0,6.192 12.69,13.731 18.14,15.547 5.17,1.739 8.08,1.993 14.45,1.289 2.59,-0.293 12.33,1.438 12.33,3.039 4.47,0 9.31,2.325 13.83,3.457 2.34,2.735 4.23,5.481 7.34,7.344 3,1.805 1.06,2.512 3.88,3.887 1.55,4.598 4.54,9.812 6.57,15.027 2.51,6.477 0.36,15.364 0.6,22.364 0.54,15.214 1.41,30.371 2.35,45.546 0.38,0 -7.2,9.231 -7.78,10.372 -2.42,0.351 -11.23,1.898 -11.23,3.457 -4.76,0 -7.11,1.093 -12.71,-1.153 -5.56,-2.226 -11.59,-1.718 -17.54,-1.933 -2.55,-0.086 -13.8,0 -13.8,-2.094 -4.05,0 -6.09,-2.594 -9.95,-2.594 -5.92,0 -11.96,-7.781 -18.59,-7.781 0,-1.223 -6.93,-5.188 -8.63,-5.188 -2.74,-4.128 -6.32,-5.214 -11.24,-6.043 0,-2.98 -18.96,-4.843 -23.31,-5.187 0,-2.559 -25.44,2.598 -27.22,2.598 -5.91,0 -12.7,5.183 -17.72,5.183 -4.7,4.367 -10.22,8.496 -13.82,13.821 -6.78,0.578 -10.13,1.457 -14.49,-2.012 -3.76,-2.988 -3.91,-8.828 -3.91,-13.145 0,-5.066 -2.16,-8.886 -3.55,-13.633 -3.03,-10.293 8.4,-14.043 7.96,-23.046 -0.5,-10.098 1.01,-17.332 0.42,-27.528 -0.19,-3.406 -0.19,-7.179 -1.12,-10.488 -1.74,-6.191 0.88,-12.824 -0.86,-19.016 0.32,-13.109 2.15,-27.011 -0.47,-39.843 -1.02,-5.028 0.47,-7.637 0.47,-12.852 0,-7.148 0.27,-14.109 0.35,-21.219 0.07,-5.656 -2.46,-11.718 -3.04,-17.422 -0.69,-6.672 -0.77,-13.41 -0.76,-20.109 0.11,-2.422 1.53,-17.285 0,-17.285 0,-6.856 -1.73,-12.52 -1.73,-18.574 0,-8.379 -3.59,-13.465 -2.88,-22.618 0.83,-10.8 -0.42,-24.14 -1.73,-37.429 -1.18,-12.129 -2.9,-22.922 -2.09,-34.133 0.3,-4.16 2.15,-21.16 4.96,-21.16 0,-10.742 1.74,-25.988 1.74,-36.731 0,-3.484 1.73,-6.23 1.73,-9.5 0,-5.539 0.02,-13.39 -0.18,-20.254 -0.1,-3.937 -2.45,-33.73 -4.15,-33.73 0,-2.871 -3.21,-20.742 -5.18,-20.742 0,-1.477 -5.93,-15.559 -6.05,-15.559 0,-1.562 -1.39,-7.773 -2.59,-7.773 0,-3.848 -6.04,-7.11 -6.04,-11.239 -1.21,-1.015 -11.24,-7.8511 -11.24,-6.9058 -3.96,0 -6.91,-2.832 -11.72,-2.8516 -1.39,-0.0078 -41.13,0.2539 -44.88,0.2539 -9.41,0 -15.02,2.1485 -23.75,4.3282 -3.7,4.6173 -6.26,7.8083 -10.8,11.6603 -4.52,3.828 -7.23,9.637 -11.66,12.957 -2.17,1.621 -4.33,5.078 -4.33,7.344 -3.06,0 -1.91,12.968 -5.18,12.968 0,1.934 -4.69,13.809 -6.05,13.809 -0.42,2.519 -1.89,13.84 -3.46,13.84 0,8.347 0,16.687 0,25.047 -2.35,0 -2.93,19.004 -5.18,19.004 0,2.199 -4.06,17.285 -6.04,17.285 -0.72,2.168 -4.35,12.961 -5.19,12.961 -1.26,4.929 -4.28,7.722 -6.05,12.957 -2.56,1.699 -6.91,6.601 -6.91,9.511 -3.79,1.895 -4.15,13.821 -7.77,13.821 0,4.218 -5.75,6.453 -6.92,11.238 -3.67,2.742 -4.2,7.687 -7.77,9.492 0,1.758 -5.28,9.551 -6.92,10.371 0,4.793 -3.92,5.332 -6.9,9.074 -1.07,1.336 -6.8,9.071 -6.91,9.071 0,1.289 -1.5,5.187 -2.61,5.187 0,2.645 -2.46,6.805 -5.18,9.071 -5.45,4.543 -4.47,9.101 -7.78,14.472 -2.26,3.672 -6.04,8.438 -6.04,11.875 -1.85,0 -1.59,7.254 -4.32,8.645 0,5.039 -8.64,7.117 -8.64,12.097 -3.72,1.883 -8.76,9.227 -12.09,12.95 -2.54,0 -2.6,1.875 -4.82,3.398 -2.89,2.012 -4.29,2.102 -7.9,1.524 -1.47,-0.235 -4.57,-0.469 -4.57,-2.325 -3.82,0 -2.69,-2.597 -6.04,-2.597 0,-2.325 -2.6,-1.532 -2.6,-4.317 -2.85,-1.457 -1.73,-3.945 -1.73,-6.906 0,-1.949 -0.69,-14.695 -2.59,-14.695 0,-3.66 -7.05,-33.692 -7.77,-33.692 0,-8.222 -6.05,-19.472 -6.05,-28.515 -0.85,0 -5.18,-11.043 -5.18,-12.95 -3.7,0 -0.76,-22.468 -4.33,-22.468 0,-2.063 2.41,-21.606 0.87,-21.606 0,-13.758 -2.59,-20.691 -2.59,-33.472 0,-6.985 0,-13.965 0,-20.942 0,-6.472 -3.15,-12.906 -5.19,-19.012 -0.25,-2.39 -0.8,-16.433 -2.59,-16.433 0,-3.984 -2.59,-5.324 -2.59,-9.504 -0.87,0 -5.18,-12.188 -5.18,-13.828 -7.48,-3.574 -7.22,-16.121 -19.49,-13.067 -2.76,0.696 -29.72,3.575 -34.3,3.575 -5.95,0 -11.43,0.871 -17.06,0.871 0,1.883 -22.13,1.035 -25.06,6.914 -4.25,0.926 -7.03,0.586 -9.5,4.305 -2.51,0 -2.99,2.929 -5.19,4.757 -5.55,4.649 -5.32,11.778 -6.39,19.266 -0.95,6.672 -5.11,9.836 -5.33,16.797 -0.14,4.394 0.47,8.828 1.14,13.164 0.99,6.34 -1.24,11.711 -1.87,17.902 -0.45,4.531 1.65,8.856 2.55,13.211 1.09,5.332 -0.56,8.02 -0.9,13.399 -0.21,3.378 3.37,23.339 2.16,23.339 0.13,2.364 0.03,16.407 1.73,16.407 0,1.914 0.78,7.773 2.59,7.773 2.81,12.52 4.36,23.926 5.48,38.313 1.32,17.136 8.34,25.117 8.34,42.91 3.17,0 1.79,20.73 5.19,20.73 0,7.727 5.18,16.082 5.18,24.199 1.54,0 5.65,25.301 6.91,29.375 0,9.688 2.68,20.743 5.3,31.915 1.65,6.992 3.15,14.023 4.94,20.98 1.9,7.352 1.54,13.648 1.18,21.227 -0.34,7.136 0.08,14.296 1.63,21.289 1.45,6.504 0.64,12.472 1.26,19.027 0.63,6.676 0.39,13.465 0.39,20.207 0,4.391 2.44,9.906 1.88,14.004 -1.82,13.461 -2.71,25.863 -3.61,38.844 -1.43,0 -5.18,11.629 -5.18,13.82 -2.8,0 -3.78,29.375 -0.87,29.375 0,3.238 1.89,6.125 2.31,10.652 0.42,4.641 0.22,5.164 -0.15,11.375 -0.68,11.582 3.02,20.86 3.02,31.973 0,6.875 3.45,14.219 3.45,22.035 -0.52,0 10.38,17.77 10.38,19.871 2.9,0 4.44,5.184 7.77,5.184 1.9,2.375 9.51,6.543 9.51,7.773 3.57,0 5.33,2.071 9.5,3.457 0,0.93 8.3,3.117 10.37,3.457 0,5.684 26.91,0.91 31.32,0.645 6.85,-0.41 10.27,-1.254 16.2,-3.242 5.83,-1.93 9.45,-7.11 15.55,-8.633 0,-3.387 13.83,-4.52 13.83,-6.914 2.84,0 7.33,-1.715 8.64,-4.317 3.12,0 7.77,-8.836 7.77,-11.23 6.19,0 4.83,-27.625 4.97,-32.617 0.06,-2.071 -0.14,-12.325 1.94,-12.325 0,-8.984 0.17,-17.812 0.87,-26.777 0.22,-2.961 1.82,-28.515 1.73,-28.515 -3.13,-9.317 0,-20.309 0,-28.516 1.38,0 5.18,-12.313 5.18,-14.688 2.55,0 0.25,-8.355 0.03,-10.175 -0.43,-3.496 6.02,-7.176 6.02,-10.547 3.24,-1.66 5.18,-7.989 5.18,-11.239 0.36,0 5.19,-7.804 5.19,-8.644 3.89,-1.914 3.87,-6.582 7.77,-9.5 0,-3.703 5.43,-7.609 6.92,-12.098 3.06,-9.238 18.14,-14.965 18.14,-24.191 0.72,0 3.46,-4.719 3.46,-6.047 4.17,-2.09 7.44,-9.375 11.22,-12.527 2.06,-1.711 6.05,-6.575 6.05,-9.075 3.41,-3.187 13.82,-10.078 13.82,-14.687 2.97,-1.461 6.04,-6.895 6.92,-10.371 2.98,-2.559 12.96,-10.797 12.96,-14.688 6.39,-4.257 8.47,-17.058 18.12,-17.343 3.83,-0.11 4.72,-0.664 6.93,2.656 2.12,0 -0.38,1.738 1.73,1.738 1.37,5.899 3.88,10.774 4.75,15.117 0.38,1.856 3.15,6.477 1.3,6.477 -0.35,6.375 0,12.996 0,18.144 1.76,0 4.04,27.411 4.33,31.961 3.46,0 0.14,10.938 -0.42,12.911 -1.62,5.722 0.42,9.152 0.42,13.878 0.48,0 2.58,34.344 2.58,38.02 0,4.137 0.42,31.102 2.59,31.102 0,3.738 1.51,29.382 3.46,29.382 0,4.075 1.04,20.723 4.33,20.723 0.74,5.992 2.89,8.793 -0.04,14.551 -1.22,2.406 -0.82,20.019 0.9,20.019 -0.75,13.457 0.86,22.25 0.86,35.422 2.88,0 -1.16,13.817 1.73,13.817 0.9,7.296 2.71,10 7.34,15.558 5.57,6.668 13.97,10.567 22.89,13.828 1.91,0 12.97,1.668 12.97,0 3.58,0 11.08,-1.457 12.96,-5.187 9.48,0 18.77,-5.196 25.05,-12.528 1.81,-2.101 5.18,-3.808 5.18,-6.48 1.67,0 1.51,-2.477 3.46,-3.453 0,-3.223 3.75,-4.942 6.05,-6.914 0,-2.34 2.27,-4.688 4.32,-6.051 0,-1.137 1.9,-6.047 2.6,-6.047 0,-4.348 1.72,-9.308 1.72,-13.39 0,-5.118 7.13,-17.208 14.38,-16.348 4.94,0.598 5.54,4.726 8.95,7.265 0,1.457 3.58,6.915 4.33,6.915 0,3.781 3.89,7.578 6.4,10.371 3.84,4.238 8.48,12.043 13.98,13.945 9.54,3.301 32.08,5.957 36.63,9.387 0.79,3.113 5.59,11.23 9.5,11.23 1.62,3.348 22.46,7.606 22.46,7.781 7.29,-0.613 25.18,5.219 30.25,6.907 9.16,3.054 115.78,14.5 115.78,9.5 4.5,0 53.4,-0.118 58.22,-0.34 6.08,-0.293 73.1,-3.039 73.1,-3.977 2.57,0 4.36,-1.816 7.07,-1.543 3.99,0.403 36.82,-5.371 42.83,-5.371 9.49,0 13.93,-2.734 23.78,-3.031 3.71,-0.121 41.23,-6.91 41.23,-8.199 3.14,0 7.48,-3.926 11.24,-5.176 0,-0.391 15.18,-2.93 17.29,-3.461 0,-1.656 12.74,-6.91 14.66,-6.91 0,-2.332 8.65,-5.321 8.65,-9.508 3.31,-1.633 10.37,-7.523 10.37,-11.234 6.81,-3.34 6.58,-13.868 12.96,-18.141 0,-3.344 2.6,-2.23 2.6,-6.051 1.69,0 0.26,-2.293 2.59,-3.457 0.8,-4.051 3.51,-10.437 6.9,-12.086 0,-2.922 2.61,-3.457 3.45,-6.926 1.88,0 1.99,-5.117 2.32,-6.617 1,-4.652 3.75,-11.34 3.75,-14.984 3.38,0 6.04,-12.512 6.04,-15.543 0,-8.598 3.46,-17.262 3.46,-25.063 0,-4.16 1.72,-8.117 1.72,-12.089 0,-4.551 0,-10.411 0,-16.414 -2.78,0 -2.76,-23.176 -4.25,-27.559 -2.64,-7.734 -7.72,-29.445 7.2,-23.273 2.71,1.113 7.42,4.804 7.42,7.628 3.33,2.95 10.37,7.95 10.37,12.102 3.63,1.844 3.05,7.586 6.91,9.5 0,4.012 3.46,4.891 3.46,8.641 3.83,2.531 3.81,8.418 7.78,10.363 0,1.691 3.95,8.64 5.18,8.64 0,2.54 5.65,15.555 6.91,15.555 0,2.199 4.16,17.278 5.18,17.278 1.29,9.14 6.26,12.5 7.78,21.605 1.59,0 2.59,5.172 2.59,6.91 2.87,1.445 2.43,4.18 5.2,6.485 3.35,2.793 2.89,4.433 3.45,8.632 0.6,4.516 3.45,8.321 3.45,11.661 3.5,1.777 2.81,5.41 5.19,7.785 2.92,2.918 3.7,6.121 7.76,9.5 0,1.601 1.17,6.054 2.61,6.054 0,8 11.37,12.696 17.27,14.688 0,1.601 19.12,4.316 21.6,4.316 0,0.52 20.36,5.188 22.47,5.188 4.2,0 29.37,1.668 29.37,3.449 7.71,0 40.87,9.508 42.33,9.508 0,2.617 121.3,31.965 126.15,31.965 0,2.363 51.83,13.593 51.83,14.695 2.37,0.207 14.69,0.988 14.69,3.457 4.21,0 6.17,2.582 10.38,2.582 0,-0.18 29.38,6.883 29.38,4.324 2.63,0 10.37,-0.168 10.37,-2.586 4.08,0 6.46,-5.187 10.37,-5.187 3.84,-4.406 7.71,-8.645 12.96,-8.645 0,-0.73 3.08,-1.504 4.3,-3.027 2.04,-2.52 13.24,-29.18 14.15,-35.176 0.56,-3.785 6.93,-21.152 7.45,-23.144" /><path
             id="path30"
             style="fill:#73c82c;fill-opacity:1;fill-rule:evenodd;stroke:none"
             d="m 4982.89,304.824 c 3.37,0 19.54,-2.586 23.76,-2.586 1.62,0 6.48,3.043 6.48,0 5.58,-1.855 8.93,-4.328 13.83,-4.328 5.26,0 8.34,-2.336 12.39,-1.941 3.97,0.371 7.45,1.621 11.41,-0.871 2.92,-1.825 4.77,-6.231 4.71,-9.231 -0.07,-2.801 -0.13,-6.238 -1.73,-8.687 -1.54,-1.282 -70.67,-10.364 -73.44,-10.364 0,-4.336 -74.58,-8.183 -83.11,-8.972 -2.29,-0.227 -9.34,0.164 -9.34,2.058 -5.25,0.352 -15.96,-1.328 -17.28,2.586 -2.31,0 -1.55,2.59 -4.31,2.59 0,1.848 -4.29,1.719 -5.77,2.024 -1.59,0.32 -9.78,4.871 -9.78,5.761 -5.74,1.395 -21.53,10.34 -19.49,17.949 1.38,5.157 5.51,9.43 9.75,12.442 5.77,4.109 10.7,2.969 17.51,2.43 0,2.628 12.8,-1.114 14.69,-1.426 1.51,-0.254 6.92,-0.145 6.92,-2.02 3.38,0.34 52.13,3.446 63.92,3.446 0,-3.055 30.56,3.371 38.88,-0.86 m -960.76,294.629 c 6.34,-1.742 6.52,-12.773 7.3,-17.949 0.56,-3.789 2.5,-33.027 3.93,-33.027 -0.19,-3.497 0.19,-31.114 -1.73,-31.114 0,-9.187 -2.59,-15.703 -2.59,-23.32 -3.44,-1.719 -0.87,-4.293 -4.32,-6.055 0,-2.461 -5.76,-8.418 -7.79,-9.929 -5.84,-4.387 -10.69,-5.157 -18.5,-3.856 -6.67,1.102 -13.25,-3.535 -19.99,-4.324 -3.26,-0.395 -15.93,-0.152 -15.93,3.422 -9.23,7.402 -3.03,16.578 -0.87,25.062 1.12,0 2.6,5.817 2.6,6.91 2.57,0 2.94,8.645 5.18,8.645 0,2.684 4.48,12.176 7.77,13.816 0,4.59 4.32,8.75 4.32,13.828 2.92,0 2.73,11.301 6.05,12.961 0,3.77 4.78,6.551 6.05,10.36 1.6,4.785 3.26,5.996 4.32,10.371 0.38,0 7.22,12.441 7.78,14.687 2.65,0 -0.07,5.188 2.59,5.188 0,5.324 10.02,8.262 13.83,4.324 m 50.97,169.348 c 4.12,0 6.37,-7.031 9.5,-8.645 0.39,-1.527 19.79,-29.121 23.91,-32.832 2.43,-2.195 6.33,-6.629 6.33,-9.512 2.23,-1.093 6.93,-8.925 6.93,-11.226 2.62,-1.313 3.63,-5.125 4.3,-8.207 1.07,-4.774 6.91,-7.418 6.91,-11.66 2.34,-1.153 4.32,-6.914 4.32,-9.508 1.58,0 3.46,-5.863 3.46,-7.777 2.87,0 4.37,-34.895 4.76,-38.02 1.08,-8.726 5.61,-15.426 5.61,-23.328 3.21,0 3.56,-19.863 6.05,-19.863 0,-2.051 5.29,-24.2 6.05,-24.2 0,-3.769 1.92,-22.461 4.33,-22.461 0.19,-1.738 1.32,-12.089 2.57,-12.089 0,-4.231 1.73,-5.625 1.73,-9.082 0,-5.473 0.99,-19.883 10.13,-21.016 5.07,-0.625 9.74,8.762 9.74,11.945 1.26,0 3.03,5.164 3.46,6.914 4.67,2.371 4.11,10.731 8.66,12.957 1.71,5.293 5.29,8.106 6.91,12.961 1.58,4.793 3,7.434 6.89,10.371 0,2.02 3.44,6.915 5.2,7.774 0.82,3.211 2.59,3.465 2.59,6.043 1.32,0.89 5.17,4.664 5.17,6.055 5.42,0 6.69,9.511 12.11,9.511 1.46,2.942 11.94,11.66 13.25,15.254 1.3,3.606 1.09,5.957 4.89,7.199 0,0.301 6.28,5.184 7.78,5.184 0,1.32 7.87,6.379 9.5,6.918 4.17,1.383 8.65,2.207 8.65,4.312 3.18,0 18.68,11.418 19.86,13.829 4.44,0 6.02,6.914 10.37,6.914 1.3,1.972 10.37,5.937 10.37,6.914 4.37,1.062 4.84,2.531 9.5,3.449 1.22,2.508 10.37,5.398 10.37,6.922 1.27,0 5.18,1.484 5.18,2.578 3.34,0.84 10.54,3.871 12.11,6.914 6.51,0 14.3,8.105 21.16,9.082 6.69,0.961 11.85,4.785 18.58,6.477 0,0.925 10.43,3.914 12.09,4.324 0,0.429 14.51,3.242 17,3.73 3.76,0.75 6.18,1.973 9.79,3.184 1.81,0.605 7.77,3.453 7.77,4.316 13.11,2.188 40.74,10.371 42.33,10.371 0,0.996 9.2,1.723 11.24,1.723 0,1.012 7.1,2.594 8.63,2.594 0,0.957 14.09,1.718 16.42,1.718 0,3.879 41.62,6.313 45.17,6.321 4.24,0.008 7.19,-0.266 10.57,-0.266 4.77,0 7.59,1.731 13.38,1.731 4.64,0 12.26,-0.887 17.08,-3.457 3.22,-1.731 6.46,-3.457 9.71,-5.188 1.12,-2.265 5.18,-1.738 5.18,-3.453 5.5,-1.387 9.38,-7.094 12.67,-11.809 3.06,-4.367 7.41,-5.703 11.24,-10.078 3.17,-3.625 5.37,-7.695 8.92,-10.09 0,-3.187 1.74,-1.367 1.74,-5.175 0,-4.336 4.58,-6.414 7.76,-9.071 5.42,-4.523 5.16,-13.859 11.24,-16.847 2.55,-4.145 2.93,-10.039 3.46,-14.688 2.62,0 5.38,-12.273 6.04,-14.687 2.97,0 4.14,-19.59 4.71,-23.789 1.17,-8.633 -0.39,-17.403 -0.39,-24.598 0,-4.523 1.02,-28.516 -2.59,-28.516 0,-1.808 -0.43,-10.359 -1.73,-10.359 0,-3.871 -2.59,-6.02 -2.59,-9.516 -1.86,0 -5.49,-20.371 -8.64,-22.461 0,-2.558 -1.51,-2.851 -3.46,-4.316 -2.06,-6.316 -6.69,-8.809 -8.63,-15.273 -1.17,-3.891 -2.39,-3.008 -3.47,-7.184 -2.37,-2.09 -6.9,-4.516 -6.9,-7.777 -1.94,-0.973 -5.19,-5.633 -5.19,-7.782 -4.85,-2.422 -6.65,-8.644 -12.09,-8.644 0,-1.152 -26.01,-1.715 -28.52,-1.715 0,-2.797 -11.34,1.328 -12.95,1.715 -1.94,3.789 -3.68,2.598 -6.48,2.598 -3.49,0 -21.17,-0.997 -21.17,3.457 -3.86,0 -6,4.941 -10.37,6.046 -1.1,2.313 -6.44,4.325 -8.63,4.325 0,0.41 -4.91,3.867 -6.35,4.629 -2.02,1.074 -4.21,1.984 -5.94,3.535 -1.2,1.062 -1.99,2.375 -2.41,3.925 -1.75,0.364 -3.14,1.282 -4.16,2.758 -3.8,5.817 -5.14,15.93 -3.97,22.614 0.22,1.347 1.22,15.742 1.22,21.289 1.24,0 0.05,8.632 -0.86,8.632 0,3.75 2.48,23.52 5.33,28.946 2.81,5.344 2.44,10.293 2.44,16.418 0,3.797 -2.54,12.508 -6.05,14.258 0,3.242 -6.66,6.042 -9.49,6.042 -4.59,0 -12.93,0.567 -17.29,-0.859 0,-0.965 -7.22,-3.617 -9.06,-3.887 -4.35,-0.625 -9.15,-2.168 -13.4,-2.168 0,-0.734 -6.23,-3.062 -7.78,-3.457 0,-1.441 -9.6,-2.625 -12.1,-3.457 -5.32,-1.773 -6.65,-6.386 -12.09,-7.773 0,-2.988 -8.64,-2.559 -8.64,-4.316 -4.89,-0.977 -5.89,-3.204 -10.36,-4.317 -4.07,-5.09 -7.78,-6.055 -12.11,-11.238 -6.59,-2.18 -8.51,-4.113 -13.83,-8.629 0,-3.844 -6.43,-6.52 -8.63,-9.078 -3.67,-4.297 -7.54,-5.297 -11.24,-9.942 -2.67,0 -12.09,-9.414 -12.09,-12.089 -3.95,-2.641 -4.62,-6.493 -8.63,-9.512 0,-3.77 -6.05,-5.645 -6.05,-9.5 -4.49,-3.918 -7.79,-7.043 -9.52,-12.102 -2.21,-1.113 -7.76,-7.824 -7.76,-10.359 -3.2,-1.613 -6.08,-7.797 -6.92,-11.242 -3.39,-2.715 -4.44,-6.094 -7.78,-7.774 0,-3.008 -2.59,-4.336 -2.59,-6.906 -0.76,0 -6.95,-7.969 -7.34,-9.93 -0.42,-2.164 -4.28,-14.257 -5.62,-14.257 0,-6.559 -5.72,-11.895 -6.34,-21.036 -0.4,-5.808 0.95,-11.433 0.5,-17.422 -0.09,-1.414 -2.08,-6.472 0.67,-6.472 0,-4.973 6.14,-6.641 8.63,-10.371 5.5,-1.379 6.79,-4.953 11.63,-7.199 2.32,-1.075 3.69,-1.993 5.23,-4.032 1.89,-2.519 4.17,-1.515 5.6,-4.316 4.07,0 5.97,-6.914 9.5,-6.914 1.95,-3.82 7.67,-4.004 10.8,-7.785 2.78,-3.321 21.18,-12.325 21.18,-16.407 2.92,0 7.8,-4.355 9.51,-6.914 2.96,0 1.08,-3.457 5.17,-3.457 1.33,0 6.05,-0.566 6.05,-1.718 2.41,0 6.58,-2.793 7.78,-5.196 3.5,0 6.44,-5.058 10.37,-6.043 0,-3.633 15.55,-5.176 15.55,-7.785 5.12,0 9.86,-5.176 14.7,-5.176 0,-2.839 15.55,-3.996 15.55,-6.914 7.33,-0.457 13.72,-0.832 20.73,-3.152 6.91,-2.324 12.85,-4.621 20.15,-4.621 4.46,0 23.91,-0.84 23.91,0.871 3.42,0 27.64,-0.324 27.64,1.719 4.75,0 6.75,1.726 11.23,1.726 0,2.383 11.75,2.395 14.7,2.598 0,1.32 11.78,6.902 13.82,6.902 0.98,1.977 3.46,1.789 3.46,3.469 4.1,0 5.23,3.086 7.77,6.035 2.75,0 11.62,5.43 13.39,7.774 2.78,3.691 8.57,9.511 13.41,9.511 0.89,1.836 6.43,4.317 8.63,4.317 0,2.531 8.56,1.543 10.36,0.871 0,-2.121 1.73,0.379 1.73,-1.731 4.06,0 4.89,-3.672 6.91,-6.914 3.4,-1.133 4.9,-0.75 6.05,-4.316 1.97,-0.984 1.21,-2.598 2.6,-2.598 0,-2.683 5.17,-4.707 5.17,-6.035 7.25,-5.605 18.15,3.359 18.15,9.492 6.78,0 0.26,54.434 3.45,54.434 0,6.609 5.2,14.414 5.2,21.601 2.74,0 2.58,19.864 6.03,19.864 0,6.683 3.68,11.769 6.05,19.015 2.41,0 2.49,18.145 6.05,18.145 0,2.722 6.18,22.469 7.79,22.469 0,2.265 6.53,22.461 7.76,22.461 0,1.23 1.66,6.914 2.61,6.914 0,1.171 3.3,8.632 4.31,8.632 0.6,3.594 6.56,19.004 8.64,19.004 0,5.274 5.43,10.696 6.48,15.989 0.61,3.015 3.88,6.144 3.88,9.07 1.48,0 4.12,8.496 6.91,10.371 0,2.676 0.78,1.406 1.74,5.188 1.15,0 1.42,5.156 1.79,6.636 1.62,6.551 1.79,13.629 -0.07,20.149 0,5.117 -1.31,9.082 -1.77,14.027 -0.33,3.473 1.77,7.965 1.77,12.75 1.07,0 3.55,15.547 6.06,15.547 0,3.262 5.68,17.289 8.64,17.289 1.11,4.352 2.66,13.375 6.47,16.418 2.9,2.308 5.72,9.496 9.94,9.496 2.67,4.004 6.46,4.824 9.95,9.086 3.89,4.762 6.24,6.473 11.66,6.473 0,2.683 17.77,4.207 21.6,5.441 6.91,2.215 13.82,4.43 20.72,6.656 7.78,0 12.75,0.973 20.31,1.504 8.69,0.625 74.74,12.813 74.74,11.445 7.8,0 65.16,11.973 78.41,12.758 12.11,0.699 24.82,7.012 38.23,7.692 4.33,0.238 32.83,1.074 32.83,3.75 11.72,0 19.74,0.863 29.38,0.863 0,2.34 20.22,3.457 23.76,3.457 9.5,0 54.24,8.531 57.46,9.078 4.09,0.684 14.82,0.988 19.24,2.988 4.27,1.954 41.31,9.27 45.55,9.532 0,2.871 15.55,4.933 15.55,7.777 3.19,0 25.07,1.91 25.07,3.453 6.91,1 11.62,1.895 18.3,-0.34 3.11,-1.047 6.22,-2.082 9.33,-3.113 2.37,-2.621 5.87,-8.637 9.52,-8.637 1.68,-2.246 6.03,-5.644 6.03,-7.773 4.57,-3.809 8.73,-9.285 12.98,-12.098 0,-2.969 3.44,-4.406 3.44,-7.773 2.23,0 4.86,-8.938 7.78,-10.371 1.8,-5.481 6.24,-8.625 7.78,-14.7 0.93,0 5.18,-10.031 5.18,-12.089 1.09,0 3.2,-12.09 5.19,-12.09 -0.29,-3.446 4.96,-70.852 0,-70.852 0,-5.015 -0.39,-8.562 -5.16,-11.648 -4.37,-2.813 -10.46,-5.801 -15.13,-4.324 -4.75,1.492 -4.64,0.417 -9.08,0.417 -7.61,0 -14,0.856 -21.4,2.598 -8.6,2.031 -42.55,4.317 -53.77,4.317 -6.08,-1.719 -12.46,-1.719 -18.74,-1.719 -5.92,0 -9.67,-1.738 -14.96,-1.738 -5.36,0 -9.59,-0.977 -14.79,-1.797 -5.35,-0.84 -8.15,0.742 -12.43,1.367 -1.44,0.207 -8.22,-0.899 -8.22,-2.156 -6.68,0 -15.95,1.652 -22.27,-0.508 -4.58,-1.574 -33.77,-1.34 -38.42,-2.531 -3.24,-0.829 -8.37,-2.461 -11.03,-2.145 -5.92,0.73 -9.42,1.07 -15.17,-0.734 -5.86,-1.828 -10.08,-0.137 -14.62,-0.137 -5.01,0 -11.43,-0.676 -17.72,-1.731 0,-1.796 -18.1,-1.718 -20.83,-1.773 -3.74,-0.102 -33.58,-3.5 -33.58,-3.402 -4.39,-0.411 -39.76,-2.547 -39.76,-2.598 -10.57,-1.035 -14.32,-4.199 -24.75,-4.609 -4.15,-0.153 -65.11,-7.754 -65.11,-10.078 -5.89,-1.473 -4.96,-3.555 -9.5,-7.344 -6.21,-5.176 -10.1,-7.793 -16.42,-12.528 0,-3.046 -4.75,-7.398 -6.04,-11.23 -2.05,0 -1.39,-5.188 -3.46,-5.188 0,-4.707 -12.92,-22.07 -13.25,-26.21 -0.68,-8.907 0.24,-13.809 7.21,-19.579 9.7,0 18.12,-2.589 28.51,-2.589 0,-1.825 11.94,-1.407 13.82,-1.297 7.25,0.402 12.99,-0.77 20.74,-1.301 10,0 19.13,-1.024 29.6,-2.617 5.24,-0.782 8.5,0.898 12.74,0.898 0,1.41 14.37,1.535 16.29,1.477 2.55,-0.09 26.43,3.699 30.37,3.699 0,-0.859 20.1,4.797 22.46,5.187 5.79,8.684 14.88,8.407 24.18,6.047 0,0.067 7.58,-3.461 8.65,-3.461 1.17,-1.539 7.77,-5.457 7.77,-6.043 1.6,0 6.92,-1.847 6.92,-3.457 4.23,0 5.74,-6.3 8.63,-7.773 0,-2.024 28.52,-45.656 28.52,-49.25 4.13,-2.141 4.31,-9.902 4.31,-13.828 0,-5.426 1.73,-7.926 1.73,-12.52 0,-6.406 0.08,-12.812 0.09,-19.219 0.02,-4.843 -0.72,-27.871 -5.28,-27.871 0,-3.281 -1.41,-5.789 -4.3,-8.211 -3.82,-3.164 -12.97,-12.89 -12.97,-18.574 -1.81,-4.308 -18.16,-13.996 -18.16,-15.558 -7.17,0 -13.07,-2.344 -19.86,-4.61 -4.52,-1.504 -8.55,-4.883 -12.09,-4.883 0,-1.746 -6.71,-4.043 -8.22,-6.054 -5.96,-7.949 4.64,-18.106 10.81,-23.758 3.29,-3.02 6.69,-5.832 7.77,-9.941 6.04,-1.184 10.33,-6.477 12.1,-12.102 0,-11.777 -2.02,-68.242 -4.31,-68.242 0,-3.113 -10.29,-35.789 -17.53,-38.613 -3.76,-1.465 -37.88,-18.418 -44.68,-18.418 0,-7.09 -133.08,-20.039 -149.47,-19.961 -2.4,0.011 -26.8,-1.387 -26.8,1.828 -8.31,0 -18.35,2.664 -25.92,5.176 -3.44,1.14 -42.1,9.734 -45.79,17.285 -2.3,0 -7.89,4.461 -9.5,6.472 -1.59,2.012 -9.02,6.485 -11.22,6.485 -1.32,2.59 -3.4,2.558 -6.07,3.457 -1.64,2.07 -2.39,4.316 -5.17,4.316 -2.68,4.055 -8.3,7.93 -12.1,12.09 -1.48,0 -6.91,3.398 -6.91,4.316 -3.11,2.09 -1.54,2.961 -4.33,4.329 0,4.531 -4.12,4.863 -6.05,8.64 -3.61,0 -8.87,6.77 -11.23,9.512 -1.92,0.984 -6.04,6.738 -6.04,8.633 -3.84,3.058 -4.16,5.871 -6.92,8.633 -1.34,1.367 -8.63,4.464 -8.63,3.457 -6.79,0 -10.21,-15.547 -12.97,-15.547 0,-3.036 -3.33,-6.258 -3.88,-9.512 -0.27,-1.543 -2.86,-10.352 -4.74,-10.352 0,-2.695 -4.96,-13.328 -7.79,-14.687 0,-1.66 -8.21,-14.707 -8.63,-14.707 0,-2.442 -3.52,-6.942 -5.62,-8.621 -4.2,-3.371 -3.91,-8.371 -8.22,-11.242 -4.46,-5.215 -8.7,-6.875 -12.95,-11.407 -4.82,-5.125 -10.29,-12.754 -16.84,-14.082 -6.49,-1.3083 -10.54,-5.6052 -17.29,-5.6052 -3.75,0 -6.59,-1.8555 -11.67,-2.168 -7.65,-0.457 -14.41,-1.621 -22.81,-1.9921 -10.23,-0.4297 -23,2.0507 -34.38,2.5976 -5.88,0.2735 -12.37,1.5625 -17.1,1.5625 -4.2,0 -6.18,2.5899 -10.37,2.5899 -1.42,0 -11.24,-1.9844 -11.24,0.8476 -4.63,0.7813 -5.71,2.4027 -9.51,3.0277 -6.75,1.132 -11.41,5.207 -18.41,5.91 -5.54,0.554 -7.75,2.918 -12.68,3.75 -2.06,0.34 -12.1,1.98 -12.1,4.597 -1.82,0.235 -11.23,1.321 -11.23,3.457 -3.87,0 -6.12,3.262 -10.37,4.329 0,2.254 -17.29,6.004 -17.29,6.914 -1.59,0 -8.63,1.504 -8.63,3.457 -4.55,0 -7.83,6.914 -12.96,6.914 0,1.492 -10.14,6.043 -12.09,6.043 0,0.918 -6.25,4.316 -7.78,4.316 -2.3,4.539 -8.14,3.203 -10.37,7.774 -2.13,0 -6.83,3.242 -7.77,5.195 -1.69,0 -4.65,1.184 -6.06,2.59 -1.88,1.875 -5.85,4.246 -8.63,5.176 -3.76,4.531 -6.96,6.152 -11.24,8.64 -3.26,0 -8.93,4.641 -11.22,7.344 -2.83,3.281 -5.83,5.254 -9.51,6.484 -1.6,3.145 -6.31,4.414 -8.65,7.356 -3.68,4.597 -8.92,5.183 -12.09,9.929 -7.3,5.157 -13.05,13.633 -20.74,15.547 -6.31,7.93 -13.92,10.977 -20.44,18.438 -2.74,3.105 -4.43,3.262 -5.48,7.48 -2.05,1.66 -4.32,2.395 -4.32,5.188 -1.73,2.117 -3.78,0.652 -5.18,3.457 -2.55,0 -14.68,15.808 -14.68,19.871 -6.83,5.09 -7.66,14.258 -14.68,19.004 0,2.898 -1.73,1.426 -1.73,4.316 -3.42,2.266 -3.07,4.746 -5.83,7.774 -2.38,2.597 -4.76,5.195 -7.13,7.785 -2.61,0 -5.2,0 -7.8,0 0.26,-2.004 -0.33,-2.871 -1.72,-2.602 0,-2.672 -5.55,-20.73 -6.91,-20.73 -0.65,-14.004 -3.59,-27.86 -3.15,-41.875 0.38,-12.168 4.88,-24.258 4.88,-36.172 0,-14.91 1.72,-28.934 1.72,-42.918 -2.73,0 -1.48,-22.063 -2.01,-26.113 -0.5,-3.821 -1.35,-9.563 -4.9,-11.899 0,-2.586 -3.36,-9.89 -4.04,-13.277 -1.32,-6.574 -5.03,-11.367 -9.48,-17.207 -2.6,-3.43 -6.79,-6.145 -10.67,-8.3791 0,-2.2851 -6.92,-2.9101 -6.92,-4.3281 -2.09,0 -13.82,-0.789 -13.82,0.8594 -5.05,0 -0.43,0.8594 -4.3,0.8594 0,1.9726 -5.6,-0.0586 -6.92,-0.2813 -4.33,-0.7226 -6.71,0.9453 -10.95,1.7266 -2.72,0.4883 -14.12,3.9921 -14.12,6.3281 -5.34,0 -15.18,3.242 -18.56,7.773 -2.25,3.008 -7.33,9.063 -9.95,10.372 -1.17,3.593 -6.05,6.75 -6.05,10.371 -8.12,4.199 -7.34,20.019 -7.77,28.515 -4.19,14.824 -2.7,31.524 -3.21,46.778 -0.32,10.254 -0.48,21.515 1.19,30.695 2.08,11.336 1.16,22.422 1.16,34.559 0,7.246 -7.85,17.363 -15.56,19.296 0,4.786 -30.22,3.653 -30.22,1.719 -12.95,0.313 -27.8,0 -39.33,0 -1.59,0 -16.84,-4.59 -16.84,-5.176 -7.04,0 -12.75,-3.457 -19.01,-3.457 0,-0.273 -22.61,-5.644 -25.91,-6.043 0,-1.652 -18.16,-1.886 -18.16,-5.187 -1.46,0 -6.04,-2.168 -6.04,-3.457 -4.17,-1.024 -6.71,-3.457 -10.37,-3.457 -4.54,-5.293 -9.72,-9.668 -14.42,-14.766 -1.67,-1.816 -6.05,-12.871 -7.18,-12.871 -0.65,-1.973 -4.22,-8.652 -5.19,-8.652 0,-3.203 -3.46,-5.164 -3.46,-8.645 -3.18,-2.097 -2.97,-6.258 -6.04,-7.769 0,-1.067 -3.51,-8.633 -3.46,-8.633 -0.67,-4.863 -2.59,-7.317 -2.59,-11.242 -2.22,0 -11.39,-29.375 -13.83,-29.375 -1.07,-4.383 -2.34,-3.387 -3.45,-7.762 -3.15,-2.094 -2.15,-4.543 -5.18,-6.066 -2.6,-7.176 -6.28,-11.875 -8.63,-19.004 -1.96,-0.965 -1.21,-2.586 -2.59,-2.586 0,-3.047 -3.06,-4.524 -5.2,-6.485 -4.97,-4.562 -9.17,-7.297 -13.82,-12.519 -5.14,-1.711 -11.75,-11.106 -17.84,-5.793 -3.83,3.359 -47.1,25.265 -52.15,26.523 -2.35,3.145 -7.77,5.149 -7.77,8.645 -4.87,2.39 -7.71,20.73 -9.5,20.73 -1.25,8.887 -4.35,18.059 -4.77,27.903 -0.1,2.195 0.49,8.379 2.18,8.379 0,3.085 -0.99,16.414 1.71,16.414 2.16,8.468 5.19,14.824 7.79,25.753 1.75,7.411 10.36,13.836 10.36,21.778 1.3,0 3.45,4.566 3.45,6.043 3.83,2.539 3.86,5.691 7.79,8.644 0,1.864 2.6,7.782 4.32,8.629 0,2.446 7.18,11.242 8.65,11.242 0,3.692 5.9,13.75 9.49,15.547 2.38,7.278 9.5,14.336 9.5,21.602 3.71,0 4.15,14.687 6.91,14.687 0,3.145 2.79,6.328 3.46,10.371 1.89,0 3.46,7.52 3.46,9.504 4.86,0 5.27,20.731 8.63,20.731 0,3.398 1.74,5.84 1.74,10.664 0,4.648 -1.39,8.992 -0.37,14.844 0.91,5.078 1.63,9.953 2.09,15.097 2.4,4.555 7.82,7.735 11.24,11.524 3,3.34 4.21,5.523 8.65,6.621 2.06,3.164 4.55,2.148 6.04,5.195 3.97,0 8.27,6.32 11.8,9.492 4.54,4.082 7.59,8.891 9.63,15.043 0.92,2.75 3.21,12.614 5.34,12.614 0,2.929 6.58,14.511 8.65,15.546 0,4.629 5.1,8.399 6.92,13.829 2.17,6.523 5.85,8.867 7.76,16.418 2.34,1.16 4.33,6.882 4.33,9.5 0.99,0 4.3,7.468 6.04,8.648 0,3.766 5.01,5.719 5.63,9.926 0.21,1.543 4.03,11.66 5.61,11.66 0,3.379 2.92,6.211 4.31,10.371 2.82,1.437 2.05,7.773 4.33,7.773 0,3.926 3.32,7.247 4.33,11.243 2.33,1.16 4.16,7.761 6.04,7.761 0,4.524 6.91,9.102 6.91,13.828 2.34,0 2.51,7.336 5.18,8.649 2.55,10.348 14.69,15.141 14.69,25.922 1.92,0.957 5.18,4.883 5.18,6.91 2.91,1.957 4.29,4.254 5.2,7.777 5.35,2.68 6.23,12.188 11.22,14.688 0,1.836 5.78,11.23 6.91,11.23 2.25,6.621 16.42,13.223 16.42,19.864 1.14,0 3.45,3.906 3.45,5.195 3.23,2.988 6.46,5.984 9.67,8.988 3.39,3.141 6.43,6.609 9.55,10.016 3.36,3.644 8.54,4.707 10.16,9.504 3.84,3.074 10.91,7.175 12.96,11.23 3.08,0 5.29,5.274 7.78,7.344 3.73,3.113 4.73,5.273 9.5,6.488 5.4,10.531 24.71,4.039 32.83,3.012 1.31,-0.164 6.06,-1.004 6.06,-2.156 2.7,0 7.96,-0.371 11.45,-1.457 5.42,-1.7 15.35,-4.219 17.05,-10.633" /><path
             id="path32"
             style="fill:#73c82c;fill-opacity:1;fill-rule:nonzero;stroke:none"
             d="m 984.309,611.543 c -0.653,-5.723 -2.594,-8.367 -2.594,-12.949 -0.895,0 -5.192,-8.289 -5.192,-9.508 -1.898,-0.941 -6.043,-7.484 -6.043,-9.5 -1.867,-1.418 -5.207,-6.918 -6.046,-6.918 -1.641,-5.012 -6.153,-8.449 -10.372,-12.316 -3.156,-2.879 -8.042,-12.743 -12.089,-12.743 -0.989,-1.933 -3.457,-1.808 -3.457,-3.457 -3.219,0 -4.954,-3.75 -6.918,-6.047 -2.203,0 -8.629,-5.175 -9.926,-6.914 -1.645,-2.168 -4.477,-3.398 -6.914,-3.886 -4.324,-0.86 -8.934,-1.903 -14.449,-1.02 -4.219,0.668 -4.125,5.746 -4.125,9.235 -2.625,0 1.82,27.355 2.293,30.234 0.804,4.851 2.886,7.527 2.886,11.23 3.028,0 -0.441,15.559 2.59,15.559 0,5.465 1.731,6.891 1.731,12.098 1.613,0 0.859,14.058 0.859,16.414 2.379,8.222 0.098,14.781 -0.445,23.222 -0.274,4.141 2.14,21.7 3.906,21.7 0,4.296 6.152,12.05 10.363,15.546 9.496,-0.136 13.957,-5.175 22.465,-5.175 0,-1.055 14.059,-6.7 17.273,-7.774 3.418,-4.543 9.09,-6.679 12.102,-11.23 3.734,0 5.133,-5.156 7.773,-6.914 0,-1.446 2.868,-7.774 3.461,-7.774 1.903,-5.781 2.825,-8.918 3.239,-15.554 0.121,-1.891 1.25,-15.559 -2.371,-15.559 z M 1179.57,259.902 c -0.34,0 -3.68,10.157 -4.32,12.09 -2.58,2.07 -6.59,4.57 -7.78,6.914 -4.43,1.485 -3.78,8.645 -8.64,8.645 -2.6,2.293 -4.44,5.554 -6.91,8.64 -9.02,2.247 -10.46,13.567 -19,16.407 -4.37,1.464 -6.04,4.121 -10.38,5.183 -0.77,1.574 -6.76,5.188 -8.64,5.188 -2.55,3.828 -5.68,3.847 -8.64,7.773 -1.51,0 -9.5,5.039 -9.5,6.055 -4.85,1.211 -5.77,2.59 -11.23,2.59 -2.82,3.25 -8.69,12.957 -12.96,12.957 -0.85,1.679 -7.66,6.054 -9.51,6.054 -3.5,4.2 -6.71,5.918 -10.37,9.942 -3.9,4.277 -5.4,8.672 -9.5,12.09 -3.41,2.832 -10.37,7.48 -10.37,11.66 -2.75,0 -2.15,9.101 -1.28,10.957 1.51,3.203 4.26,5.293 6.81,7.598 2.93,2.644 4.84,6.035 4.84,9.093 2.42,0 16.11,14.387 18.09,17.723 2.53,4.246 4.89,6.664 8.69,9.922 0.89,2.687 0.87,4.742 3.46,6.055 0.39,1.945 2.42,9.503 4.33,9.503 0,3.895 6.5,7.469 7.34,11.661 1.17,5.886 7.34,9.91 7.34,15.984 1.83,0 6.05,16.711 6.05,19.004 3.04,0 -0.45,15.558 2.6,15.558 0,1.493 1.7,8.645 2.58,8.645 1.17,4.684 3.46,6.297 3.46,10.797 0,4.355 2.36,8.191 3.45,12.523 0.6,0 2.6,6.61 2.6,7.77 2.39,0 1.72,9.73 1.72,12.328 0,5.957 -0.44,13.336 -0.14,20.516 0.2,4.578 -1.58,6.082 -1.58,11.218 -0.36,0 2.05,17.285 -2.6,17.285 0,7.872 -3.45,13.575 -3.45,20.743 -1.19,0 -5.19,12.539 -5.19,14.687 -1.74,0 -3.14,9.61 -3.45,12.09 -1.22,0 -3.46,6.016 -3.46,7.773 -4.47,0 -3.56,19.883 -8.64,19.883 0,4.434 -6.91,6.93 -6.91,11.231 -1.67,0 -15.24,22.988 -16.42,29.375 -1.23,0 -4.03,6.738 -5.61,8.644 -2.61,3.137 -11.67,10.332 -11.67,13.817 -3.11,2.113 -5.97,9.511 -10.36,9.511 -5.11,5.934 -7.06,6.954 -14.41,9.211 -7.51,2.313 -4.66,6.043 -9.36,9.793 -5.05,4.063 -6.6,5.188 -13.384,6.055 0,3.301 -19.004,2.285 -19.004,5.176 -9.91,0 -19.18,5.187 -28.528,5.187 0,1.356 -7.718,4.422 -9.273,4.539 -3.242,0.215 -6.484,0.43 -9.731,0.645 -1.218,2.472 -2.589,2.082 -5.171,2.59 0,2.996 -15.887,6.043 -19.016,6.043 0,0.058 -22.379,3.457 -24.617,3.457 -5.203,0 -30.676,-1.258 -30.676,-6.043 -3.738,0 -4.195,-1.731 -8.648,-1.731 0,-0.711 -11.348,-1.726 -12.957,-1.726 0,-2.922 -15.547,-3.293 -15.547,-6.047 -4.981,0 -11.539,-3.867 -16.418,-8.653 -1.746,-2.578 -7.41,-7.761 -10.371,-7.761 -2.051,-4.153 -8.637,-6.789 -8.637,-11.231 -10.102,-6.847 -10.531,-21.875 -16.852,-32.402 -5.511,-9.191 -7.508,-16.086 -6.996,-26.359 0.496,-10 -1.09,-17.547 1.856,-28.008 1.215,-4.336 2.125,-8.977 2.125,-12.594 1.039,0 3.457,-6.914 3.457,-8.637 0.968,0 4.3,-7.48 6.043,-8.652 0,-2.039 3.086,-6.719 5.179,-7.774 0,-1.718 7.235,-11.386 8.645,-12.089 1.637,-2.442 6.887,-6.137 7.422,-8.985 0.332,-1.789 3.125,-11.758 0.347,-11.758 0,-3.582 -1.847,-5.085 -2.589,-9.5 -3.575,0 -6.914,-16.992 -6.914,-19.875 -2.375,0 -3.09,-18.144 -6.043,-18.144 0,-13.027 -9.809,-21.223 -11.661,-34.121 -0.765,-5.371 -3.035,-9.492 -3.035,-13.399 -1.097,0 -2.586,-3.906 -2.586,-5.175 -1.254,0 -2.597,-5.196 -4.316,-6.055 0,-3.633 -4.692,-6.152 -6.91,-9.504 -2.176,0 -4.77,-1.297 -7.782,-1.727 0,-1.906 -6.328,-0.855 -7.769,-0.855 0,-1.547 -8.613,-1.742 -10.371,-1.742 0,0.051 -7.656,-5.449 -8.688,-8.067 -1.98,-5.039 -0.859,-9.336 -6.211,-12.492 -4.808,-2.84 -7.156,-3.797 -8.003,-8.816 -0.852,-5.117 -1.79,-11.043 -2.161,-17.274 -1.496,-5.359 -0.425,-11.269 -0.449,-16.75 -0.019,-6.109 -1.551,-12.011 -0.992,-18.164 0.559,-6.203 2.637,-12.027 4.898,-17.793 0.661,-3.847 2.602,-5.91 2.602,-8.632 3.168,-1.59 5.754,-8.653 6.902,-12.11 3.774,-2.988 5.766,-5.633 8.645,-9.492 1.226,0 4.086,-6.914 6.051,-6.914 0,-5.996 0.543,-9.871 0,-16.426 -1.328,0 -1.989,-31.113 -2.258,-34.902 -0.895,-12.235 -4.656,-23.613 -4.656,-34.207 0,-2.285 -3.372,-25.063 -4.317,-25.063 0,-9.363 -0.172,-21.773 -1.308,-32.261 -0.157,-1.426 -3.391,-11.797 -0.422,-11.797 0.289,-7.493 0.578,-14.973 0.867,-22.473 0.933,0 5.359,-17.098 6.043,-19.863 0.68,0 2.594,-6.407 2.594,-7.774 0.343,0 5.179,-7.019 5.179,-8.652 4.145,-2.703 3.528,-7.371 7.778,-9.492 0,-2.879 5.035,-5.918 7.343,-7.774 8.118,-6.504 12.903,-16.757 23.754,-18.797 8.133,-1.515 25.93,-1.378 25.93,-3.671 3.266,-0.325 7.223,-0.305 9.504,0 8.211,-0.547 12.16,-1.418 19.008,3.457 0,2.656 4.539,10.027 6.91,11.238 0,3.508 4.312,4.414 4.312,7.766 2.946,1.453 2.196,9.5 4.325,9.5 0,3.378 3.457,6.484 3.457,10.371 1.421,0 -0.86,26.171 -0.86,29.375 -3.457,0 -2.207,22.363 -2.379,25.488 -0.3,5.508 -1.941,12.402 -1.941,17.715 0,4.504 -2.602,9.433 -2.602,14.16 0,6.269 0.532,12.539 -0.894,18.633 -1.074,4.59 -2.231,10.078 -0.828,14.726 1.199,0 5.187,21.289 5.187,23.332 2.5,0 9.496,16.793 9.496,19 3.242,1.614 4.856,7.532 9.004,8.293 5.942,1.094 6.52,1.258 11.738,-3.398 3.18,-2.832 7.391,-11.797 12.094,-11.797 1.653,-3.301 8.395,-7.969 11.578,-11.406 3.375,-3.633 6.797,-2.657 10.024,-5.879 1.73,-1.739 5.844,-3.621 8.644,-4.317 3.368,-6.867 13.871,-8.308 18.145,-14.687 2.855,0 9.637,-6.223 11.664,-8.641 2.973,-3.566 7.441,-6.359 11.656,-7.773 1.613,-3.266 6.473,-4.504 8.641,-7.785 4.621,-3.457 7.59,-6.133 11.597,-9.637 2.981,-2.598 7.321,-9.367 10.872,-9.367 2.992,-3.406 7.074,-9.629 10.371,-11.231 2.39,-3.23 6.468,-5.136 7.765,-7.773 4.176,-3.125 4.879,-6.738 8.649,-10.086 2.99,-2.656 8.05,-11.516 12.08,-11.516 0,-3.554 7.3,-7.215 8.65,-11.23 4.59,-4.168 9.09,-8.106 12.96,-12.957 3.9,0 8.45,-6.34 11.23,-9.504 5,0 7.14,-8.652 12.1,-8.652 0,-1.219 7.06,-3.868 9.07,-4.305 8.02,-1.778 12.21,-6.098 21.97,-5.754 3.18,0.129 21.66,-1.367 21.66,2.297 4.75,0 17.36,6.59 19.02,12.957 2.75,0.82 5.5,2.578 7.77,2.578 1.83,3.77 6.91,6.223 6.91,10.383 0.84,1.433 2.74,5.183 3.45,5.183 1.06,4.2 6.92,6.778 6.92,10.371 2.74,2.356 9.5,7.61 9.5,11.219 2.23,1.938 5.18,1.653 5.18,5.188 6.33,4.226 7.78,12.89 7.78,19.875 0,11.797 -0.86,26.433 -0.86,38.015" /></g></g></g></g></svg>