<?xml version="1.0" encoding="utf-8"?>
<svg version="1.0" width="781.000000pt" height="111.000000pt" viewBox="0 0 797.519 125.714" preserveAspectRatio="xMidYMid meet" xmlns="http://www.w3.org/2000/svg">
  <g transform="matrix(0.1, 0, 0, -0.1, 8.548072, 119.878845)" fill="#000000" stroke="none">
    <path d="M4280 918 l0 -182 -28 31 c-116 126 -329 75 -392 -94 -29 -77 -29 -199 -1 -274 37 -99 122 -159 224 -159 68 0 116 20 160 65 19 19 37 35 41 35 3 0 6 -20 6 -45 l0 -45 45 0 45 0 0 425 0 425 -50 0 -50 0 0 -182z m-82 -196 c60 -43 96 -164 73 -248 -42 -156 -205 -198 -288 -73 -31 48 -43 162 -23 223 14 42 63 104 94 117 34 14 111 4 144 -19z"/>
    <path d="M327 1008 c-8 -18 -82 -194 -166 -390 -83 -196 -151 -359 -151 -362 0 -3 26 -6 58 -6 l57 0 40 100 40 100 193 -2 193 -3 41 -97 41 -98 58 0 c33 0 59 3 59 8 0 4 -75 181 -167 394 l-168 388 -57 0 c-56 0 -58 -1 -71 -32z m152 -282 c39 -99 69 -181 67 -183 -2 -2 -71 -2 -153 -1 l-150 3 76 198 c54 142 77 194 83 180 4 -10 38 -99 77 -197z"/>
    <path d="M1155 831 c-45 -12 -87 -36 -115 -66 l-25 -27 -5 44 -5 43 -50 0 c-48 0 -50 -1 -49 -27 0 -16 1 -145 2 -288 l2 -260 50 0 50 0 0 155 c0 182 11 244 51 290 76 86 211 66 239 -34 5 -20 10 -120 10 -223 l0 -188 55 0 55 0 0 188 c0 203 -10 266 -51 326 -39 57 -136 88 -214 67z"/>
    <path d="M2725 834 c-91 -23 -151 -67 -186 -136 -26 -50 -38 -144 -27 -218 21 -155 127 -240 298 -240 37 0 90 7 118 15 l52 16 0 50 0 50 -32 -18 c-20 -10 -65 -18 -114 -21 -114 -6 -173 25 -209 111 -29 70 -38 67 190 67 l205 0 0 58 c0 114 -45 204 -120 242 -40 20 -137 33 -175 24z m114 -92 c46 -23 71 -59 78 -111 l6 -42 -154 3 -154 3 3 25 c7 47 44 99 86 120 50 25 90 25 135 2z"/>
    <path d="M3425 831 c-45 -12 -87 -36 -115 -66 l-25 -27 -5 44 -5 43 -50 0 c-48 0 -50 -1 -49 -27 0 -16 1 -145 2 -288 l2 -260 50 0 50 0 0 155 c0 182 11 244 51 290 76 86 211 66 239 -34 5 -20 10 -120 10 -223 l0 -188 55 0 55 0 0 188 c0 203 -10 266 -51 326 -39 57 -136 88 -214 67z"/>
    <path d="M5515 831 c-45 -12 -87 -36 -115 -66 l-25 -27 -5 44 -5 43 -50 0 c-48 0 -50 -1 -49 -27 0 -16 1 -145 2 -288 l2 -260 50 0 50 0 0 155 c0 182 11 244 51 290 76 86 211 66 239 -34 5 -20 10 -120 10 -223 l0 -188 55 0 55 0 0 188 c0 203 -10 266 -51 326 -39 57 -136 88 -214 67z"/>
    <path d="M6100 820 c-108 -37 -171 -142 -171 -284 0 -85 14 -136 54 -188 84 -112 244 -127 346 -34 l44 41 -6 -73 c-8 -96 -31 -141 -88 -170 -37 -20 -55 -23 -119 -19 -48 2 -93 11 -124 25 -27 12 -51 21 -52 19 -2 -2 -5 -25 -6 -52 l-3 -49 45 -14 c26 -9 88 -15 150 -16 90 0 112 3 158 23 56 25 93 62 120 120 14 31 17 82 20 359 l3 323 -48 -3 c-47 -3 -48 -3 -53 -41 l-5 -39 -30 31 c-29 32 -105 61 -154 61 -14 -1 -51 -9 -81 -20z m196 -111 c48 -46 66 -92 66 -167 1 -76 -31 -145 -83 -180 -47 -32 -136 -28 -175 9 -57 52 -80 158 -53 252 11 41 61 104 93 118 12 5 43 7 69 5 38 -2 55 -10 83 -37z"/>
    <path d="M6845 834 c-91 -23 -151 -67 -186 -136 -26 -50 -38 -144 -27 -218 21 -155 127 -240 298 -240 37 0 90 7 118 15 l52 16 0 50 0 50 -32 -18 c-20 -10 -65 -18 -114 -21 -114 -6 -173 25 -209 111 -29 70 -38 67 190 67 l205 0 0 58 c0 114 -45 204 -120 242 -40 20 -137 33 -175 24z m114 -92 c46 -23 71 -59 78 -111 l6 -42 -154 3 -154 3 3 25 c7 47 44 99 86 120 50 25 90 25 135 2z"/>
    <path d="M7545 831 c-45 -12 -87 -36 -115 -66 l-25 -27 -5 44 -5 43 -50 0 c-48 0 -50 -1 -49 -27 0 -16 1 -145 2 -288 l2 -260 50 0 50 0 0 155 c0 182 11 244 51 290 76 86 211 66 239 -34 5 -20 10 -120 10 -223 l0 -188 55 0 55 0 0 188 c0 203 -10 266 -51 326 -39 57 -136 88 -214 67z"/>
    <path d="M1530 815 c0 -9 39 -140 87 -291 l87 -275 65 3 64 3 69 230 c83 274 80 263 83 250 2 -5 22 -73 45 -150 23 -77 55 -184 71 -237 l31 -98 61 0 62 0 89 278 c49 152 88 282 87 287 0 6 -22 10 -48 10 l-47 0 -62 -215 c-35 -118 -65 -228 -69 -245 -4 -16 -8 -25 -10 -20 -2 6 -22 73 -45 150 -23 77 -55 184 -72 238 l-31 97 -63 0 -63 0 -50 -157 c-27 -87 -59 -192 -71 -233 -12 -41 -24 -82 -27 -90 -2 -8 -20 43 -38 115 -19 72 -49 182 -67 245 l-33 115 -52 3 c-43 2 -53 0 -53 -13z"/>
    <path d="M4570 628 c0 -112 5 -219 10 -239 44 -159 247 -202 368 -79 l32 34 0 -47 0 -47 50 0 50 0 -2 288 -3 287 -50 0 -50 0 -5 -185 c-6 -188 -8 -203 -42 -253 -39 -56 -140 -78 -194 -42 -47 30 -56 73 -62 288 l-5 197 -48 0 -49 0 0 -202z"/>
  </g>
</svg>