<?xml version="1.0" encoding="utf-8"?>
<svg version="1.1" id="Ebene_1" x="0px" y="0px" viewBox="0 0 107.3 106.9" style="enable-background:new 0 0 107.3 106.9;" xmlns="http://www.w3.org/2000/svg">
  <style type="text/css">
	.st0{fill:#E87624;}
	.st1{fill:none;stroke:#E87624;stroke-miterlimit:3.8637;}
</style>
  <g>
    <path class="st0" d="M75.9,65.6H51.7c-0.4,0-1.2-0.4-1.5-0.4c-0.4-0.4-0.8-0.7-1.2-0.7L31.6,47.2c-0.8-0.8-1.2-2-1.2-3.1 c0-0.7,0.4-1.9,1.2-2.7c0.7-0.7,1.9-1.1,2.6-1.1c1.2,0,2.3,0.4,3.1,1.1l16.2,15.9h22.4c1.2,0,2.3,0.7,3.1,1.5 c0.8,0.8,1.2,1.6,1.2,2.7c0,1.2-0.4,2.3-1.2,3.1C78.3,64.9,77.1,65.6,75.9,65.6L75.9,65.6z" style="fill: rgb(103, 49, 11);"/>
    <path class="st0" d="M53.6,2.1c28.4,0,51.4,23,51.4,51.4c0,28.4-23,51.4-51.4,51.4c-28.4,0-51.4-23-51.4-51.4 C2.3,25.1,25.3,2.1,53.6,2.1L53.6,2.1z M53.6,6.5c-25.9,0-46.9,21-46.9,46.9c0,25.9,21,46.9,46.9,46.9c25.9,0,46.9-21,46.9-46.9 C100.6,27.5,79.6,6.5,53.6,6.5L53.6,6.5z"/>
  </g>
</svg>