<?xml version="1.0" encoding="utf-8"?>
<!-- Generator: Adobe Illustrator 26.5.0, SVG Export Plug-In . SVG Version: 6.00 Build 0)  -->
<svg version="1.1" id="Ebene_1" xmlns="http://www.w3.org/2000/svg" xmlns:xlink="http://www.w3.org/1999/xlink" x="0px" y="0px"
	 viewBox="0 0 104.3 104.9" style="enable-background:new 0 0 104.3 104.9;" xml:space="preserve">
<style type="text/css">
	.st0{fill:#E87624;}
</style>
<g>
	<path class="st0" d="M5,71.3h28.3v28.3c0,1.6,1.3,2.9,2.9,2.9H68c1.6,0,2.9-1.3,2.9-2.9V71.3h28.3c1.6,0,2.9-1.3,2.9-2.9V36.6
		c0-1.6-1.3-2.9-2.9-2.9H71V5.3c0-1.6-1.3-2.9-2.9-2.9H36.3c-1.6,0-2.9,1.3-2.9,2.9v28.3H5c-1.6,0-2.9,1.3-2.9,2.9v31.7
		C2.1,69.9,3.4,71.3,5,71.3L5,71.3z M7.9,39.5h28.3c1.6,0,2.9-1.3,2.9-2.9V8.2h25.9v28.3c0,1.6,1.3,2.9,2.9,2.9h28.3v25.9H68
		c-1.6,0-2.9,1.3-2.9,2.9v28.3H39.2V68.3c0-1.6-1.3-2.9-2.9-2.9H7.9V39.5L7.9,39.5z"/>
</g>
</svg>
