<?xml version="1.0" encoding="UTF-8" standalone="no"?>
<!DOCTYPE svg PUBLIC "-//W3C//DTD SVG 1.1//EN" "http://www.w3.org/Graphics/SVG/1.1/DTD/svg11.dtd">
<svg width="100%" height="100%" viewBox="0 0 4196 4196" version="1.1" xmlns="http://www.w3.org/2000/svg" xmlns:xlink="http://www.w3.org/1999/xlink" xml:space="preserve" xmlns:serif="http://www.serif.com/" style="fill-rule:evenodd;clip-rule:evenodd;stroke-linecap:round;stroke-linejoin:round;stroke-miterlimit:1.5;">
    <g>
        <g transform="matrix(1.09947,0,0,1.09947,-422.837,-328.375)">
            <circle cx="2292.78" cy="2206.86" r="1819.06" style="fill:rgb(232,232,232);stroke:black;stroke-width:36.38px;"/>
        </g>
        <g transform="matrix(1,0,0,1,121.924,0)">
            <rect x="1948.22" y="212.795" width="55.717" height="308.854"/>
        </g>
        <g transform="matrix(0.866025,-0.5,0.5,0.866025,-662.332,1269.12)">
            <rect x="1948.22" y="212.795" width="55.717" height="308.854"/>
        </g>
        <g transform="matrix(0.5,-0.866025,0.866025,0.5,-706.959,2760.33)">
            <rect x="1948.22" y="212.795" width="55.717" height="308.854"/>
        </g>
        <g transform="matrix(1.66533e-16,-1,1,1.66533e-16,-1.47793e-12,4074.08)">
            <rect x="1948.22" y="212.795" width="55.717" height="308.854"/>
        </g>
        <g transform="matrix(-0.5,-0.866025,0.866025,-0.5,1269.12,4858.33)">
            <rect x="1948.22" y="212.795" width="55.717" height="308.854"/>
        </g>
        <g transform="matrix(-0.866025,-0.5,0.5,-0.866025,2760.33,4902.96)">
            <rect x="1948.22" y="212.795" width="55.717" height="308.854"/>
        </g>
        <g transform="matrix(-1,-1.11022e-16,1.11022e-16,-1,4074.08,4196)">
            <rect x="1948.22" y="212.795" width="55.717" height="308.854"/>
        </g>
        <g transform="matrix(-0.866025,0.5,-0.5,-0.866025,4858.33,2926.88)">
            <rect x="1948.22" y="212.795" width="55.717" height="308.854"/>
        </g>
        <g transform="matrix(-0.5,0.866025,-0.866025,-0.5,4902.96,1435.67)">
            <rect x="1948.22" y="212.795" width="55.717" height="308.854"/>
        </g>
        <g transform="matrix(1.66533e-16,1,-1,1.66533e-16,4196,121.924)">
            <rect x="1948.22" y="212.795" width="55.717" height="308.854"/>
        </g>
        <g transform="matrix(0.5,0.866025,-0.866025,0.5,2926.88,-662.332)">
            <rect x="1948.22" y="212.795" width="55.717" height="308.854"/>
        </g>
        <g transform="matrix(0.866025,0.5,-0.5,0.866025,1435.67,-706.959)">
            <rect x="1948.22" y="212.795" width="55.717" height="308.854"/>
        </g>
    </g>
    <g>
        <g transform="matrix(0.599626,0,0,1,841.405,0)">
            <rect x="2027.56" y="451.435" width="147.982" height="1646.57"/>
        </g>
        <g transform="matrix(1,0,0,0.77616,0,469.617)">
            <rect x="2027.56" y="451.435" width="147.982" height="1646.57"/>
        </g>
        <g transform="matrix(1,0,0,1,660.102,437.291)">
            <circle cx="1437.9" cy="1660.71" r="103.947" style="fill:white;stroke:black;stroke-width:40px;"/>
        </g>
    </g>
</svg>
