<?xml version="1.0" encoding="UTF-8" standalone="no"?>
<!DOCTYPE svg PUBLIC "-//W3C//DTD SVG 1.1//EN" "http://www.w3.org/Graphics/SVG/1.1/DTD/svg11.dtd">
<svg width="100%" height="100%" viewBox="0 0 1024 1024" version="1.1" xmlns="http://www.w3.org/2000/svg" xmlns:xlink="http://www.w3.org/1999/xlink" xml:space="preserve" xmlns:serif="http://www.serif.com/" style="fill-rule:evenodd;clip-rule:evenodd;stroke-linecap:round;stroke-linejoin:round;stroke-miterlimit:1.5;">
    <path d="M946.644,262.007C989.253,335.573 1013.64,420.962 1013.64,512L863.636,512C863.636,448.273 846.568,388.501 816.742,337.005L946.644,262.007Z" style="fill:rgb(255,0,0);stroke:white;stroke-width:5.33px;"/>
    <g transform="matrix(0.866025,-0.5,0.5,0.866025,-187.186,325.413)">
        <path d="M946.644,262.007C990.371,337.939 1013.53,424.35 1013.63,512L863.631,512C863.562,450.663 847.358,390.173 816.742,337.005L946.644,262.007Z" style="fill:rgb(255,103,0);stroke:white;stroke-width:5.33px;"/>
    </g>
    <g transform="matrix(0.5,-0.866025,0.866025,0.5,-186.587,700.822)">
        <path d="M946.651,262.004C992.169,340.844 1013.75,426.983 1013.63,512L863.631,512C863.713,452.487 848.608,392.189 816.746,337.002L946.651,262.004Z" style="fill:rgb(255,255,0);stroke:white;stroke-width:5.33px;"/>
    </g>
    <g transform="matrix(1.66533e-16,-1,1,1.66533e-16,1.63607,1025.64)">
        <path d="M1013.64,512L863.636,512C863.636,448.273 846.568,388.501 816.742,337.005L946.644,262.007C989.253,335.573 1013.64,420.962 1013.64,512Z" style="fill:rgb(56,255,0);stroke:white;stroke-width:5.33px;"/>
    </g>
    <g transform="matrix(-0.5,-0.866025,0.866025,-0.5,327.049,1212.82)">
        <path d="M1013.63,512L863.631,512C863.562,450.663 847.358,390.173 816.742,337.005L946.644,262.007C990.371,337.939 1013.53,424.35 1013.63,512Z" style="fill:rgb(0,255,0);stroke:white;stroke-width:5.33px;"/>
    </g>
    <g transform="matrix(-0.866025,-0.5,0.5,-0.866025,702.458,1212.22)">
        <path d="M1013.63,512L863.631,512C863.713,452.487 848.608,392.189 816.746,337.002L946.651,262.004C992.169,340.844 1013.75,426.983 1013.63,512Z" style="fill:rgb(0,255,92);stroke:white;stroke-width:5.33px;"/>
    </g>
    <g transform="matrix(-1,-1.11022e-16,1.11022e-16,-1,1027.27,1024)">
        <path d="M863.636,512C863.636,448.273 846.568,388.501 816.742,337.005L946.644,262.007C989.253,335.573 1013.64,420.962 1013.64,512L863.636,512Z" style="fill:rgb(0,255,255);stroke:white;stroke-width:5.33px;"/>
    </g>
    <g transform="matrix(-0.866025,0.5,-0.5,-0.866025,1214.46,698.587)">
        <path d="M863.631,512C863.562,450.663 847.358,390.173 816.742,337.005L946.644,262.007C990.371,337.939 1013.53,424.35 1013.63,512L863.631,512Z" style="fill:rgb(0,115,255);stroke:white;stroke-width:5.33px;"/>
    </g>
    <g transform="matrix(-0.5,0.866025,-0.866025,-0.5,1213.86,323.178)">
        <path d="M863.631,512C863.713,452.487 848.608,392.189 816.746,337.002L946.651,262.004C992.169,340.844 1013.75,426.983 1013.63,512L863.631,512Z" style="fill:rgb(0,0,255);stroke:white;stroke-width:5.33px;"/>
    </g>
    <g transform="matrix(1.66533e-16,1,-1,1.66533e-16,1025.64,-1.63607)">
        <path d="M816.742,337.005L946.644,262.007C987.233,332.086 1011.28,412.893 1013.47,499.103L1013.64,512L863.636,512C863.636,448.273 846.568,388.501 816.742,337.005Z" style="fill:rgb(121,0,255);stroke:white;stroke-width:5.33px;"/>
    </g>
    <g transform="matrix(0.5,0.866025,-0.866025,0.5,700.223,-188.822)">
        <path d="M816.742,337.005L946.644,262.007C990.371,337.939 1013.53,424.35 1013.63,512L863.631,512C863.562,450.663 847.358,390.173 816.742,337.005Z" style="fill:rgb(255,0,255);stroke:white;stroke-width:5.33px;"/>
    </g>
    <g transform="matrix(0.866025,0.5,-0.5,0.866025,324.814,-188.223)">
        <path d="M816.746,337.002L946.651,262.004C992.169,340.844 1013.75,426.983 1013.63,512L863.631,512C863.713,452.487 848.608,392.189 816.746,337.002Z" style="fill:rgb(255,0,113);stroke:white;stroke-width:5.33px;"/>
    </g>
</svg>
