<?xml version="1.0" encoding="utf-8"?>
<svg version="1.0" width="781.000000pt" height="111.000000pt" viewBox="0 0 797.519 125.714" preserveAspectRatio="xMidYMid meet" xmlns="http://www.w3.org/2000/svg">
  <g transform="matrix(0.1, 0, 0, -0.1, 97.036758, 97.640709)" fill="#000000" stroke="none">
    <path d="M1510 435 l0 -425 55 0 55 0 0 151 0 150 63 -73 c34 -41 93 -109 132 -151 l70 -77 68 0 69 0 -19 24 c-10 13 -76 86 -148 161 l-130 137 135 129 135 128 -65 1 -65 0 -122 -122 -123 -123 0 258 0 257 -55 0 -55 0 0 -425z"/>
    <path d="M0 407 l0 -397 113 0 c212 1 353 45 438 137 69 75 84 120 84 253 0 139 -17 191 -84 263 -86 92 -185 125 -403 134 l-148 6 0 -396z m315 279 c145 -38 209 -121 209 -271 0 -44 -6 -98 -13 -120 -40 -119 -156 -185 -328 -185 l-73 0 0 295 0 295 78 0 c42 0 100 -6 127 -14z"/>
    <path d="M5253 733 l-43 -15 0 -69 0 -69 -65 0 -65 0 0 -40 0 -40 64 0 64 0 4 -187 c3 -167 5 -193 24 -227 26 -51 77 -77 147 -78 83 -1 97 7 97 51 l0 38 -50 -5 c-44 -4 -52 -2 -80 26 l-30 30 0 176 0 176 75 0 75 0 0 40 0 40 -75 0 -75 0 0 85 c0 94 1 93 -67 68z"/>
    <path d="M987 590 c-97 -25 -173 -93 -202 -181 -25 -73 -21 -179 8 -242 100 -217 417 -225 530 -14 19 35 22 58 22 142 0 109 -13 148 -75 218 -55 63 -190 100 -283 77z m153 -100 c61 -31 94 -88 98 -170 6 -107 -27 -178 -102 -217 -36 -19 -116 -19 -153 1 -75 39 -108 110 -101 218 4 56 11 78 34 110 54 76 144 99 224 58z"/>
    <path d="M3023 576 c-28 -14 -59 -36 -68 -50 -22 -34 -35 -25 -35 25 l0 40 -47 -3 c-45 -3 -48 -5 -47 -30 0 -16 1 -145 2 -288 l2 -260 50 0 50 0 0 149 c0 174 11 242 46 288 45 59 123 81 171 48 35 -25 43 -77 43 -287 l0 -198 49 0 48 0 5 185 c5 160 9 190 27 227 50 104 169 119 216 28 12 -23 15 -72 15 -235 l0 -205 56 0 56 0 -4 218 c-4 179 -8 224 -22 259 -25 58 -75 100 -130 108 -81 13 -145 -12 -198 -74 l-33 -39 -20 36 c-24 44 -92 82 -145 82 -19 0 -58 -11 -87 -24z"/>
    <path d="M4025 594 c-91 -23 -151 -67 -186 -136 -26 -50 -38 -144 -27 -218 21 -155 127 -240 298 -240 37 0 90 7 118 15 l52 16 0 50 0 50 -32 -18 c-20 -10 -65 -18 -114 -21 -114 -6 -173 25 -209 111 -29 70 -38 67 190 67 l205 0 0 58 c0 114 -45 204 -120 242 -40 20 -137 33 -175 24z m114 -92 c46 -23 71 -59 78 -111 l6 -42 -154 3 -154 3 3 25 c7 47 44 99 86 120 50 25 90 25 135 2z"/>
    <path d="M4715 591 c-45 -12 -87 -36 -115 -66 l-25 -27 -5 44 -5 43 -50 0 c-48 0 -50 -1 -49 -27 0 -16 1 -145 2 -288 l2 -260 50 0 50 0 0 155 c0 182 11 244 51 290 76 86 211 66 239 -34 5 -20 10 -120 10 -223 l0 -188 55 0 55 0 0 188 c0 203 -10 266 -51 326 -39 57 -136 88 -214 67z"/>
    <path d="M5785 594 c-91 -23 -151 -67 -186 -136 -26 -50 -38 -144 -27 -218 21 -155 127 -240 298 -240 37 0 90 7 118 15 l52 16 0 50 0 50 -32 -18 c-20 -10 -65 -18 -114 -21 -114 -6 -173 25 -209 111 -29 70 -38 67 190 67 l205 0 0 58 c0 114 -45 204 -120 242 -40 20 -137 33 -175 24z m114 -92 c46 -23 71 -59 78 -111 l6 -42 -154 3 -154 3 3 25 c7 47 44 99 86 120 50 25 90 25 135 2z"/>
    <path d="M2120 388 c0 -112 5 -219 10 -239 44 -159 247 -202 368 -79 l32 34 0 -47 0 -47 50 0 50 0 -2 288 -3 287 -50 0 -50 0 -5 -185 c-6 -188 -8 -203 -42 -253 -39 -56 -140 -78 -194 -42 -47 30 -56 73 -62 287 l-5 198 -49 0 -48 0 0 -202z"/>
  </g>
</svg>