<?xml version="1.0" encoding="utf-8"?>
<!-- Generator: Adobe Illustrator 26.5.0, SVG Export Plug-In . SVG Version: 6.00 Build 0)  -->
<svg version="1.1" id="Ebene_1" xmlns="http://www.w3.org/2000/svg" xmlns:xlink="http://www.w3.org/1999/xlink" x="0px" y="0px"
	 viewBox="0 0 123.3 69.9" style="enable-background:new 0 0 123.3 69.9;" xml:space="preserve">
<style type="text/css">
	.st0{fill:#E87624;}
</style>
<g>
	<path class="st0" d="M71.3,39.1L71.3,39.1c4.8,0,9.2-1.9,12.6-5.2c3.4-3.4,5.2-7.8,5.2-12.6c0-9.8-8-17.8-17.8-17.8
		c-4.8,0-9.2,1.9-12.6,5.2c-3.4,3.4-5.2,7.8-5.2,12.6C53.5,31.1,61.5,39.1,71.3,39.1L71.3,39.1z M62,12.1c2.5-2.5,5.8-3.8,9.2-3.8
		c7.2,0,13.1,5.9,13.1,13.1c0,3.5-1.4,6.8-3.8,9.3c-2.5,2.5-5.8,3.8-9.2,3.8h0c-7.2,0-13.1-5.9-13.1-13.1
		C58.2,17.8,59.6,14.6,62,12.1L62,12.1z"/>
	<path class="st0" d="M93.8,64.1c0-0.6,0.4-15.7-9-24.3c-0.8-0.8-2.1-0.8-3-0.1c-0.1,0.1-10.6,7.9-20.3,0c-0.9-0.7-2.2-0.7-3,0
		C58.1,40,49,48.1,48.7,64c0,0.6,0.2,1.2,0.7,1.7c0.4,0.5,1,0.7,1.7,0.7l0,0l40.4,0C92.7,66.3,93.8,65.3,93.8,64.1L93.8,64.1z
		 M53.6,61.6c0.7-9,4.6-14.6,6.7-17.1c8.5,5.6,17.6,3,22.6,0c4.8,5.4,5.9,13.3,6.2,17.1L53.6,61.6L53.6,61.6z"/>
	<path class="st0" d="M104.2,36.5L104.2,36.5c3.3,0,6.4-1.3,8.8-3.6c2.4-2.4,3.6-5.5,3.6-8.8c0-6.9-5.6-12.4-12.4-12.4
		c-3.3,0-6.4,1.3-8.8,3.6c-2.3,2.4-3.6,5.5-3.6,8.8C91.8,30.9,97.3,36.5,104.2,36.5L104.2,36.5z M97.7,17.6c1.7-1.7,4-2.7,6.5-2.7
		c5,0,9.1,4.1,9.1,9.1c0,2.4-1,4.7-2.7,6.5c-1.7,1.7-4,2.7-6.5,2.7h0c-5,0-9.1-4.1-9.1-9.1C95.1,21.6,96,19.3,97.7,17.6L97.7,17.6z"
		/>
	<path class="st0" d="M119.9,53.9c0-0.4,0.3-10.9-6.3-17c-0.6-0.5-1.5-0.6-2.1-0.1c-0.1,0.1-7.4,5.5-14.2,0c-0.6-0.5-1.5-0.5-2.1,0
		c-0.3,0.2-6.6,5.9-6.8,17c0,0.4,0.2,0.9,0.5,1.2c0.3,0.3,0.7,0.5,1.2,0.5l0,0l28.2,0C119.2,55.5,119.9,54.8,119.9,53.9L119.9,53.9z
		 M91.8,52.2c0.5-6.3,3.2-10.2,4.7-11.9c5.9,3.9,12.3,2.1,15.8,0c3.3,3.8,4.1,9.3,4.3,11.9L91.8,52.2L91.8,52.2z"/>
	<path class="st0" d="M25.9,39.1L25.9,39.1c4.8,0,9.2-1.9,12.6-5.2c3.4-3.4,5.2-7.8,5.2-12.6c0-9.8-8-17.8-17.8-17.8
		c-4.8,0-9.2,1.9-12.6,5.2c-3.4,3.4-5.2,7.8-5.2,12.6C8.1,31.1,16.1,39.1,25.9,39.1L25.9,39.1z M16.6,12.1c2.5-2.5,5.8-3.8,9.2-3.8
		c7.2,0,13.1,5.9,13.1,13.1c0,3.5-1.4,6.8-3.8,9.3c-2.5,2.5-5.8,3.8-9.2,3.8h0c-7.2,0-13.1-5.9-13.1-13.1
		C12.8,17.8,14.2,14.6,16.6,12.1L16.6,12.1z"/>
	<path class="st0" d="M48.4,64.1c0-0.6,0.4-15.7-9-24.3c-0.8-0.8-2.1-0.8-3-0.1c-0.1,0.1-10.6,7.9-20.3,0c-0.9-0.7-2.2-0.7-3,0
		C12.7,40,3.6,48.1,3.3,64c0,0.6,0.2,1.2,0.7,1.7c0.4,0.5,1,0.7,1.7,0.7l0,0l40.4,0C47.3,66.3,48.4,65.3,48.4,64.1L48.4,64.1z
		 M8.2,61.6c0.7-9,4.6-14.6,6.7-17.1c8.5,5.6,17.6,3,22.6,0c4.8,5.4,5.9,13.3,6.2,17.1L8.2,61.6L8.2,61.6z"/>
</g>
</svg>
