<?xml version="1.0" encoding="utf-8"?>
<svg version="1.0" width="781.000000pt" height="111.000000pt" viewBox="0 0 797.519 125.714" preserveAspectRatio="xMidYMid meet" xmlns="http://www.w3.org/2000/svg">
  <g transform="matrix(0.1, 0, 0, -0.1, 165.507889, 105.618126)" fill="#000000" stroke="none">
    <path d="M141 797 c-5 -13 -12 -49 -16 -80 l-7 -57 310 0 310 0 6 23 c3 13 8 49 12 80 l7 57 -307 0 -306 0 -9 -23z"/>
    <path d="M1265 808 c-2 -7 -9 -47 -15 -88 -7 -41 -36 -214 -66 -385 -30 -171 -54 -313 -54 -317 0 -5 33 -8 74 -8 85 0 73 -18 101 145 38 210 70 287 127 300 34 9 68 -24 68 -64 0 -15 -13 -103 -30 -194 -16 -92 -30 -171 -30 -177 0 -12 136 -14 143 -2 8 12 58 292 64 358 8 84 -2 128 -37 162 -56 56 -153 49 -218 -17 l-35 -35 8 40 c32 172 51 285 47 289 -12 11 -143 5 -147 -7z"/>
    <path d="M4501 683 c-12 -76 -24 -150 -27 -166 l-6 -27 -22 32 c-30 46 -86 64 -144 49 -118 -32 -200 -193 -190 -369 8 -128 52 -189 143 -200 55 -6 98 11 130 52 l25 31 0 -37 0 -38 64 0 64 0 7 47 c3 27 33 204 66 395 32 190 59 351 59 357 0 7 -27 11 -73 11 l-74 0 -22 -137z m-67 -246 c15 -19 18 -34 14 -103 -7 -141 -74 -240 -142 -214 -33 12 -46 46 -46 120 0 165 102 280 174 197z"/>
    <path d="M3407 763 c-3 -5 -8 -34 -12 -66 l-7 -58 73 3 74 3 11 63 11 62 -73 0 c-40 0 -75 -3 -77 -7z"/>
    <path d="M2300 716 c-69 -24 -68 -23 -84 -118 -7 -36 -9 -38 -46 -38 -37 0 -39 -2 -45 -37 -12 -69 -12 -68 28 -71 34 -3 38 -6 33 -25 -2 -12 -14 -78 -26 -147 -24 -141 -21 -195 14 -233 30 -32 97 -51 152 -42 45 6 54 19 54 81 0 27 -3 31 -29 31 -39 0 -61 19 -61 52 0 14 9 73 20 131 31 165 23 150 79 150 l49 0 9 53 8 52 -47 3 c-33 2 -48 7 -48 17 0 12 10 70 26 143 5 27 -2 27 -86 -2z"/>
    <path d="M790 569 c-30 -5 -58 -13 -62 -17 -4 -4 -10 -30 -14 -59 l-6 -52 47 15 c27 8 70 14 97 14 62 0 98 -31 98 -83 l0 -34 -78 0 c-101 0 -171 -23 -211 -69 -53 -60 -62 -148 -22 -217 17 -30 84 -67 122 -67 37 1 103 34 127 65 l22 28 0 -42 0 -41 63 0 63 0 28 203 c33 232 30 264 -28 315 -53 46 -132 59 -246 41z m140 -323 c0 -37 -18 -78 -48 -109 -50 -53 -132 -28 -132 41 0 57 49 91 133 92 43 0 47 -2 47 -24z"/>
    <path d="M1994 566 c-16 -7 -47 -33 -67 -57 l-37 -43 6 35 c3 18 7 40 10 47 2 9 -15 12 -66 12 -64 0 -70 -2 -74 -22 -8 -40 -86 -513 -86 -520 0 -5 34 -8 75 -8 41 0 75 3 75 8 1 36 52 296 65 330 25 61 69 95 117 90 35 -3 39 -1 44 22 3 14 10 43 16 64 14 55 -13 70 -78 42z"/>
    <path d="M3865 565 c-22 -7 -55 -31 -74 -52 l-34 -38 6 43 5 42 -66 0 -67 0 -44 -262 c-24 -145 -46 -269 -49 -275 -3 -10 15 -13 71 -13 88 0 77 -16 107 155 37 216 63 277 122 290 35 9 68 -23 68 -66 0 -29 -44 -305 -57 -356 -5 -22 -3 -23 71 -23 42 0 76 1 76 3 0 1 14 82 30 180 34 203 37 265 14 313 -28 59 -108 85 -179 59z"/>
    <path d="M2510 553 c0 -5 9 -118 20 -253 11 -135 20 -255 20 -268 0 -22 2 -23 96 -20 l97 3 65 185 c35 102 67 192 71 200 3 8 8 -75 12 -185 3 -110 6 -201 7 -202 1 -2 44 -3 95 -3 l93 0 24 58 c13 31 63 153 112 270 48 118 88 216 88 218 0 2 -33 4 -74 4 l-74 0 -60 -167 c-33 -93 -66 -188 -73 -213 l-14 -45 -6 70 c-4 39 -7 127 -8 197 0 69 -4 133 -7 142 -9 25 -169 23 -179 -1 -4 -10 -36 -101 -71 -202 -35 -101 -66 -186 -69 -189 -3 -3 -5 26 -5 65 0 38 -3 131 -7 206 l-6 137 -74 0 c-40 0 -73 -3 -73 -7z"/>
    <path d="M3370 554 c0 -8 -79 -483 -86 -516 l-6 -28 75 0 c74 0 76 0 81 28 7 33 86 508 86 516 0 3 -34 6 -75 6 -41 0 -75 -3 -75 -6z"/>
    <path d="M87 483 c-3 -5 -8 -30 -11 -58 -4 -27 -9 -58 -12 -67 -5 -17 11 -18 234 -18 l239 0 7 43 c4 23 9 57 12 75 l6 32 -235 0 c-130 0 -238 -3 -240 -7z"/>
    <path d="M21 107 c-18 -106 -33 -97 148 -97 178 0 164 -7 176 80 4 25 9 53 11 63 5 16 -7 17 -159 17 l-165 0 -11 -63z"/>
  </g>
</svg>