<?xml version="1.0" encoding="utf-8"?>
<!-- Generator: Adobe Illustrator 26.5.0, SVG Export Plug-In . SVG Version: 6.00 Build 0)  -->
<svg version="1.1" id="Ebene_1" xmlns="http://www.w3.org/2000/svg" xmlns:xlink="http://www.w3.org/1999/xlink" x="0px" y="0px"
	 viewBox="0 0 82.3 95.9" style="enable-background:new 0 0 82.3 95.9;" xml:space="preserve">
<style type="text/css">
	.st0{fill:#E87624;}
</style>
<g>
	<path class="st0" d="M58.3,92.7L58.3,92.7c0.4,0,0.8-0.2,1.2-0.5l18.1-17c0.3-0.3,0.5-0.8,0.5-1.2c0.2-0.3,0.3-0.6,0.3-1V9.9
		c0-3.9-3.2-7.1-7.1-7.1H11.1C7.2,2.8,4,6,4,9.9V86c0,3.9,3.2,7.1,7.1,7.1h46C57.5,93.1,58,92.9,58.3,92.7L58.3,92.7z M60,87.1v-6.5
		c0-2.7,2.2-4.9,4.9-4.9h7.2L60,87.1L60,87.1z M55.1,89.2h-44c-1.8,0-3.2-1.4-3.2-3.2V9.9c0-1.8,1.4-3.2,3.2-3.2h60.1
		c1.8,0,3.2,1.4,3.2,3.2V71h-9.2c-5.5,0-10.1,4.5-10.1,10.1L55.1,89.2L55.1,89.2z"/>
	<path class="st0" d="M19.4,29.1h43.6c1.1,0,2-0.9,2-2v-3.5c0-1.1-0.9-2-2-2H19.4c-1.1,0-2,0.9-2,2v3.5
		C17.4,28.2,18.3,29.1,19.4,29.1L19.4,29.1z M19.7,23.9h42.8v2.8H19.7V23.9L19.7,23.9z"/>
	<path class="st0" d="M19.4,41.5h43.6c1.1,0,2-0.9,2-2v-3.5c0-1.1-0.9-2-2-2H19.4c-1.1,0-2,0.9-2,2v3.5
		C17.4,40.6,18.3,41.5,19.4,41.5L19.4,41.5z M19.7,36.3h42.8v2.8H19.7V36.3L19.7,36.3z"/>
	<path class="st0" d="M64.9,51.9v-3.5c0-1.1-0.9-2-2-2H19.4c-1.1,0-2,0.9-2,2v3.5c0,1.1,0.9,2,2,2h43.6C64,53.9,64.9,53,64.9,51.9
		L64.9,51.9z M62.5,51.5H19.7v-2.8h42.8V51.5L62.5,51.5z"/>
</g>
</svg>
