<?xml version="1.0" encoding="utf-8"?>
<!-- Generator: Adobe Illustrator 26.5.0, SVG Export Plug-In . SVG Version: 6.00 Build 0)  -->
<svg version="1.1" id="Ebene_1" xmlns="http://www.w3.org/2000/svg" xmlns:xlink="http://www.w3.org/1999/xlink" x="0px" y="0px"
	 viewBox="0 0 121.3 110.9" style="enable-background:new 0 0 121.3 110.9;" xml:space="preserve">
<style type="text/css">
	.st0{fill:#E87624;}
	.st1{fill:none;stroke:#E87624;stroke-miterlimit:3.8637;}
	.st2{fill:#FFFFFF;}
</style>
<g>
	<path class="st0" d="M24.2,9.1c2.2-0.6,4.6-0.9,7.2-0.9c9.4,0,20.2,4.5,26.6,15.6c0.4,0.7,1.2,1.2,2.1,1.2c0.9,0,1.7-0.5,2.1-1.2
		C69.5,10.5,84.5,6.4,95.5,9.3c10.8,2.8,17.2,11.3,17.2,22.7c0,26.3-44.3,60-52.8,66.2C51.6,91.9,7.3,58.2,7.3,31.9
		C7.3,20.5,13.6,11.9,24.2,9.1L24.2,9.1z M58.7,103c0.4,0.3,0.9,0.4,1.4,0.4c0.5,0,1-0.1,1.4-0.4c2.3-1.6,56.2-39.7,56.2-71.1
		c0-13.5-8-24-20.8-27.3C84.9,1.6,69,5.3,60,18.1C50.3,4.6,34.4,1.4,23,4.5C10.4,7.8,2.5,18.4,2.5,31.9
		C2.5,63.3,56.4,101.4,58.7,103L58.7,103z"/>
	<path class="st1" d="M24.2,9.1c2.2-0.6,4.6-0.9,7.2-0.9c9.4,0,20.2,4.5,26.6,15.6c0.4,0.7,1.2,1.2,2.1,1.2c0.9,0,1.7-0.5,2.1-1.2
		C69.5,10.5,84.5,6.4,95.5,9.3c10.8,2.8,17.2,11.3,17.2,22.7c0,26.3-44.3,60-52.8,66.2C51.6,91.9,7.3,58.2,7.3,31.9
		C7.3,20.5,13.6,11.9,24.2,9.1L24.2,9.1z M58.7,103c0.4,0.3,0.9,0.4,1.4,0.4c0.5,0,1-0.1,1.4-0.4c2.3-1.6,56.2-39.7,56.2-71.1
		c0-13.5-8-24-20.8-27.3C84.9,1.6,69,5.3,60,18.1C50.3,4.6,34.4,1.4,23,4.5C10.4,7.8,2.5,18.4,2.5,31.9
		C2.5,63.3,56.4,101.4,58.7,103L58.7,103z"/>
	<path class="st0" d="M46.3,60.4V54H57V42.9h6V54h10.7v6.4H63.1v11.1h-6V60.4H46.3L46.3,60.4z M53.8,74.7h12.4V63.6h10.7V50.8H66.2
		V39.7H53.8v11.1H43.2v12.8h10.7V74.7L53.8,74.7z"/>
	<polygon class="st2" points="46.3,60.4 46.3,54 57,54 57,42.9 63.1,42.9 63.1,54 73.7,54 73.7,60.4 63.1,60.4 63.1,71.5 57,71.5 
		57,60.4 	"/>
</g>
</svg>
