<?xml version="1.0" encoding="utf-8"?>
<!-- Generator: Adobe Illustrator 26.5.0, SVG Export Plug-In . SVG Version: 6.00 Build 0)  -->
<svg version="1.1" id="Ebene_1" xmlns="http://www.w3.org/2000/svg" xmlns:xlink="http://www.w3.org/1999/xlink" x="0px" y="0px"
	 viewBox="0 0 94.3 128.9" style="enable-background:new 0 0 94.3 128.9;" xml:space="preserve">
<style type="text/css">
	.st0{fill:#E87624;}
	.st1{fill:#FFFFFF;}
	.st2{fill:none;stroke:#E87624;stroke-width:5.3236;stroke-linecap:round;stroke-miterlimit:3.8637;}
</style>
<g>
	<path class="st0" d="M45.3,43.8c12.7,0,23,10.3,23,23c0,3.2-0.2,5.9-1.2,10c-1.8,7.4-6.4,17.9-8,21.4H31.5c-1.6-3.5-6.2-14-8-21.3
		c-1-4.1-1.2-6.8-1.2-10C22.3,54.1,32.6,43.8,45.3,43.8L45.3,43.8z M60.2,121c-0.5,0.5-1.3,0.8-2.1,0.8l-24.2-0.3
		c-1.5,0-2.7-1-2.7-2.2c0-0.9,0.7-1.7,1.8-2c0.9-0.3,1.6-1.1,1.5-2.1c0-1-0.8-1.8-1.7-1.9c-1.2-0.2-2.2-1.1-2.2-2.2
		c0-0.9,0.7-1.7,1.7-2c0.9-0.3,1.4-1.1,1.4-1.9c0-0.9-0.6-1.7-1.4-2c-1-0.3-1.7-1.2-1.7-2.1c0-0.4,0.1-0.7,0.3-1h28.7
		c0.4,0.4,0.6,0.9,0.6,1.4c0,0.9-0.7,1.7-1.7,2c-0.9,0.3-1.4,1.1-1.4,1.9c0,0.9,0.6,1.7,1.4,2c1,0.3,1.7,1.2,1.7,2.1
		c0,0.9-0.7,1.7-1.8,2c-0.9,0.2-1.6,1.1-1.5,2.1c0,1,0.8,1.8,1.7,1.9c1.2,0.2,2.2,1.1,2.2,2.2C60.8,120.3,60.5,120.7,60.2,121
		L60.2,121z M18.2,66.7c0,3.5,0.2,6.5,1.3,11c1.9,7.8,6.6,18.4,8.2,22c-0.7,1-1.1,2.1-1.1,3.4c0,1.5,0.6,2.9,1.5,4
		c-1,1.1-1.5,2.4-1.5,3.9c0,1.7,0.7,3.3,1.9,4.4c-0.9,1-1.4,2.3-1.4,3.7c0,3.5,3,6.3,6.7,6.3l24.2,0.3c0,0,0.1,0,0.1,0
		c1.9,0,3.6-0.7,4.9-1.9c1.2-1.1,1.8-2.6,1.8-4.2c0-1.7-0.7-3.3-1.9-4.4c0.9-1,1.4-2.3,1.4-3.8c0-1.5-0.6-2.9-1.5-4
		c1-1.1,1.5-2.4,1.5-3.9c0-1.5-0.6-2.9-1.5-4c1.7-3.8,6.2-14.2,8.1-21.9c1.1-4.5,1.3-7.5,1.3-11c0-14.9-12.1-27-27-27
		C30.3,39.7,18.2,51.8,18.2,66.7L18.2,66.7z"/>
	<path class="st1" d="M45.3,43.8c12.7,0,23,10.3,23,23c0,3.2-0.2,5.9-1.2,10c-1.8,7.4-6.4,17.9-8,21.4H31.5c-1.6-3.5-6.2-14-8-21.3
		c-1-4.1-1.2-6.8-1.2-10C22.3,54.1,32.6,43.8,45.3,43.8L45.3,43.8z"/>
	<path class="st1" d="M60.2,121c-0.5,0.5-1.3,0.8-2.1,0.8l-24.2-0.3c-1.5,0-2.7-1-2.7-2.2c0-0.9,0.7-1.7,1.8-2
		c0.9-0.3,1.6-1.1,1.5-2.1c0-1-0.8-1.8-1.7-1.9c-1.2-0.2-2.2-1.1-2.2-2.2c0-0.9,0.7-1.7,1.7-2c0.9-0.3,1.4-1.1,1.4-1.9
		c0-0.9-0.6-1.7-1.4-2c-1-0.3-1.7-1.2-1.7-2.1c0-0.4,0.1-0.7,0.3-1h28.7c0.4,0.4,0.6,0.9,0.6,1.4c0,0.9-0.7,1.7-1.7,2
		c-0.9,0.3-1.4,1.1-1.4,1.9c0,0.9,0.6,1.7,1.4,2c1,0.3,1.7,1.2,1.7,2.1c0,0.9-0.7,1.7-1.8,2c-0.9,0.2-1.6,1.1-1.5,2.1
		c0,1,0.8,1.8,1.7,1.9c1.2,0.2,2.2,1.1,2.2,2.2C60.8,120.3,60.5,120.7,60.2,121L60.2,121z"/>
	<path class="st0" d="M30.8,62.9c1.2,0.1,2.3-0.9,2.4-2.1c0-0.6,0.1-1.2,0.3-1.7c0.9-3.7,3.9-5.2,6.3-5.7c1.1-0.3,1.9-0.3,2-0.3
		c1.2,0,2.2-1.1,2.2-2.3c0-1.2-1-2.2-2.3-2.2c-4.2,0.1-12.3,2.7-13,11.9C28.6,61.7,29.5,62.8,30.8,62.9L30.8,62.9z"/>
	<path class="st2" d="M70.3,36.9l15.6-15.6 M22.3,36.9L6.7,21.3 M46,7.6v22"/>
</g>
</svg>
