<?xml version="1.0" encoding="utf-8"?>
<!-- Generator: Adobe Illustrator 26.5.0, SVG Export Plug-In . SVG Version: 6.00 Build 0)  -->
<svg version="1.1" id="Ebene_1" xmlns="http://www.w3.org/2000/svg" xmlns:xlink="http://www.w3.org/1999/xlink" x="0px" y="0px"
	 viewBox="0 0 129.3 82.9" style="enable-background:new 0 0 129.3 82.9;" xml:space="preserve">
<style type="text/css">
	.st0{fill:#E87624;}
	.st1{fill:none;stroke:#E87624;stroke-width:2.3574;stroke-miterlimit:3.8637;}
	.st2{fill:#FFFFFF;}
	.st3{fill:#E87624;stroke:#E87624;stroke-width:2.3574;stroke-miterlimit:3.8637;}
</style>
<g>
	<path class="st0" d="M28.2,35.1C17,35.1,7.8,44.2,7.8,55.5C7.8,66.8,17,76,28.2,76c11.3,0,20.5-9.2,20.5-20.5
		C48.7,44.2,39.5,35.1,28.2,35.1L28.2,35.1z M28.2,78.9c-12.9,0-23.4-10.5-23.4-23.4c0-12.9,10.5-23.4,23.4-23.4
		c12.9,0,23.4,10.5,23.4,23.4C51.7,68.4,41.2,78.9,28.2,78.9L28.2,78.9z"/>
	<path class="st1" d="M28.2,35.1C17,35.1,7.8,44.2,7.8,55.5C7.8,66.8,17,76,28.2,76c11.3,0,20.5-9.2,20.5-20.5
		C48.7,44.2,39.5,35.1,28.2,35.1L28.2,35.1z M28.2,78.9c-12.9,0-23.4-10.5-23.4-23.4c0-12.9,10.5-23.4,23.4-23.4
		c12.9,0,23.4,10.5,23.4,23.4C51.7,68.4,41.2,78.9,28.2,78.9L28.2,78.9z"/>
	<path class="st2" d="M28.2,35.1C17,35.1,7.8,44.2,7.8,55.5C7.8,66.8,17,76,28.2,76c11.3,0,20.5-9.2,20.5-20.5
		C48.7,44.2,39.5,35.1,28.2,35.1L28.2,35.1z"/>
	<path class="st0" d="M101,35.1c-11.3,0-20.5,9.2-20.5,20.5C80.6,66.8,89.8,76,101,76c11.3,0,20.5-9.2,20.5-20.5
		C121.5,44.2,112.3,35.1,101,35.1L101,35.1z M101,78.9c-12.9,0-23.4-10.5-23.4-23.4c0-12.9,10.5-23.4,23.4-23.4
		c12.9,0,23.4,10.5,23.4,23.4C124.5,68.4,113.9,78.9,101,78.9L101,78.9z"/>
	<path class="st1" d="M101,35.1c-11.3,0-20.5,9.2-20.5,20.5C80.6,66.8,89.8,76,101,76c11.3,0,20.5-9.2,20.5-20.5
		C121.5,44.2,112.3,35.1,101,35.1L101,35.1z M101,78.9c-12.9,0-23.4-10.5-23.4-23.4c0-12.9,10.5-23.4,23.4-23.4
		c12.9,0,23.4,10.5,23.4,23.4C124.5,68.4,113.9,78.9,101,78.9L101,78.9z"/>
	<path class="st2" d="M101,35.1c-11.3,0-20.5,9.2-20.5,20.5C80.6,66.8,89.8,76,101,76c11.3,0,20.5-9.2,20.5-20.5
		C121.5,44.2,112.3,35.1,101,35.1L101,35.1z"/>
	<path class="st0" d="M31.2,53.3l30.1,4.1L82.8,22L50,32L31.2,53.3L31.2,53.3z M62.1,60.5c-0.1,0-0.1,0-0.2,0L28,55.9
		c-0.5-0.1-1-0.4-1.2-0.9c-0.2-0.5-0.1-1.1,0.3-1.5l20.9-23.7c0.2-0.2,0.4-0.4,0.7-0.4l36.9-11.2c0.6-0.2,1.2,0,1.6,0.5
		s0.4,1.1,0.1,1.7l-24,39.5C63,60.2,62.6,60.5,62.1,60.5L62.1,60.5z"/>
	<polygon class="st2" points="31.2,53.3 61.3,57.4 82.8,22 50,32 	"/>
	<path class="st0" d="M62.1,60.5c-0.6,0-1.1-0.3-1.3-0.9l-20-44c-0.3-0.7,0-1.6,0.7-1.9c0.7-0.3,1.6,0,2,0.7l20,44
		c0.3,0.7,0,1.6-0.7,1.9C62.5,60.5,62.3,60.5,62.1,60.5L62.1,60.5z"/>
	<path class="st0" d="M104,60.5c-0.6,0-1.1-0.3-1.3-0.9L81.3,12.6c-0.3-0.7,0-1.6,0.7-1.9l13.5-6.5c0.7-0.4,1.6-0.1,2,0.7
		c0.4,0.7,0.1,1.6-0.7,2l-12.2,5.9l20.8,45.8c0.3,0.7,0,1.6-0.7,1.9C104.5,60.5,104.3,60.5,104,60.5L104,60.5z"/>
	<path class="st3" d="M49.8,16.5H33.9c-0.8,0-1.5-0.7-1.5-1.5s0.7-1.5,1.5-1.5h15.9c0.8,0,1.5,0.7,1.5,1.5
		C51.3,15.8,50.6,16.5,49.8,16.5L49.8,16.5z"/>
</g>
</svg>
