<?xml version="1.0" encoding="utf-8"?>
<!-- Generator: Adobe Illustrator 26.5.0, SVG Export Plug-In . SVG Version: 6.00 Build 0)  -->
<svg version="1.1" id="Ebene_1" xmlns="http://www.w3.org/2000/svg" xmlns:xlink="http://www.w3.org/1999/xlink" x="0px" y="0px"
	 viewBox="0 0 80.3 115.9" style="enable-background:new 0 0 80.3 115.9;" xml:space="preserve">
<style type="text/css">
	.st0{fill:#E87624;}
	.st1{fill:#FFFFFF;}
	.st2{fill:none;stroke:#E87624;stroke-width:3.1375;stroke-miterlimit:3.8637;}
</style>
<g>
	<path class="st0" d="M74.3,104.9c0,3-2.5,5.5-5.5,5.5H11.4c-3,0-5.5-2.5-5.5-5.5V11c0-3,2.5-5.5,5.5-5.5h57.4c3,0,5.5,2.5,5.5,5.5
		V104.9L74.3,104.9z M68.8,1.4H11.4c-5.3,0-9.6,4.3-9.6,9.6v93.8c0,5.3,4.3,9.6,9.6,9.6h57.4c5.3,0,9.6-4.3,9.6-9.6V11
		C78.4,5.7,74.1,1.4,68.8,1.4L68.8,1.4z"/>
	<path class="st1" d="M74.3,104.9c0,3-2.5,5.5-5.5,5.5H11.4c-3,0-5.5-2.5-5.5-5.5V11c0-3,2.5-5.5,5.5-5.5h57.4c3,0,5.5,2.5,5.5,5.5
		V104.9L74.3,104.9z"/>
	<path class="st0" d="M35.4,14h9.5c0.7,0,1.3-0.6,1.3-1.3s-0.6-1.3-1.3-1.3h-9.5c-0.7,0-1.3,0.6-1.3,1.3S34.7,14,35.4,14L35.4,14z"
		/>
	<path class="st0" d="M40.1,105.8c-2.4,0-4.3-1.9-4.3-4.3s1.9-4.3,4.3-4.3c2.3,0,4.3,1.9,4.3,4.3S42.5,105.8,40.1,105.8L40.1,105.8z
		 M40.1,95.2c-3.5,0-6.3,2.8-6.3,6.3c0,3.5,2.8,6.3,6.3,6.3c3.5,0,6.3-2.8,6.3-6.3C46.4,98.1,43.6,95.2,40.1,95.2L40.1,95.2z"/>
	<path class="st1" d="M40.1,105.8c-2.4,0-4.3-1.9-4.3-4.3s1.9-4.3,4.3-4.3c2.3,0,4.3,1.9,4.3,4.3S42.5,105.8,40.1,105.8L40.1,105.8z
		"/>
	<polygon class="st1" points="14.2,16.8 66,16.8 66,94.5 14.2,94.5 	"/>
	<path class="st2" d="M58.2,19.2H22.1c-3.3,0-6,2.7-6,6v59.1c0,3.3,2.7,6,6,6h36.2c3.3,0,6-2.7,6-6V25.2
		C64.3,21.9,61.6,19.2,58.2,19.2L58.2,19.2z"/>
</g>
</svg>
