<?xml version="1.0" encoding="utf-8"?>
<!-- Generator: Adobe Illustrator 26.5.0, SVG Export Plug-In . SVG Version: 6.00 Build 0)  -->
<svg version="1.1" id="Ebene_1" xmlns="http://www.w3.org/2000/svg" xmlns:xlink="http://www.w3.org/1999/xlink" x="0px" y="0px"
	 viewBox="0 0 109.3 90.9" style="enable-background:new 0 0 109.3 90.9;" xml:space="preserve">
<style type="text/css">
	.st0{fill:#E87624;}
	.st1{fill-rule:evenodd;clip-rule:evenodd;fill:#E87624;}
</style>
<g>
	<path class="st0" d="M95.9,18.4h-15v-3.3c0-6.9-5.6-12.5-12.5-12.5H40.9c-6.9,0-12.5,5.6-12.5,12.5v3.3h-15c-5.4,0-9.9,4.4-9.9,9.9
		v50.3c0,5.4,4.4,9.9,9.9,9.9h82.6c5.4,0,9.9-4.4,9.9-9.9V28.2C105.8,22.8,101.4,18.4,95.9,18.4L95.9,18.4z M102.2,78.5
		c0,3.5-2.8,6.3-6.3,6.3H13.3C9.9,84.8,7,82,7,78.5V28.2c0-3.5,2.8-6.3,6.3-6.3h16.8c1,0,1.8-0.8,1.8-1.8v-5.1c0-5,4-9,9-9h27.4
		c5,0,9,4,9,9v5.1c0,1,0.8,1.8,1.8,1.8h16.8c3.5,0,6.3,2.8,6.3,6.3L102.2,78.5L102.2,78.5z"/>
	<path class="st0" d="M68.4,10.6H40.9c-2.5,0-4.5,2-4.5,4.5v5.1c0,1,0.8,1.8,1.8,1.8H45c0,0,0.1,0,0.1,0h1.4c0,0,0.1,0,0.1,0h2.2
		c0,0,0.1,0,0.1,0h11.5c0,0,0.1,0,0.1,0h2.2c0,0,0.1,0,0.1,0h1.4c0,0,0.1,0,0.1,0h6.8c1,0,1.8-0.8,1.8-1.8v-5.1
		C72.8,12.6,70.8,10.6,68.4,10.6L68.4,10.6z M69.3,18.4h-5.1c0,0-0.1,0-0.1,0h-1.2c0,0-0.1,0-0.1,0h-2.4c0,0-0.1,0-0.1,0H49
		c0,0-0.1,0-0.1,0h-2.4c0,0-0.1,0-0.1,0h-1.2c0,0-0.1,0-0.1,0H40v-3.3c0-0.5,0.4-0.9,0.9-0.9h27.4c0.5,0,0.9,0.4,0.9,0.9L69.3,18.4
		L69.3,18.4z"/>
	<path class="st1" d="M31.4,42.6c0-4,0.9-6.9,2.6-8.8c1.7-1.9,4.1-2.9,7.1-2.9c3.1,0,5.5,1,7.2,2.9c1.7,1.9,2.6,4.8,2.6,8.8
		c0,4-0.9,6.9-2.6,8.8c-1.7,1.9-4.1,2.9-7,2.9c-3.1,0-5.5-0.9-7.2-2.8C32.3,49.5,31.4,46.6,31.4,42.6L31.4,42.6z M38,42.6
		c0,2.9,0.3,4.8,1,5.8c0.5,0.7,1.2,1.1,2.1,1.1c0.9,0,1.6-0.4,2.1-1.1c0.6-1,1-2.9,1-5.8c0-2.9-0.3-4.8-1-5.7
		c-0.5-0.7-1.2-1.1-2.1-1.1c-0.9,0-1.6,0.4-2.1,1.1C38.3,37.8,38,39.7,38,42.6L38,42.6z M47.5,77.5h-6.3L64.8,31h6.1L47.5,77.5
		L47.5,77.5z M61.2,65.9c0-4,0.9-6.9,2.6-8.8c1.7-1.9,4.1-2.9,7.1-2.9c3,0,5.4,1,7.1,2.9c1.7,1.9,2.6,4.8,2.6,8.8
		c0,4-0.9,6.9-2.6,8.8c-1.7,1.9-4.1,2.9-7,2.9c-3.1,0-5.5-1-7.2-2.9C62,72.8,61.2,69.9,61.2,65.9L61.2,65.9z M67.8,65.9
		c0,2.9,0.3,4.8,1,5.7c0.5,0.7,1.2,1.1,2.1,1.1c0.9,0,1.6-0.4,2.1-1.1c0.7-1,1-2.9,1-5.8c0-2.9-0.3-4.8-1-5.8
		c-0.5-0.7-1.2-1.1-2.1-1.1c-0.9,0-1.6,0.4-2.1,1.1C68.1,61.1,67.8,63,67.8,65.9L67.8,65.9z"/>
</g>
</svg>
