<?xml version="1.0" encoding="UTF-8" standalone="no"?>
<!DOCTYPE svg PUBLIC "-//W3C//DTD SVG 1.1//EN" "http://www.w3.org/Graphics/SVG/1.1/DTD/svg11.dtd">
<svg width="100%" height="100%" viewBox="0 0 3200 4196" version="1.1" xmlns="http://www.w3.org/2000/svg" xmlns:xlink="http://www.w3.org/1999/xlink" xml:space="preserve" xmlns:serif="http://www.serif.com/" style="fill-rule:evenodd;clip-rule:evenodd;stroke-linecap:round;stroke-linejoin:round;stroke-miterlimit:1.5;">
    <g transform="matrix(2.01605,0,0,2.01605,-1540.48,-1726.8)">
        <path d="M771.301,1050.77C819.257,967.989 1153.28,903.796 1557.66,903.796C1962.04,903.796 2296.07,967.989 2344.02,1050.77" style="fill:none;stroke:black;stroke-width:5.29px;"/>
    </g>
    <g transform="matrix(2.01605,0,0,-2.01605,-1540.48,4949.38)">
        <path d="M771.301,1050.77C819.257,967.989 1153.28,903.796 1557.66,903.796C1962.04,903.796 2296.07,967.989 2344.02,1050.77" style="fill:none;stroke:black;stroke-width:5.29px;"/>
    </g>
    <g transform="matrix(2.01605,0,0,2.01605,-1540.48,-1341.67)">
        <path d="M917.494,1229.96L917.494,1253.39C917.494,1270.64 931.496,1284.64 948.743,1284.64L1048.59,1284.64C1065.84,1284.64 1079.84,1270.64 1079.84,1253.39L1079.84,1229.96C1079.84,1242.89 1069.34,1253.39 1056.4,1253.39L940.931,1253.39C927.996,1253.39 917.494,1242.89 917.494,1229.96Z" style="fill:rgb(232,232,232);stroke:black;stroke-width:2.65px;"/>
        <path d="M917.494,1190.9L917.494,1229.96C917.494,1242.89 927.996,1253.39 940.931,1253.39L1056.4,1253.39C1069.34,1253.39 1079.84,1242.89 1079.84,1229.96L1079.84,1190.9C1079.84,1173.65 1065.84,1159.65 1048.59,1159.65L948.743,1159.65C931.496,1159.65 917.494,1173.65 917.494,1190.9Z" style="fill:rgb(232,232,232);stroke:black;stroke-width:2.65px;"/>
    </g>
    <g transform="matrix(2.01605,0,0,2.01605,-1540.48,-821.27)">
        <path d="M917.494,1229.96L917.494,1253.39C917.494,1270.64 931.496,1284.64 948.743,1284.64L1048.59,1284.64C1065.84,1284.64 1079.84,1270.64 1079.84,1253.39L1079.84,1229.96C1079.84,1242.89 1069.34,1253.39 1056.4,1253.39L940.931,1253.39C927.996,1253.39 917.494,1242.89 917.494,1229.96Z" style="fill:rgb(232,232,232);stroke:black;stroke-width:2.65px;"/>
        <path d="M917.494,1190.9L917.494,1229.96C917.494,1242.89 927.996,1253.39 940.931,1253.39L1056.4,1253.39C1069.34,1253.39 1079.84,1242.89 1079.84,1229.96L1079.84,1190.9C1079.84,1173.65 1065.84,1159.65 1048.59,1159.65L948.743,1159.65C931.496,1159.65 917.494,1173.65 917.494,1190.9Z" style="fill:rgb(232,232,232);stroke:black;stroke-width:2.65px;"/>
    </g>
    <g transform="matrix(2.01605,0,0,2.01605,-1540.48,-379.751)">
        <path d="M917.494,1229.96L917.494,1253.39C917.494,1270.64 931.496,1284.64 948.743,1284.64L1048.59,1284.64C1065.84,1284.64 1079.84,1270.64 1079.84,1253.39L1079.84,1229.96C1079.84,1242.89 1069.34,1253.39 1056.4,1253.39L940.931,1253.39C927.996,1253.39 917.494,1242.89 917.494,1229.96Z" style="fill:rgb(232,232,232);stroke:black;stroke-width:2.65px;"/>
        <path d="M917.494,1190.9L917.494,1229.96C917.494,1242.89 927.996,1253.39 940.931,1253.39L1056.4,1253.39C1069.34,1253.39 1079.84,1242.89 1079.84,1229.96L1079.84,1190.9C1079.84,1173.65 1065.84,1159.65 1048.59,1159.65L948.743,1159.65C931.496,1159.65 917.494,1173.65 917.494,1190.9Z" style="fill:rgb(232,232,232);stroke:black;stroke-width:2.65px;"/>
    </g>
    <g transform="matrix(2.01605,0,0,2.01605,-1540.48,187.305)">
        <path d="M917.494,1229.96L917.494,1253.39C917.494,1270.64 931.496,1284.64 948.743,1284.64L1048.59,1284.64C1065.84,1284.64 1079.84,1270.64 1079.84,1253.39L1079.84,1229.96C1079.84,1242.89 1069.34,1253.39 1056.4,1253.39L940.931,1253.39C927.996,1253.39 917.494,1242.89 917.494,1229.96Z" style="fill:rgb(232,232,232);stroke:black;stroke-width:2.65px;"/>
        <path d="M917.494,1190.9L917.494,1229.96C917.494,1242.89 927.996,1253.39 940.931,1253.39L1056.4,1253.39C1069.34,1253.39 1079.84,1242.89 1079.84,1229.96L1079.84,1190.9C1079.84,1173.65 1065.84,1159.65 1048.59,1159.65L948.743,1159.65C931.496,1159.65 917.494,1173.65 917.494,1190.9Z" style="fill:rgb(232,232,232);stroke:black;stroke-width:2.65px;"/>
    </g>
    <g transform="matrix(2.01605,0,0,2.01605,-1540.48,877.338)">
        <path d="M917.494,1229.96L917.494,1253.39C917.494,1270.64 931.496,1284.64 948.743,1284.64L1048.59,1284.64C1065.84,1284.64 1079.84,1270.64 1079.84,1253.39L1079.84,1229.96C1079.84,1242.89 1069.34,1253.39 1056.4,1253.39L940.931,1253.39C927.996,1253.39 917.494,1242.89 917.494,1229.96Z" style="fill:rgb(232,232,232);stroke:black;stroke-width:2.65px;"/>
        <path d="M917.494,1190.9L917.494,1229.96C917.494,1242.89 927.996,1253.39 940.931,1253.39L1056.4,1253.39C1069.34,1253.39 1079.84,1242.89 1079.84,1229.96L1079.84,1190.9C1079.84,1173.65 1065.84,1159.65 1048.59,1159.65L948.743,1159.65C931.496,1159.65 917.494,1173.65 917.494,1190.9Z" style="fill:rgb(232,232,232);stroke:black;stroke-width:2.65px;"/>
    </g>
    <g transform="matrix(2.01605,0,0,2.01605,-1540.48,1357.54)">
        <path d="M917.494,1229.96L917.494,1253.39C917.494,1270.64 931.496,1284.64 948.743,1284.64L1048.59,1284.64C1065.84,1284.64 1079.84,1270.64 1079.84,1253.39L1079.84,1229.96C1079.84,1242.89 1069.34,1253.39 1056.4,1253.39L940.931,1253.39C927.996,1253.39 917.494,1242.89 917.494,1229.96Z" style="fill:rgb(232,232,232);stroke:black;stroke-width:2.65px;"/>
        <path d="M917.494,1190.9L917.494,1229.96C917.494,1242.89 927.996,1253.39 940.931,1253.39L1056.4,1253.39C1069.34,1253.39 1079.84,1242.89 1079.84,1229.96L1079.84,1190.9C1079.84,1173.65 1065.84,1159.65 1048.59,1159.65L948.743,1159.65C931.496,1159.65 917.494,1173.65 917.494,1190.9Z" style="fill:rgb(232,232,232);stroke:black;stroke-width:2.65px;"/>
    </g>
    <g transform="matrix(2.01605,0,0,2.01605,-1161.68,-1274.17)">
        <path d="M917.494,1229.96L917.494,1253.39C917.494,1270.64 931.496,1284.64 948.743,1284.64L1048.59,1284.64C1065.84,1284.64 1079.84,1270.64 1079.84,1253.39L1079.84,1229.96C1079.84,1242.89 1069.34,1253.39 1056.4,1253.39L940.931,1253.39C927.996,1253.39 917.494,1242.89 917.494,1229.96Z" style="fill:rgb(232,232,232);stroke:black;stroke-width:2.65px;"/>
        <path d="M917.494,1190.9L917.494,1229.96C917.494,1242.89 927.996,1253.39 940.931,1253.39L1056.4,1253.39C1069.34,1253.39 1079.84,1242.89 1079.84,1229.96L1079.84,1190.9C1079.84,1173.65 1065.84,1159.65 1048.59,1159.65L948.743,1159.65C931.496,1159.65 917.494,1173.65 917.494,1190.9Z" style="fill:rgb(232,232,232);stroke:black;stroke-width:2.65px;"/>
    </g>
    <g transform="matrix(4.23363,0,0,2.01605,-3196.3,-753.77)">
        <path d="M917.494,1229.96L917.494,1253.39C917.494,1270.64 921.972,1284.64 939.219,1284.64L1058.11,1284.64C1075.36,1284.64 1079.84,1270.64 1079.84,1253.39L1079.84,1229.96C1079.84,1242.89 1069.34,1253.39 1056.4,1253.39L940.931,1253.39C927.996,1253.39 917.494,1242.89 917.494,1229.96Z" style="fill:rgb(232,232,232);stroke:black;stroke-width:1.61px;"/>
        <path d="M917.494,1190.9L917.494,1229.96C917.494,1242.89 918.472,1253.39 931.407,1253.39L1065.92,1253.39C1078.86,1253.39 1079.84,1242.89 1079.84,1229.96L1079.84,1190.9C1079.84,1173.65 1080.12,1159.65 1062.87,1159.65L934.457,1159.65C917.21,1159.65 917.494,1173.65 917.494,1190.9Z" style="fill:rgb(232,232,232);stroke:black;stroke-width:1.61px;"/>
        <g transform="matrix(0.4762,0,0,1,122.375,-546.283)">
            <path d="M1726.43,1742.56C1731.74,1733.92 1742.34,1733.92 1747.63,1738.24C1752.94,1742.56 1752.94,1751.19 1747.63,1759.83C1743.92,1766.31 1734.38,1772.79 1726.43,1777.1C1718.48,1772.79 1708.94,1766.31 1705.23,1759.83C1699.93,1751.19 1699.93,1742.56 1705.23,1738.24C1710.53,1733.92 1721.13,1733.92 1726.43,1742.56Z" style="fill:rgb(232,232,232);stroke:black;stroke-width:2.65px;"/>
        </g>
    </g>
    <g transform="matrix(4.23363,0,0,2.01605,-2059.34,-244.751)">
        <path d="M917.494,1229.96L917.494,1253.39C917.494,1270.64 921.972,1284.64 939.219,1284.64L1058.11,1284.64C1075.36,1284.64 1079.84,1270.64 1079.84,1253.39L1079.84,1229.96C1079.84,1242.89 1069.34,1253.39 1056.4,1253.39L940.931,1253.39C927.996,1253.39 917.494,1242.89 917.494,1229.96Z" style="fill:rgb(232,232,232);stroke:black;stroke-width:1.61px;"/>
        <path d="M917.494,1190.9L917.494,1229.96C917.494,1242.89 918.472,1253.39 931.407,1253.39L1065.92,1253.39C1078.86,1253.39 1079.84,1242.89 1079.84,1229.96L1079.84,1190.9C1079.84,1173.65 1080.12,1159.65 1062.87,1159.65L934.457,1159.65C917.21,1159.65 917.494,1173.65 917.494,1190.9Z" style="fill:rgb(232,232,232);stroke:black;stroke-width:1.61px;"/>
        <g transform="matrix(0.4762,0,0,1,122.556,-544.093)">
            <path d="M1726.43,1742.56C1731.74,1733.92 1742.34,1733.92 1747.63,1738.24C1752.94,1742.56 1752.94,1751.19 1747.63,1759.83C1743.92,1766.31 1734.38,1772.79 1726.43,1777.1C1718.48,1772.79 1708.94,1766.31 1705.23,1759.83C1699.93,1751.19 1699.93,1742.56 1705.23,1738.24C1710.53,1733.92 1721.13,1733.92 1726.43,1742.56Z" style="fill:rgb(232,232,232);stroke:black;stroke-width:2.65px;"/>
        </g>
    </g>
    <g transform="matrix(2.01605,0,0,2.01605,-1161.68,-312.251)">
        <path d="M917.494,1229.96L917.494,1253.39C917.494,1270.64 931.496,1284.64 948.743,1284.64L1048.59,1284.64C1065.84,1284.64 1079.84,1270.64 1079.84,1253.39L1079.84,1229.96C1079.84,1242.89 1069.34,1253.39 1056.4,1253.39L940.931,1253.39C927.996,1253.39 917.494,1242.89 917.494,1229.96Z" style="fill:rgb(232,232,232);stroke:black;stroke-width:2.65px;"/>
        <path d="M917.494,1190.9L917.494,1229.96C917.494,1242.89 927.996,1253.39 940.931,1253.39L1056.4,1253.39C1069.34,1253.39 1079.84,1242.89 1079.84,1229.96L1079.84,1190.9C1079.84,1173.65 1065.84,1159.65 1048.59,1159.65L948.743,1159.65C931.496,1159.65 917.494,1173.65 917.494,1190.9Z" style="fill:rgb(232,232,232);stroke:black;stroke-width:2.65px;"/>
    </g>
    <g transform="matrix(2.01605,0,0,2.01605,-1161.68,254.805)">
        <path d="M917.494,1229.96L917.494,1253.39C917.494,1270.64 931.496,1284.64 948.743,1284.64L1048.59,1284.64C1065.84,1284.64 1079.84,1270.64 1079.84,1253.39L1079.84,1229.96C1079.84,1242.89 1069.34,1253.39 1056.4,1253.39L940.931,1253.39C927.996,1253.39 917.494,1242.89 917.494,1229.96Z" style="fill:rgb(232,232,232);stroke:black;stroke-width:2.65px;"/>
        <path d="M917.494,1190.9L917.494,1229.96C917.494,1242.89 927.996,1253.39 940.931,1253.39L1056.4,1253.39C1069.34,1253.39 1079.84,1242.89 1079.84,1229.96L1079.84,1190.9C1079.84,1173.65 1065.84,1159.65 1048.59,1159.65L948.743,1159.65C931.496,1159.65 917.494,1173.65 917.494,1190.9Z" style="fill:rgb(232,232,232);stroke:black;stroke-width:2.65px;"/>
    </g>
    <g transform="matrix(2.01605,0,0,2.01605,-1161.68,944.838)">
        <path d="M917.494,1229.96L917.494,1253.39C917.494,1270.64 931.496,1284.64 948.743,1284.64L1048.59,1284.64C1065.84,1284.64 1079.84,1270.64 1079.84,1253.39L1079.84,1229.96C1079.84,1242.89 1069.34,1253.39 1056.4,1253.39L940.931,1253.39C927.996,1253.39 917.494,1242.89 917.494,1229.96Z" style="fill:rgb(232,232,232);stroke:black;stroke-width:2.65px;"/>
        <path d="M917.494,1190.9L917.494,1229.96C917.494,1242.89 927.996,1253.39 940.931,1253.39L1056.4,1253.39C1069.34,1253.39 1079.84,1242.89 1079.84,1229.96L1079.84,1190.9C1079.84,1173.65 1065.84,1159.65 1048.59,1159.65L948.743,1159.65C931.496,1159.65 917.494,1173.65 917.494,1190.9Z" style="fill:rgb(232,232,232);stroke:black;stroke-width:2.65px;"/>
    </g>
    <g transform="matrix(2.01605,0,0,2.01605,-1161.68,1425.04)">
        <path d="M917.494,1229.96L917.494,1253.39C917.494,1270.64 931.496,1284.64 948.743,1284.64L1048.59,1284.64C1065.84,1284.64 1079.84,1270.64 1079.84,1253.39L1079.84,1229.96C1079.84,1242.89 1069.34,1253.39 1056.4,1253.39L940.931,1253.39C927.996,1253.39 917.494,1242.89 917.494,1229.96Z" style="fill:rgb(232,232,232);stroke:black;stroke-width:2.65px;"/>
        <path d="M917.494,1190.9L917.494,1229.96C917.494,1242.89 927.996,1253.39 940.931,1253.39L1056.4,1253.39C1069.34,1253.39 1079.84,1242.89 1079.84,1229.96L1079.84,1190.9C1079.84,1173.65 1065.84,1159.65 1048.59,1159.65L948.743,1159.65C931.496,1159.65 917.494,1173.65 917.494,1190.9Z" style="fill:rgb(232,232,232);stroke:black;stroke-width:2.65px;"/>
    </g>
    <g transform="matrix(2.01605,0,0,2.01605,-801.515,-1206.67)">
        <path d="M917.494,1229.96L917.494,1253.39C917.494,1270.64 931.496,1284.64 948.743,1284.64L1048.59,1284.64C1065.84,1284.64 1079.84,1270.64 1079.84,1253.39L1079.84,1229.96C1079.84,1242.89 1069.34,1253.39 1056.4,1253.39L940.931,1253.39C927.996,1253.39 917.494,1242.89 917.494,1229.96Z" style="fill:rgb(232,232,232);stroke:black;stroke-width:2.65px;"/>
        <path d="M917.494,1190.9L917.494,1229.96C917.494,1242.89 927.996,1253.39 940.931,1253.39L1056.4,1253.39C1069.34,1253.39 1079.84,1242.89 1079.84,1229.96L1079.84,1190.9C1079.84,1173.65 1065.84,1159.65 1048.59,1159.65L948.743,1159.65C931.496,1159.65 917.494,1173.65 917.494,1190.9Z" style="fill:rgb(232,232,232);stroke:black;stroke-width:2.65px;"/>
    </g>
    <g transform="matrix(2.01605,0,0,2.01605,-801.515,-244.751)">
        <path d="M917.494,1229.96L917.494,1253.39C917.494,1270.64 931.496,1284.64 948.743,1284.64L1048.59,1284.64C1065.84,1284.64 1079.84,1270.64 1079.84,1253.39L1079.84,1229.96C1079.84,1242.89 1069.34,1253.39 1056.4,1253.39L940.931,1253.39C927.996,1253.39 917.494,1242.89 917.494,1229.96Z" style="fill:rgb(232,232,232);stroke:black;stroke-width:2.65px;"/>
        <path d="M917.494,1190.9L917.494,1229.96C917.494,1242.89 927.996,1253.39 940.931,1253.39L1056.4,1253.39C1069.34,1253.39 1079.84,1242.89 1079.84,1229.96L1079.84,1190.9C1079.84,1173.65 1065.84,1159.65 1048.59,1159.65L948.743,1159.65C931.496,1159.65 917.494,1173.65 917.494,1190.9Z" style="fill:rgb(232,232,232);stroke:black;stroke-width:2.65px;"/>
    </g>
    <g transform="matrix(2.01605,0,0,2.01605,-801.515,322.305)">
        <path d="M917.494,1229.96L917.494,1253.39C917.494,1270.64 931.496,1284.64 948.743,1284.64L1048.59,1284.64C1065.84,1284.64 1079.84,1270.64 1079.84,1253.39L1079.84,1229.96C1079.84,1242.89 1069.34,1253.39 1056.4,1253.39L940.931,1253.39C927.996,1253.39 917.494,1242.89 917.494,1229.96Z" style="fill:rgb(232,232,232);stroke:black;stroke-width:2.65px;"/>
        <path d="M917.494,1190.9L917.494,1229.96C917.494,1242.89 927.996,1253.39 940.931,1253.39L1056.4,1253.39C1069.34,1253.39 1079.84,1242.89 1079.84,1229.96L1079.84,1190.9C1079.84,1173.65 1065.84,1159.65 1048.59,1159.65L948.743,1159.65C931.496,1159.65 917.494,1173.65 917.494,1190.9Z" style="fill:rgb(232,232,232);stroke:black;stroke-width:2.65px;"/>
        <g transform="matrix(0.556163,-0.556163,0.556163,0.556163,-821.234,904.402)">
            <path d="M1377.09,1896.11L1377.09,1861.55L1352.01,1861.55L1352.01,1896.11L1317.45,1896.11L1317.45,1921.19L1352.01,1921.19L1352.01,1955.75L1377.09,1955.75L1377.09,1921.19L1411.65,1921.19L1411.65,1896.11L1377.09,1896.11Z" style="fill:rgb(232,232,232);stroke:black;stroke-width:3.36px;"/>
        </g>
    </g>
    <g transform="matrix(2.01605,0,0,2.01605,-797.092,1011.92)">
        <path d="M917.494,1229.96L917.494,1253.39C917.494,1270.64 931.496,1284.64 948.743,1284.64L1048.59,1284.64C1065.84,1284.64 1079.84,1270.64 1079.84,1253.39L1079.84,1229.96C1079.84,1242.89 1069.34,1253.39 1056.4,1253.39L940.931,1253.39C927.996,1253.39 917.494,1242.89 917.494,1229.96Z" style="fill:rgb(232,232,232);stroke:black;stroke-width:2.65px;"/>
        <path d="M917.494,1190.9L917.494,1229.96C917.494,1242.89 927.996,1253.39 940.931,1253.39L1056.4,1253.39C1069.34,1253.39 1079.84,1242.89 1079.84,1229.96L1079.84,1190.9C1079.84,1173.65 1065.84,1159.65 1048.59,1159.65L948.743,1159.65C931.496,1159.65 917.494,1173.65 917.494,1190.9Z" style="fill:rgb(232,232,232);stroke:black;stroke-width:2.65px;"/>
        <g transform="matrix(0.556163,-0.556163,0.556163,0.556163,-821.234,904.402)">
            <path d="M1377.09,1896.11L1377.09,1861.55L1352.01,1861.55L1352.01,1896.11L1317.45,1896.11L1317.45,1921.19L1352.01,1921.19L1352.01,1955.75L1377.09,1955.75L1377.09,1921.19L1411.65,1921.19L1411.65,1896.11L1377.09,1896.11Z" style="fill:rgb(232,232,232);stroke:black;stroke-width:3.36px;"/>
        </g>
    </g>
    <g transform="matrix(2.01605,0,0,2.01605,-801.515,1492.54)">
        <path d="M917.494,1229.96L917.494,1253.39C917.494,1270.64 931.496,1284.64 948.743,1284.64L1048.59,1284.64C1065.84,1284.64 1079.84,1270.64 1079.84,1253.39L1079.84,1229.96C1079.84,1242.89 1069.34,1253.39 1056.4,1253.39L940.931,1253.39C927.996,1253.39 917.494,1242.89 917.494,1229.96Z" style="fill:rgb(232,232,232);stroke:black;stroke-width:2.65px;"/>
        <path d="M917.494,1190.9L917.494,1229.96C917.494,1242.89 927.996,1253.39 940.931,1253.39L1056.4,1253.39C1069.34,1253.39 1079.84,1242.89 1079.84,1229.96L1079.84,1190.9C1079.84,1173.65 1065.84,1159.65 1048.59,1159.65L948.743,1159.65C931.496,1159.65 917.494,1173.65 917.494,1190.9Z" style="fill:rgb(232,232,232);stroke:black;stroke-width:2.65px;"/>
    </g>
    <g transform="matrix(2.01605,0,0,2.01605,-424.574,-1163.36)">
        <path d="M917.494,1229.96L917.494,1253.39C917.494,1270.64 931.496,1284.64 948.743,1284.64L1048.59,1284.64C1065.84,1284.64 1079.84,1270.64 1079.84,1253.39L1079.84,1229.96C1079.84,1242.89 1069.34,1253.39 1056.4,1253.39L940.931,1253.39C927.996,1253.39 917.494,1242.89 917.494,1229.96Z" style="fill:rgb(232,232,232);stroke:black;stroke-width:2.65px;"/>
        <path d="M917.494,1190.9L917.494,1229.96C917.494,1242.89 927.996,1253.39 940.931,1253.39L1056.4,1253.39C1069.34,1253.39 1079.84,1242.89 1079.84,1229.96L1079.84,1190.9C1079.84,1173.65 1065.84,1159.65 1048.59,1159.65L948.743,1159.65C931.496,1159.65 917.494,1173.65 917.494,1190.9Z" style="fill:rgb(232,232,232);stroke:black;stroke-width:2.65px;"/>
    </g>
    <g transform="matrix(2.01605,0,0,2.01605,-424.574,-642.962)">
        <path d="M917.494,1229.96L917.494,1253.39C917.494,1270.64 931.496,1284.64 948.743,1284.64L1048.59,1284.64C1065.84,1284.64 1079.84,1270.64 1079.84,1253.39L1079.84,1229.96C1079.84,1242.89 1069.34,1253.39 1056.4,1253.39L940.931,1253.39C927.996,1253.39 917.494,1242.89 917.494,1229.96Z" style="fill:rgb(232,232,232);stroke:black;stroke-width:2.65px;"/>
        <path d="M917.494,1190.9L917.494,1229.96C917.494,1242.89 927.996,1253.39 940.931,1253.39L1056.4,1253.39C1069.34,1253.39 1079.84,1242.89 1079.84,1229.96L1079.84,1190.9C1079.84,1173.65 1065.84,1159.65 1048.59,1159.65L948.743,1159.65C931.496,1159.65 917.494,1173.65 917.494,1190.9Z" style="fill:rgb(232,232,232);stroke:black;stroke-width:2.65px;"/>
    </g>
    <g transform="matrix(2.01605,0,0,2.01605,-424.574,-201.443)">
        <path d="M917.494,1229.96L917.494,1253.39C917.494,1270.64 931.496,1284.64 948.743,1284.64L1048.59,1284.64C1065.84,1284.64 1079.84,1270.64 1079.84,1253.39L1079.84,1229.96C1079.84,1242.89 1069.34,1253.39 1056.4,1253.39L940.931,1253.39C927.996,1253.39 917.494,1242.89 917.494,1229.96Z" style="fill:rgb(232,232,232);stroke:black;stroke-width:2.65px;"/>
        <path d="M917.494,1190.9L917.494,1229.96C917.494,1242.89 927.996,1253.39 940.931,1253.39L1056.4,1253.39C1069.34,1253.39 1079.84,1242.89 1079.84,1229.96L1079.84,1190.9C1079.84,1173.65 1065.84,1159.65 1048.59,1159.65L948.743,1159.65C931.496,1159.65 917.494,1173.65 917.494,1190.9Z" style="fill:rgb(232,232,232);stroke:black;stroke-width:2.65px;"/>
    </g>
    <g transform="matrix(2.01605,0,0,2.01605,-424.574,365.613)">
        <path d="M917.494,1229.96L917.494,1253.39C917.494,1270.64 931.496,1284.64 948.743,1284.64L1048.59,1284.64C1065.84,1284.64 1079.84,1270.64 1079.84,1253.39L1079.84,1229.96C1079.84,1242.89 1069.34,1253.39 1056.4,1253.39L940.931,1253.39C927.996,1253.39 917.494,1242.89 917.494,1229.96Z" style="fill:rgb(232,232,232);stroke:black;stroke-width:2.65px;"/>
        <path d="M917.494,1190.9L917.494,1229.96C917.494,1242.89 927.996,1253.39 940.931,1253.39L1056.4,1253.39C1069.34,1253.39 1079.84,1242.89 1079.84,1229.96L1079.84,1190.9C1079.84,1173.65 1065.84,1159.65 1048.59,1159.65L948.743,1159.65C931.496,1159.65 917.494,1173.65 917.494,1190.9Z" style="fill:rgb(232,232,232);stroke:black;stroke-width:2.65px;"/>
        <g transform="matrix(0.556163,-0.556163,0.556163,0.556163,-823.598,905.557)">
            <path d="M1377.09,1896.11L1377.09,1861.55L1352.01,1861.55L1352.01,1896.11L1317.45,1896.11L1317.45,1921.19L1352.01,1921.19L1352.01,1955.75L1377.09,1955.75L1377.09,1921.19L1411.65,1921.19L1411.65,1896.11L1377.09,1896.11Z" style="fill:rgb(232,232,232);stroke:black;stroke-width:3.36px;"/>
        </g>
    </g>
    <g transform="matrix(2.01605,0,0,2.01605,-420.152,1055.23)">
        <path d="M917.494,1229.96L917.494,1253.39C917.494,1270.64 931.496,1284.64 948.743,1284.64L1048.59,1284.64C1065.84,1284.64 1079.84,1270.64 1079.84,1253.39L1079.84,1229.96C1079.84,1242.89 1069.34,1253.39 1056.4,1253.39L940.931,1253.39C927.996,1253.39 917.494,1242.89 917.494,1229.96Z" style="fill:rgb(232,232,232);stroke:black;stroke-width:2.65px;"/>
        <path d="M917.494,1190.9L917.494,1229.96C917.494,1242.89 927.996,1253.39 940.931,1253.39L1056.4,1253.39C1069.34,1253.39 1079.84,1242.89 1079.84,1229.96L1079.84,1190.9C1079.84,1173.65 1065.84,1159.65 1048.59,1159.65L948.743,1159.65C931.496,1159.65 917.494,1173.65 917.494,1190.9Z" style="fill:rgb(232,232,232);stroke:black;stroke-width:2.65px;"/>
        <g transform="matrix(0.556163,-0.556163,0.556163,0.556163,-823.598,905.557)">
            <path d="M1377.09,1896.11L1377.09,1861.55L1352.01,1861.55L1352.01,1896.11L1317.45,1896.11L1317.45,1921.19L1352.01,1921.19L1352.01,1955.75L1377.09,1955.75L1377.09,1921.19L1411.65,1921.19L1411.65,1896.11L1377.09,1896.11Z" style="fill:rgb(232,232,232);stroke:black;stroke-width:3.36px;"/>
        </g>
    </g>
    <g transform="matrix(2.01605,0,0,2.01605,-424.574,1535.85)">
        <path d="M917.494,1229.96L917.494,1253.39C917.494,1270.64 931.496,1284.64 948.743,1284.64L1048.59,1284.64C1065.84,1284.64 1079.84,1270.64 1079.84,1253.39L1079.84,1229.96C1079.84,1242.89 1069.34,1253.39 1056.4,1253.39L940.931,1253.39C927.996,1253.39 917.494,1242.89 917.494,1229.96Z" style="fill:rgb(232,232,232);stroke:black;stroke-width:2.65px;"/>
        <path d="M917.494,1190.9L917.494,1229.96C917.494,1242.89 927.996,1253.39 940.931,1253.39L1056.4,1253.39C1069.34,1253.39 1079.84,1242.89 1079.84,1229.96L1079.84,1190.9C1079.84,1173.65 1065.84,1159.65 1048.59,1159.65L948.743,1159.65C931.496,1159.65 917.494,1173.65 917.494,1190.9Z" style="fill:rgb(232,232,232);stroke:black;stroke-width:2.65px;"/>
    </g>
    <g transform="matrix(2.01605,0,0,2.01605,-58.4325,-1206.67)">
        <path d="M917.494,1229.96L917.494,1253.39C917.494,1270.64 931.496,1284.64 948.743,1284.64L1048.59,1284.64C1065.84,1284.64 1079.84,1270.64 1079.84,1253.39L1079.84,1229.96C1079.84,1242.89 1069.34,1253.39 1056.4,1253.39L940.931,1253.39C927.996,1253.39 917.494,1242.89 917.494,1229.96Z" style="fill:rgb(232,232,232);stroke:black;stroke-width:2.65px;"/>
        <path d="M917.494,1190.9L917.494,1229.96C917.494,1242.89 927.996,1253.39 940.931,1253.39L1056.4,1253.39C1069.34,1253.39 1079.84,1242.89 1079.84,1229.96L1079.84,1190.9C1079.84,1173.65 1065.84,1159.65 1048.59,1159.65L948.743,1159.65C931.496,1159.65 917.494,1173.65 917.494,1190.9Z" style="fill:rgb(232,232,232);stroke:black;stroke-width:2.65px;"/>
    </g>
    <g transform="matrix(2.01605,0,0,2.01605,-58.4325,-686.27)">
        <path d="M917.494,1229.96L917.494,1253.39C917.494,1270.64 931.496,1284.64 948.743,1284.64L1048.59,1284.64C1065.84,1284.64 1079.84,1270.64 1079.84,1253.39L1079.84,1229.96C1079.84,1242.89 1069.34,1253.39 1056.4,1253.39L940.931,1253.39C927.996,1253.39 917.494,1242.89 917.494,1229.96Z" style="fill:rgb(232,232,232);stroke:black;stroke-width:2.65px;"/>
        <path d="M917.494,1190.9L917.494,1229.96C917.494,1242.89 927.996,1253.39 940.931,1253.39L1056.4,1253.39C1069.34,1253.39 1079.84,1242.89 1079.84,1229.96L1079.84,1190.9C1079.84,1173.65 1065.84,1159.65 1048.59,1159.65L948.743,1159.65C931.496,1159.65 917.494,1173.65 917.494,1190.9Z" style="fill:rgb(232,232,232);stroke:black;stroke-width:2.65px;"/>
    </g>
    <g transform="matrix(2.01605,0,0,2.01605,-58.4325,322.305)">
        <path d="M917.494,1229.96L917.494,1253.39C917.494,1270.64 931.496,1284.64 948.743,1284.64L1048.59,1284.64C1065.84,1284.64 1079.84,1270.64 1079.84,1253.39L1079.84,1229.96C1079.84,1242.89 1069.34,1253.39 1056.4,1253.39L940.931,1253.39C927.996,1253.39 917.494,1242.89 917.494,1229.96Z" style="fill:rgb(232,232,232);stroke:black;stroke-width:2.65px;"/>
        <path d="M917.494,1190.9L917.494,1229.96C917.494,1242.89 927.996,1253.39 940.931,1253.39L1056.4,1253.39C1069.34,1253.39 1079.84,1242.89 1079.84,1229.96L1079.84,1190.9C1079.84,1173.65 1065.84,1159.65 1048.59,1159.65L948.743,1159.65C931.496,1159.65 917.494,1173.65 917.494,1190.9Z" style="fill:rgb(232,232,232);stroke:black;stroke-width:2.65px;"/>
        <g transform="matrix(0.556163,-0.556163,0.556163,0.556163,-819.128,903.69)">
            <path d="M1377.09,1896.11L1377.09,1861.55L1352.01,1861.55L1352.01,1896.11L1317.45,1896.11L1317.45,1921.19L1352.01,1921.19L1352.01,1955.75L1377.09,1955.75L1377.09,1921.19L1411.65,1921.19L1411.65,1896.11L1377.09,1896.11Z" style="fill:rgb(232,232,232);stroke:black;stroke-width:3.36px;"/>
        </g>
    </g>
    <g transform="matrix(2.01605,0,0,2.01605,-54.0101,1011.92)">
        <path d="M917.494,1229.96L917.494,1253.39C917.494,1270.64 931.496,1284.64 948.743,1284.64L1048.59,1284.64C1065.84,1284.64 1079.84,1270.64 1079.84,1253.39L1079.84,1229.96C1079.84,1242.89 1069.34,1253.39 1056.4,1253.39L940.931,1253.39C927.996,1253.39 917.494,1242.89 917.494,1229.96Z" style="fill:rgb(232,232,232);stroke:black;stroke-width:2.65px;"/>
        <path d="M917.494,1190.9L917.494,1229.96C917.494,1242.89 927.996,1253.39 940.931,1253.39L1056.4,1253.39C1069.34,1253.39 1079.84,1242.89 1079.84,1229.96L1079.84,1190.9C1079.84,1173.65 1065.84,1159.65 1048.59,1159.65L948.743,1159.65C931.496,1159.65 917.494,1173.65 917.494,1190.9Z" style="fill:rgb(232,232,232);stroke:black;stroke-width:2.65px;"/>
    </g>
    <g transform="matrix(2.01605,0,0,2.01605,-58.4325,1492.54)">
        <path d="M917.494,1229.96L917.494,1253.39C917.494,1270.64 931.496,1284.64 948.743,1284.64L1048.59,1284.64C1065.84,1284.64 1079.84,1270.64 1079.84,1253.39L1079.84,1229.96C1079.84,1242.89 1069.34,1253.39 1056.4,1253.39L940.931,1253.39C927.996,1253.39 917.494,1242.89 917.494,1229.96Z" style="fill:rgb(232,232,232);stroke:black;stroke-width:2.65px;"/>
        <path d="M917.494,1190.9L917.494,1229.96C917.494,1242.89 927.996,1253.39 940.931,1253.39L1056.4,1253.39C1069.34,1253.39 1079.84,1242.89 1079.84,1229.96L1079.84,1190.9C1079.84,1173.65 1065.84,1159.65 1048.59,1159.65L948.743,1159.65C931.496,1159.65 917.494,1173.65 917.494,1190.9Z" style="fill:rgb(232,232,232);stroke:black;stroke-width:2.65px;"/>
    </g>
    <g transform="matrix(2.01605,0,0,2.01605,315.769,-1274.17)">
        <path d="M917.494,1229.96L917.494,1253.39C917.494,1270.64 931.496,1284.64 948.743,1284.64L1048.59,1284.64C1065.84,1284.64 1079.84,1270.64 1079.84,1253.39L1079.84,1229.96C1079.84,1242.89 1069.34,1253.39 1056.4,1253.39L940.931,1253.39C927.996,1253.39 917.494,1242.89 917.494,1229.96Z" style="fill:rgb(232,232,232);stroke:black;stroke-width:2.65px;"/>
        <path d="M917.494,1190.9L917.494,1229.96C917.494,1242.89 927.996,1253.39 940.931,1253.39L1056.4,1253.39C1069.34,1253.39 1079.84,1242.89 1079.84,1229.96L1079.84,1190.9C1079.84,1173.65 1065.84,1159.65 1048.59,1159.65L948.743,1159.65C931.496,1159.65 917.494,1173.65 917.494,1190.9Z" style="fill:rgb(232,232,232);stroke:black;stroke-width:2.65px;"/>
    </g>
    <g transform="matrix(2.01605,0,0,2.01605,315.769,-753.77)">
        <path d="M917.494,1229.96L917.494,1253.39C917.494,1270.64 931.496,1284.64 948.743,1284.64L1048.59,1284.64C1065.84,1284.64 1079.84,1270.64 1079.84,1253.39L1079.84,1229.96C1079.84,1242.89 1069.34,1253.39 1056.4,1253.39L940.931,1253.39C927.996,1253.39 917.494,1242.89 917.494,1229.96Z" style="fill:rgb(232,232,232);stroke:black;stroke-width:2.65px;"/>
        <path d="M917.494,1190.9L917.494,1229.96C917.494,1242.89 927.996,1253.39 940.931,1253.39L1056.4,1253.39C1069.34,1253.39 1079.84,1242.89 1079.84,1229.96L1079.84,1190.9C1079.84,1173.65 1065.84,1159.65 1048.59,1159.65L948.743,1159.65C931.496,1159.65 917.494,1173.65 917.494,1190.9Z" style="fill:rgb(232,232,232);stroke:black;stroke-width:2.65px;"/>
    </g>
    <g transform="matrix(2.01605,0,0,2.01605,315.769,254.805)">
        <path d="M917.494,1229.96L917.494,1253.39C917.494,1270.64 931.496,1284.64 948.743,1284.64L1048.59,1284.64C1065.84,1284.64 1079.84,1270.64 1079.84,1253.39L1079.84,1229.96C1079.84,1242.89 1069.34,1253.39 1056.4,1253.39L940.931,1253.39C927.996,1253.39 917.494,1242.89 917.494,1229.96Z" style="fill:rgb(232,232,232);stroke:black;stroke-width:2.65px;"/>
        <path d="M917.494,1190.9L917.494,1229.96C917.494,1242.89 927.996,1253.39 940.931,1253.39L1056.4,1253.39C1069.34,1253.39 1079.84,1242.89 1079.84,1229.96L1079.84,1190.9C1079.84,1173.65 1065.84,1159.65 1048.59,1159.65L948.743,1159.65C931.496,1159.65 917.494,1173.65 917.494,1190.9Z" style="fill:rgb(232,232,232);stroke:black;stroke-width:2.65px;"/>
    </g>
    <g transform="matrix(2.01605,0,0,2.01605,315.769,944.838)">
        <path d="M917.494,1229.96L917.494,1253.39C917.494,1270.64 931.496,1284.64 948.743,1284.64L1048.59,1284.64C1065.84,1284.64 1079.84,1270.64 1079.84,1253.39L1079.84,1229.96C1079.84,1242.89 1069.34,1253.39 1056.4,1253.39L940.931,1253.39C927.996,1253.39 917.494,1242.89 917.494,1229.96Z" style="fill:rgb(232,232,232);stroke:black;stroke-width:2.65px;"/>
        <path d="M917.494,1190.9L917.494,1229.96C917.494,1242.89 927.996,1253.39 940.931,1253.39L1056.4,1253.39C1069.34,1253.39 1079.84,1242.89 1079.84,1229.96L1079.84,1190.9C1079.84,1173.65 1065.84,1159.65 1048.59,1159.65L948.743,1159.65C931.496,1159.65 917.494,1173.65 917.494,1190.9Z" style="fill:rgb(232,232,232);stroke:black;stroke-width:2.65px;"/>
        <g transform="matrix(0.556163,-0.556163,0.556163,0.556163,-819.753,905.377)">
            <path d="M1377.09,1896.11L1377.09,1861.55L1352.01,1861.55L1352.01,1896.11L1317.45,1896.11L1317.45,1921.19L1352.01,1921.19L1352.01,1955.75L1377.09,1955.75L1377.09,1921.19L1411.65,1921.19L1411.65,1896.11L1377.09,1896.11Z" style="fill:rgb(232,232,232);stroke:black;stroke-width:3.36px;"/>
        </g>
    </g>
    <g transform="matrix(2.01605,0,0,2.01605,315.769,1425.04)">
        <path d="M917.494,1229.96L917.494,1253.39C917.494,1270.64 931.496,1284.64 948.743,1284.64L1048.59,1284.64C1065.84,1284.64 1079.84,1270.64 1079.84,1253.39L1079.84,1229.96C1079.84,1242.89 1069.34,1253.39 1056.4,1253.39L940.931,1253.39C927.996,1253.39 917.494,1242.89 917.494,1229.96Z" style="fill:rgb(232,232,232);stroke:black;stroke-width:2.65px;"/>
        <path d="M917.494,1190.9L917.494,1229.96C917.494,1242.89 927.996,1253.39 940.931,1253.39L1056.4,1253.39C1069.34,1253.39 1079.84,1242.89 1079.84,1229.96L1079.84,1190.9C1079.84,1173.65 1065.84,1159.65 1048.59,1159.65L948.743,1159.65C931.496,1159.65 917.494,1173.65 917.494,1190.9Z" style="fill:rgb(232,232,232);stroke:black;stroke-width:2.65px;"/>
    </g>
    <g transform="matrix(2.01605,0,0,2.01605,693.88,-1341.67)">
        <path d="M917.494,1229.96L917.494,1253.39C917.494,1270.64 931.496,1284.64 948.743,1284.64L1048.59,1284.64C1065.84,1284.64 1079.84,1270.64 1079.84,1253.39L1079.84,1229.96C1079.84,1242.89 1069.34,1253.39 1056.4,1253.39L940.931,1253.39C927.996,1253.39 917.494,1242.89 917.494,1229.96Z" style="fill:rgb(232,232,232);stroke:black;stroke-width:2.65px;"/>
        <path d="M917.494,1190.9L917.494,1229.96C917.494,1242.89 927.996,1253.39 940.931,1253.39L1056.4,1253.39C1069.34,1253.39 1079.84,1242.89 1079.84,1229.96L1079.84,1190.9C1079.84,1173.65 1065.84,1159.65 1048.59,1159.65L948.743,1159.65C931.496,1159.65 917.494,1173.65 917.494,1190.9Z" style="fill:rgb(232,232,232);stroke:black;stroke-width:2.65px;"/>
    </g>
    <g transform="matrix(2.01605,0,0,2.01605,693.88,-821.27)">
        <path d="M917.494,1229.96L917.494,1253.39C917.494,1270.64 931.496,1284.64 948.743,1284.64L1048.59,1284.64C1065.84,1284.64 1079.84,1270.64 1079.84,1253.39L1079.84,1229.96C1079.84,1242.89 1069.34,1253.39 1056.4,1253.39L940.931,1253.39C927.996,1253.39 917.494,1242.89 917.494,1229.96Z" style="fill:rgb(232,232,232);stroke:black;stroke-width:2.65px;"/>
        <path d="M917.494,1190.9L917.494,1229.96C917.494,1242.89 927.996,1253.39 940.931,1253.39L1056.4,1253.39C1069.34,1253.39 1079.84,1242.89 1079.84,1229.96L1079.84,1190.9C1079.84,1173.65 1065.84,1159.65 1048.59,1159.65L948.743,1159.65C931.496,1159.65 917.494,1173.65 917.494,1190.9Z" style="fill:rgb(232,232,232);stroke:black;stroke-width:2.65px;"/>
    </g>
    <g transform="matrix(2.01605,0,0,2.01605,693.88,-379.751)">
        <path d="M917.494,1229.96L917.494,1253.39C917.494,1270.64 931.496,1284.64 948.743,1284.64L1048.59,1284.64C1065.84,1284.64 1079.84,1270.64 1079.84,1253.39L1079.84,1229.96C1079.84,1242.89 1069.34,1253.39 1056.4,1253.39L940.931,1253.39C927.996,1253.39 917.494,1242.89 917.494,1229.96Z" style="fill:rgb(232,232,232);stroke:black;stroke-width:2.65px;"/>
        <path d="M917.494,1190.9L917.494,1229.96C917.494,1242.89 927.996,1253.39 940.931,1253.39L1056.4,1253.39C1069.34,1253.39 1079.84,1242.89 1079.84,1229.96L1079.84,1190.9C1079.84,1173.65 1065.84,1159.65 1048.59,1159.65L948.743,1159.65C931.496,1159.65 917.494,1173.65 917.494,1190.9Z" style="fill:rgb(232,232,232);stroke:black;stroke-width:2.65px;"/>
    </g>
    <g transform="matrix(2.01605,0,0,2.01605,693.88,187.305)">
        <path d="M917.494,1229.96L917.494,1253.39C917.494,1270.64 931.496,1284.64 948.743,1284.64L1048.59,1284.64C1065.84,1284.64 1079.84,1270.64 1079.84,1253.39L1079.84,1229.96C1079.84,1242.89 1069.34,1253.39 1056.4,1253.39L940.931,1253.39C927.996,1253.39 917.494,1242.89 917.494,1229.96Z" style="fill:rgb(232,232,232);stroke:black;stroke-width:2.65px;"/>
        <path d="M917.494,1190.9L917.494,1229.96C917.494,1242.89 927.996,1253.39 940.931,1253.39L1056.4,1253.39C1069.34,1253.39 1079.84,1242.89 1079.84,1229.96L1079.84,1190.9C1079.84,1173.65 1065.84,1159.65 1048.59,1159.65L948.743,1159.65C931.496,1159.65 917.494,1173.65 917.494,1190.9Z" style="fill:rgb(232,232,232);stroke:black;stroke-width:2.65px;"/>
    </g>
    <g transform="matrix(2.01605,0,0,2.01605,693.88,877.338)">
        <path d="M917.494,1229.96L917.494,1253.39C917.494,1270.64 931.496,1284.64 948.743,1284.64L1048.59,1284.64C1065.84,1284.64 1079.84,1270.64 1079.84,1253.39L1079.84,1229.96C1079.84,1242.89 1069.34,1253.39 1056.4,1253.39L940.931,1253.39C927.996,1253.39 917.494,1242.89 917.494,1229.96Z" style="fill:rgb(232,232,232);stroke:black;stroke-width:2.65px;"/>
        <path d="M917.494,1190.9L917.494,1229.96C917.494,1242.89 927.996,1253.39 940.931,1253.39L1056.4,1253.39C1069.34,1253.39 1079.84,1242.89 1079.84,1229.96L1079.84,1190.9C1079.84,1173.65 1065.84,1159.65 1048.59,1159.65L948.743,1159.65C931.496,1159.65 917.494,1173.65 917.494,1190.9Z" style="fill:rgb(232,232,232);stroke:black;stroke-width:2.65px;"/>
    </g>
    <g transform="matrix(2.01605,0,0,2.01605,693.88,1357.54)">
        <path d="M917.494,1229.96L917.494,1253.39C917.494,1270.64 931.496,1284.64 948.743,1284.64L1048.59,1284.64C1065.84,1284.64 1079.84,1270.64 1079.84,1253.39L1079.84,1229.96C1079.84,1242.89 1069.34,1253.39 1056.4,1253.39L940.931,1253.39C927.996,1253.39 917.494,1242.89 917.494,1229.96Z" style="fill:rgb(232,232,232);stroke:black;stroke-width:2.65px;"/>
        <path d="M917.494,1190.9L917.494,1229.96C917.494,1242.89 927.996,1253.39 940.931,1253.39L1056.4,1253.39C1069.34,1253.39 1079.84,1242.89 1079.84,1229.96L1079.84,1190.9C1079.84,1173.65 1065.84,1159.65 1048.59,1159.65L948.743,1159.65C931.496,1159.65 917.494,1173.65 917.494,1190.9Z" style="fill:rgb(232,232,232);stroke:black;stroke-width:2.65px;"/>
    </g>
</svg>
