<svg version="1.1" id="Ebene_1" xmlns="http://www.w3.org/2000/svg" x="0" y="0" viewBox="0 0 70.3 112.9" style="enable-background:new 0 0 70.3 112.9" xml:space="preserve">
<style>.st0{fill:#e87624}.st1{fill:#fff}</style>
<path d="M67.3 42.3c.6-2.6.9-5.2.9-7.8 0-18.3-14.9-33.1-33.1-33.1S2 16.2 2 34.4c0 2.6.3 5.3.9 7.8.9 5.5 2.1 9.8 3.7 13 3.3 6.8 17 29.4 23.2 39.7-8.5 1.1-12.5 4.7-12.5 8.2 0 4.1 5.6 8.5 17.8 8.5s17.8-4.4 17.8-8.5c0-3.4-3.9-7.1-12.5-8.2 6.3-10.3 20-32.9 23.2-39.7 1.6-3.2 2.9-7.5 3.7-12.9zm-19.5 60.8c-.3 1-4.6 3.4-12.7 3.4s-12.4-2.5-12.7-3.4c.2-.8 3.7-2.9 10.3-3.4.1.1.1.2.2.3.5.8 1.3 1.2 2.2 1.2.9 0 1.7-.5 2.2-1.2 0 0 .1-.1.2-.3 6.5.5 10 2.5 10.3 3.4zM11.2 53C9.9 50.2 8.8 46.2 8 41.4v-.2c-.5-2.2-.8-4.5-.8-6.7 0-15.5 12.6-28 28-28s28 12.6 28 28c0 2.3-.3 4.5-.8 6.7v.2c-.8 4.9-1.9 8.9-3.2 11.6-3.3 6.9-18.3 31.5-24 40.8-5.7-9.3-20.7-33.9-24-40.8z"/><path class="st0" d="M67.3 42.3c.6-2.6.9-5.2.9-7.8 0-18.3-14.9-33.1-33.1-33.1S2 16.2 2 34.4c0 2.6.3 5.3.9 7.8.9 5.5 2.1 9.8 3.7 13 3.3 6.8 17 29.4 23.2 39.7-8.5 1.1-12.5 4.7-12.5 8.2 0 4.1 5.6 8.5 17.8 8.5s17.8-4.4 17.8-8.5c0-3.4-3.9-7.1-12.5-8.2 6.3-10.3 20-32.9 23.2-39.7 1.6-3.2 2.9-7.5 3.7-12.9z"/><path class="st1" d="M47.8 103.1c-.3 1-4.6 3.4-12.7 3.4s-12.4-2.5-12.7-3.4c.2-.8 3.7-2.9 10.3-3.4.1.1.1.2.2.3.5.8 1.3 1.2 2.2 1.2.9 0 1.7-.5 2.2-1.2 0 0 .1-.1.2-.3 6.5.5 10 2.5 10.3 3.4zM11.2 53C9.9 50.2 8.8 46.2 8 41.4v-.2c-.5-2.2-.8-4.5-.8-6.7 0-15.5 12.6-28 28-28s28 12.6 28 28c0 2.3-.3 4.5-.8 6.7v.2c-.8 4.9-1.9 8.9-3.2 11.6-3.3 6.9-18.3 31.5-24 40.8-5.7-9.3-20.7-33.9-24-40.8z"/><path d="M35.1 15.7c-9.8 0-17.8 8-17.8 17.8s8 17.8 17.8 17.8 17.8-8 17.8-17.8-8-17.8-17.8-17.8zM22.5 33.5c0-7 5.7-12.7 12.7-12.7s12.7 5.7 12.7 12.7-5.7 12.7-12.7 12.7-12.7-5.7-12.7-12.7z"/><path class="st0" d="M35.1 15.7c-9.8 0-17.8 8-17.8 17.8s8 17.8 17.8 17.8 17.8-8 17.8-17.8-8-17.8-17.8-17.8z"/><path class="st1" d="M22.5 33.5c0-7 5.7-12.7 12.7-12.7s12.7 5.7 12.7 12.7-5.7 12.7-12.7 12.7-12.7-5.7-12.7-12.7z"/>
</svg>
