<?xml version="1.0" encoding="utf-8"?>
<!-- Generator: Adobe Illustrator 26.5.0, SVG Export Plug-In . SVG Version: 6.00 Build 0)  -->
<svg version="1.1" id="Ebene_1" xmlns="http://www.w3.org/2000/svg" xmlns:xlink="http://www.w3.org/1999/xlink" x="0px" y="0px"
	 viewBox="0 0 98.3 103.9" style="enable-background:new 0 0 98.3 103.9;" xml:space="preserve">
<style type="text/css">
	.st0{fill:#E87624;}
</style>
<g>
	<path class="st0" d="M85.5,16.5h-2.9c-0.3,0-0.5,0.1-0.7,0.2V6.8c0-3.3-2.7-5.9-5.9-5.9S70,3.5,70,6.8v9.7c-0.1,0-0.2,0-0.3,0H29
		c-0.2,0-0.3,0-0.4,0.1V6.8c0-3.3-2.7-5.9-5.9-5.9c-3.3,0-5.9,2.7-5.9,5.9v9.8c-0.2-0.1-0.4-0.1-0.6-0.1h-2.9
		C7.6,16.5,3,21.1,3,26.7v65c0,5.6,4.6,10.2,10.2,10.2h72.3c5.6,0,10.2-4.6,10.2-10.2v-65C95.7,21.1,91.1,16.5,85.5,16.5L85.5,16.5z
		 M73.3,6.8c0-1.4,1.2-2.6,2.6-2.6c1.4,0,2.6,1.2,2.6,2.6v17.8c0,1.4-1.2,2.6-2.6,2.6c-1.4,0-2.6-1.2-2.6-2.6V6.8L73.3,6.8z
		 M20.1,6.8c0-1.4,1.2-2.6,2.6-2.6c1.4,0,2.6,1.2,2.6,2.6v17.8c0,1.4-1.2,2.6-2.6,2.6c-1.4,0-2.6-1.2-2.6-2.6V6.8L20.1,6.8z
		 M92.1,91.7c0,3.6-3,6.6-6.6,6.6H13.2c-3.6,0-6.6-3-6.6-6.6v-65c0-3.6,3-6.6,6.6-6.6h1.1v3.5c0,4.5,3.7,8.2,8.2,8.2
		c4.5,0,8.2-3.7,8.2-8.2v-3.5h37v3.5c0,4.5,3.7,8.2,8.2,8.2c4.5,0,8.2-3.7,8.2-8.2v-3.5h1.1c3.6,0,6.6,3,6.6,6.6L92.1,91.7
		L92.1,91.7z"/>
	<path class="st0" d="M86.8,42.4H12.1c-1,0-1.8,0.8-1.8,1.8v44.1c0,3.4,2.8,6.2,6.2,6.2h65.9c3.4,0,6.2-2.8,6.2-6.2V44.2
		C88.6,43.2,87.8,42.4,86.8,42.4L86.8,42.4z M85,88.3c0,1.4-1.2,2.6-2.6,2.6H16.5c-1.4,0-2.6-1.2-2.6-2.6V46H85L85,88.3L85,88.3z"/>
</g>
</svg>
