<?xml version="1.0" encoding="UTF-8" standalone="no"?>
<!DOCTYPE svg PUBLIC "-//W3C//DTD SVG 1.1//EN" "http://www.w3.org/Graphics/SVG/1.1/DTD/svg11.dtd">
<svg width="100%" height="100%" viewBox="0 0 7016 4961" 
version="1.1" xmlns="http://www.w3.org/2000/svg" 
xmlns:xlink="http://www.w3.org/1999/xlink" xml:space="preserve" xmlns:serif="http://www.serif.com/" 
style="fill-rule:evenodd;clip-rule:evenodd;stroke-linejoin:round;stroke-miterlimit:2;">
    <g id="user-plus" transform="matrix(4.16667,0,0,4.16667,-8.426,433.327)">
        <path d="M616,332C616,325.373 610.627,320 604,320L544,320L544,260C544,253.373 538.627,248 532,248L492,248C485.373,248 480,253.373 480,260L480,320L420,320C413.373,320 408,325.373 408,332L408,372C408,378.627 413.373,384 420,384L480,384L480,444C480,450.627 485.373,456 492,456L532,456C538.627,456 544,450.627 544,444L544,384L604,384C610.627,384 616,378.627 616,372L616,332ZM448,444L448,459C448,470.598 438.598,480 427,480L21,480C9.402,480 0,470.598 0,459L0,438C0,383.876 43.876,340 98,340L122.986,340C185.09,377.358 262.883,377.374 325.013,340L350,340C358.784,339.995 367.529,341.17 376,343.493L376,372C376,396.262 395.738,416 420,416L445.519,416C448.287,428.064 448,436.659 448,444ZM84,172C84,94.68 146.68,32 224,32C301.32,32 364,94.68 364,172C364,249.32 301.32,312 224,312C146.68,312 84,249.32 84,172Z" 
        style="fill:none;fill-rule:nonzero;stroke:black;stroke-width:1.5px;"/>
    </g>
</svg>
