<?xml version="1.0" encoding="utf-8"?>
<!-- Generator: Adobe Illustrator 26.5.0, SVG Export Plug-In . SVG Version: 6.00 Build 0)  -->
<svg version="1.1" id="Ebene_1" xmlns="http://www.w3.org/2000/svg" xmlns:xlink="http://www.w3.org/1999/xlink" x="0px" y="0px"
	 viewBox="0 0 109.3 115.9" style="enable-background:new 0 0 109.3 115.9;" xml:space="preserve">
<style type="text/css">
	.st0{fill:none;stroke:#E87624;stroke-width:3.6752;stroke-miterlimit:3.8637;}
</style>
<g>
	<path class="st0" d="M79.1,78h9c1.7,0,2.9,1.3,2.9,2.9v5.9c0,1.7-1.3,3-2.9,3h-9c-1.7,0-3.4-1.3-3.4-3v-5.9
		C75.7,79.2,77.4,78,79.1,78L79.1,78z M21.7,78h8.5c2.1,0,3.4,1.3,3.4,2.9v5.9c0,1.7-1.3,3-3.4,3h-8.5c-2.2,0-3.4-1.3-3.4-3v-5.9
		C18.3,79.2,19.5,78,21.7,78L21.7,78z M40.4,18.4h28.9l-3.4-7.2H43.4L40.4,18.4L40.4,18.4z M20.5,67.9h68.3V26.7H20.5V67.9
		L20.5,67.9z M102.5,32.9h-3.8v21.7h3.8c1.7,0,3.4-1.7,3.4-3.4V36.3C105.9,34.6,104.6,32.9,102.5,32.9L102.5,32.9z M6.8,32.9h3.8
		v21.7H6.8c-1.7,0-3.4-1.7-3.4-3.4V36.3C3.4,34.6,5.1,32.9,6.8,32.9L6.8,32.9z M97.8,25.7v65c0,3.8-3,6.8-7.3,6.8v7.2
		c0,4.3-3,7.2-7.2,7.2h-7.3c-3.9,0-6.8-3-6.8-7.2v-7.2H40.4v7.2c0,4.3-3.4,7.2-7.3,7.2h-7.2c-4.2,0-7.2-3-7.2-7.2v-7.2
		c-3.9,0-7.3-3-7.3-6.8v-65C11.4,13.8,21.2,4,33.1,4h43C88.1,4,97.8,13.8,97.8,25.7L97.8,25.7z"/>
</g>
</svg>
