<?xml version="1.0" encoding="UTF-8"?>
<svg id="ZDFin-Logo"
     xmlns="http://www.w3.org/2000/svg"
     viewBox="0 0 248.8 67.32"
     width="248" height="67"
>
  <defs>
    <style>
      .cls-1 {
        fill: #05638d;
      }

      .cls-1, .cls-2 {
        stroke-width: 0px;
      }

      .cls-2 {
        fill: #871d33;
      }
    </style>
  </defs>
  <g>
    <g>
      <path class="cls-2" d="M145.95,33.87c-1.79-1.46-4.29-2.19-7.51-2.19-1.97,0-3.71.27-5.22.8-1.51.54-2.7,1.34-3.56,2.41h-.59l-1.26-2.81h-7.57v22.76h10.04v-9.97c0-2.57.38-4.39,1.13-5.44s1.98-1.59,3.67-1.59c1.23,0,2.13.38,2.68,1.15.56.77.83,1.91.83,3.43v12.42h10.04v-14.81c0-2.65-.9-4.71-2.68-6.17Z"/>
      <polygon class="cls-1" points="30.04 22.24 30.04 15.75 .4 15.75 .4 24.28 16.93 24.28 0 48.32 0 54.85 30.46 54.85 30.46 46.32 13.11 46.32 30.04 22.24"/>
      <path class="cls-1" d="M49.59,15.75h-13.53v39.1h12.65c6.51,0,11.56-1.77,15.15-5.3,3.59-3.53,5.39-8.56,5.39-15.08,0-6.06-1.71-10.7-5.12-13.91-3.41-3.21-8.26-4.81-14.54-4.81ZM56.03,43.39c-1.5,1.86-3.85,2.79-7.06,2.79h-2.35v-21.91h3.08c2.89,0,5.04.87,6.46,2.59,1.42,1.73,2.13,4.39,2.13,7.97,0,3.83-.75,6.68-2.25,8.55Z"/>
      <polygon class="cls-2" points="103.85 31.69 85.29 31.69 85.29 24.22 97.99 24.22 97.99 15.75 74.88 15.75 74.88 54.85 85.29 54.85 85.29 40.16 103.85 40.16 103.85 54.85 114.31 54.85 114.31 31.68 103.85 31.68 103.85 31.69"/>
      <path class="cls-2" d="M109.08,15.75c-2.89,0-5.23,2.34-5.23,5.23s2.34,5.23,5.23,5.23,5.23-2.34,5.23-5.23-2.34-5.23-5.23-5.23Z"/>
    </g>
    <g>
      <path class="cls-1" d="M1.85,67.22H0v-7.62h4.1v1.65H1.85v1.45h2.08v1.65H1.85v2.86Z"/>
      <path class="cls-1" d="M8.96,67.22l-.23-.73h-.11c-.16.27-.37.48-.65.62s-.6.22-.97.22c-.59,0-1.05-.19-1.38-.57-.33-.38-.49-.91-.49-1.6v-3.85h1.85v3.23c0,.39.05.68.15.88s.26.3.49.3c.32,0,.55-.14.68-.41s.2-.74.2-1.4v-2.59h1.86v5.91h-1.4ZM5.78,59.85c0-.26.07-.46.22-.61.14-.14.34-.22.59-.22s.45.07.6.22.22.35.22.6-.07.44-.22.59-.35.22-.6.22-.44-.07-.59-.21c-.15-.14-.22-.34-.22-.6ZM8.05,59.85c0-.26.07-.46.22-.61s.35-.22.6-.22.45.07.6.22.22.35.22.6-.07.44-.22.59-.35.22-.6.22-.46-.07-.6-.22c-.14-.14-.21-.34-.21-.6Z"/>
      <path class="cls-1" d="M14.88,61.21c.16,0,.32.01.46.04l.1.02-.17,1.92c-.15-.04-.36-.06-.63-.06-.41,0-.7.1-.88.3-.18.2-.27.5-.27.88v2.9h-1.86v-5.91h1.38l.29.94h.09c.16-.31.37-.57.65-.76.28-.19.56-.29.84-.29Z"/>
      <path class="cls-1" d="M20.7,64.45v2.77h-1.87v-7.62h2.27c1.88,0,2.83.75,2.83,2.25,0,.88-.39,1.56-1.18,2.05l2.02,3.32h-2.13l-1.47-2.77h-.47ZM20.7,62.9h.35c.66,0,.98-.32.98-.95,0-.53-.32-.79-.96-.79h-.37v1.74Z"/>
      <path class="cls-1" d="M28.67,67.22v-3.22c0-.79-.21-1.19-.64-1.19-.3,0-.53.14-.67.42-.14.28-.21.74-.21,1.39v2.6h-1.86v-8.11h1.86v1.15c0,.52-.03,1.12-.08,1.78h.09c.18-.31.39-.52.63-.65s.53-.19.85-.19c.6,0,1.07.19,1.4.57.33.38.5.91.5,1.6v3.84h-1.86Z"/>
      <path class="cls-1" d="M34.39,67.32c-.89,0-1.59-.26-2.08-.78-.5-.52-.74-1.27-.74-2.23s.23-1.76.69-2.3,1.11-.8,1.96-.8,1.43.23,1.87.7c.44.46.66,1.13.66,2v.91h-3.31c.01.33.12.59.33.78s.49.28.85.28c.32,0,.62-.03.9-.1s.57-.18.89-.35v1.46c-.29.16-.59.28-.9.34s-.68.09-1.11.09ZM34.28,62.6c-.22,0-.4.08-.55.23-.15.15-.23.39-.26.71h1.59c0-.29-.08-.51-.22-.68s-.33-.26-.57-.26Z"/>
      <path class="cls-1" d="M37.76,59.84c0-.31.08-.53.23-.68s.4-.22.75-.22.6.08.75.23c.16.15.24.38.24.68,0,.6-.33.9-.99.9s-.98-.3-.98-.9ZM39.66,67.22h-1.85v-5.91h1.85v5.91Z"/>
      <path class="cls-1" d="M44.35,67.22v-3.22c0-.39-.05-.69-.15-.89s-.27-.3-.5-.3c-.31,0-.54.14-.68.41s-.21.75-.21,1.41v2.59h-1.86v-5.91h1.4l.23.73h.11c.16-.28.38-.49.66-.63.28-.14.6-.21.97-.21.59,0,1.06.19,1.39.57.33.38.5.91.5,1.6v3.84h-1.85Z"/>
      <path class="cls-1" d="M49.32,67.22h-1.86v-8.11h1.86v8.11Z"/>
      <path class="cls-1" d="M54.11,67.22l-.36-.78h-.04c-.25.34-.5.57-.76.7s-.59.19-1,.19c-.51,0-.91-.17-1.2-.5s-.44-.8-.44-1.41.2-1.1.6-1.4.98-.48,1.73-.52l.9-.03v-.08c0-.49-.22-.73-.66-.73-.39,0-.89.15-1.49.44l-.54-1.34c.63-.35,1.42-.53,2.37-.53.69,0,1.22.19,1.6.56s.57.9.57,1.57v3.87h-1.29ZM52.74,65.88c.22,0,.42-.08.58-.23s.24-.36.24-.61v-.46l-.43.02c-.61.02-.91.27-.91.74,0,.36.17.54.53.54Z"/>
      <path class="cls-1" d="M60.05,67.22v-3.22c0-.39-.05-.69-.15-.89s-.27-.3-.5-.3c-.31,0-.54.14-.68.41s-.21.75-.21,1.41v2.59h-1.86v-5.91h1.4l.23.73h.11c.16-.28.38-.49.66-.63.28-.14.6-.21.97-.21.59,0,1.06.19,1.39.57.33.38.5.91.5,1.6v3.84h-1.85Z"/>
      <path class="cls-1" d="M64.83,67.32c-.38,0-.72-.12-1-.36-.29-.24-.51-.59-.66-1.06s-.23-1.01-.23-1.63c0-.96.18-1.71.53-2.25s.83-.81,1.45-.81c.3,0,.56.07.79.2.23.13.43.35.62.67h.04c-.06-.46-.09-.92-.09-1.39v-1.58h1.87v8.11h-1.4l-.4-.75h-.07c-.32.57-.79.85-1.43.85ZM65.59,65.71c.3,0,.51-.1.63-.31.12-.2.19-.52.2-.95v-.16c0-.52-.07-.89-.2-1.11s-.35-.33-.64-.33c-.24,0-.43.13-.57.38-.14.25-.2.61-.2,1.08s.07.81.2,1.05c.14.24.33.36.58.36Z"/>
      <path class="cls-1" d="M68.98,65.17v-1.63h2.68v1.63h-2.68Z"/>
      <path class="cls-1" d="M77.64,62.02c0,.85-.23,1.51-.69,1.97s-1.11.7-1.95.7h-.53v2.53h-1.87v-7.62h2.4c.88,0,1.53.21,1.97.63s.66,1.02.66,1.79ZM74.48,63.01h.34c.28,0,.51-.09.67-.26s.25-.41.25-.72c0-.51-.26-.77-.78-.77h-.48v1.75Z"/>
      <path class="cls-1" d="M81.92,62.84h-1.14v4.38h-1.85v-4.38h-.71v-1l.75-.5v-.1c0-.78.14-1.34.43-1.68s.75-.51,1.39-.51c.25,0,.48.02.7.06.22.04.48.11.77.22l-.4,1.32c-.23-.07-.45-.1-.67-.1-.14,0-.25.05-.31.14-.07.1-.1.25-.1.47v.16h1.14v1.53Z"/>
      <path class="cls-1" d="M86.15,67.22l-.36-.78h-.04c-.25.34-.5.57-.76.7s-.59.19-1,.19c-.51,0-.91-.17-1.2-.5s-.44-.8-.44-1.41.2-1.1.6-1.4.98-.48,1.73-.52l.9-.03v-.08c0-.49-.22-.73-.66-.73-.39,0-.89.15-1.49.44l-.54-1.34c.63-.35,1.42-.53,2.37-.53.69,0,1.22.19,1.6.56s.57.9.57,1.57v3.87h-1.29ZM84.78,65.88c.22,0,.42-.08.58-.23s.24-.36.24-.61v-.46l-.43.02c-.61.02-.91.27-.91.74,0,.36.17.54.53.54Z"/>
      <path class="cls-1" d="M90.56,67.22h-1.86v-8.11h1.86v8.11Z"/>
      <path class="cls-1" d="M95.88,67.22h-4.45v-1.16l2.23-3.18h-2.1v-1.56h4.22v1.26l-2.13,3.09h2.23v1.56Z"/>
      <path class="cls-1" d="M99.25,59.84c0-.31.08-.53.23-.68s.4-.22.75-.22.6.08.75.23c.16.15.24.38.24.68,0,.6-.33.9-.99.9s-.98-.3-.98-.9ZM101.15,67.22h-1.85v-5.91h1.85v5.91Z"/>
      <path class="cls-1" d="M109.04,67.22v-3.21c0-.4-.05-.7-.15-.9s-.26-.3-.47-.3c-.29,0-.49.13-.63.4s-.2.69-.2,1.26v2.75h-1.86v-3.21c0-.4-.05-.7-.14-.9-.09-.2-.25-.3-.46-.3-.29,0-.5.14-.63.43-.13.29-.2.75-.2,1.4v2.59h-1.86v-5.91h1.4l.23.73h.11c.14-.27.35-.48.62-.62.27-.14.58-.21.92-.21.78,0,1.32.26,1.63.78h.15c.15-.24.36-.43.63-.57.27-.14.57-.21.89-.21.64,0,1.1.18,1.41.54s.46.9.46,1.63v3.84h-1.85Z"/>
      <path class="cls-1" d="M118.91,67.22h-4.12v-7.62h4.12v1.65h-2.24v1.2h2.08v1.65h-2.08v1.44h2.24v1.68Z"/>
      <path class="cls-1" d="M119.97,59.84c0-.31.08-.53.23-.68s.4-.22.75-.22.6.08.75.23c.16.15.24.38.24.68,0,.6-.33.9-.99.9s-.98-.3-.98-.9ZM121.87,67.22h-1.85v-5.91h1.85v5.91Z"/>
      <path class="cls-1" d="M126.56,67.22v-3.22c0-.39-.05-.69-.15-.89s-.27-.3-.5-.3c-.31,0-.54.14-.68.41s-.21.75-.21,1.41v2.59h-1.86v-5.91h1.4l.23.73h.11c.16-.28.38-.49.66-.63.28-.14.6-.21.97-.21.59,0,1.06.19,1.39.57.33.38.5.91.5,1.6v3.84h-1.85Z"/>
      <path class="cls-1" d="M133.83,65.4c0,.63-.2,1.11-.59,1.43s-.96.48-1.69.48c-.4,0-.74-.02-1.04-.07s-.59-.13-.9-.26v-1.63c.29.14.6.25.95.34.34.09.65.14.92.14.4,0,.6-.1.6-.3,0-.1-.06-.2-.17-.28s-.44-.24-.98-.48c-.49-.22-.84-.48-1.03-.76-.2-.28-.29-.64-.29-1.08,0-.55.19-.98.58-1.28s.93-.46,1.64-.46c.35,0,.69.04,1,.13s.63.21.97.37l-.5,1.31c-.25-.12-.51-.23-.78-.31s-.5-.13-.67-.13c-.3,0-.45.08-.45.24,0,.1.05.19.16.26.11.07.41.22.92.44.38.17.66.34.84.5s.32.36.41.58c.09.22.13.49.13.81Z"/>
      <path class="cls-1" d="M138.36,67.22l-.36-.78h-.04c-.25.34-.5.57-.76.7s-.59.19-1,.19c-.51,0-.91-.17-1.2-.5s-.44-.8-.44-1.41.2-1.1.6-1.4.98-.48,1.73-.52l.9-.03v-.08c0-.49-.22-.73-.66-.73-.39,0-.89.15-1.49.44l-.54-1.34c.63-.35,1.42-.53,2.37-.53.69,0,1.22.19,1.6.56s.57.9.57,1.57v3.87h-1.29ZM136.99,65.88c.22,0,.42-.08.58-.23s.24-.36.24-.61v-.46l-.43.02c-.61.02-.91.27-.91.74,0,.36.17.54.53.54Z"/>
      <path class="cls-1" d="M143.54,65.71c.25,0,.55-.07.9-.2v1.49c-.25.12-.49.2-.71.25-.23.05-.49.08-.79.08-.62,0-1.07-.17-1.35-.5s-.41-.85-.41-1.55v-2.43h-.65v-.83l.82-.64.48-1.24h1.21v1.18h1.32v1.53h-1.32v2.3c0,.38.17.57.5.57Z"/>
      <path class="cls-1" d="M149.42,67.22h-4.45v-1.16l2.23-3.18h-2.1v-1.56h4.22v1.26l-2.13,3.09h2.23v1.56Z"/>
    </g>
    <g>
      <path class="cls-1" d="M248.05,17.71h-3.19c-.46-2-1.24-3.9-2.33-5.66l2.26-2.3c.29-.29.29-.76,0-1.05l-4.92-5.01c-.14-.14-.33-.22-.54-.22s-.39.08-.53.22l-2.27,2.31c-1.72-1.08-3.57-1.86-5.51-2.32V.75c0-.41-.34-.75-.75-.75h-6.98c-.41,0-.75.34-.75.75v2.92c-1.97.47-3.84,1.26-5.57,2.36l-2.24-2.28c-.14-.14-.33-.22-.53-.22s-.39.08-.53.22l-4.92,5.01c-.29.29-.29.76,0,1.05l2.27,2.31c-.08.13-.15.28-.23.41h8.79c2.04-1.63,4.57-2.57,7.21-2.58h.1s.07,0,.11,0c6.38.11,11.57,5.52,11.57,12.04,0,2.6-.85,5.09-2.34,7.14v9.05c.12-.07.26-.14.38-.22l2.24,2.28c.14.14.33.22.53.22s.39-.08.53-.22l4.92-5.01c.29-.29.29-.76,0-1.05l-2.27-2.31c1.07-1.74,1.84-3.62,2.29-5.59h3.19c.41,0,.75-.34.75-.75v-7.08c0-.41-.34-.75-.75-.75Z"/>
      <path class="cls-1" d="M222.63,32.67c-2.74-1.33-4.94-3.59-6.25-6.4h-6.94v.05c.55,1.77,1.33,3.46,2.33,5.02l-2.96,3.01,5.87,5.97,2.98-3.03c1.54,1,3.19,1.79,4.93,2.32l.05.02v-6.96Z"/>
      <path class="cls-2" d="M225.63,15.53h-51.27c-4.19,0-7.59,3.41-7.59,7.59v32.28h66.45V23.12c0-4.19-3.41-7.59-7.59-7.59ZM225.63,34.24v13.75h-51.17v-22.58c0-1.18,1.02-2.14,2.27-2.14h46.62c1.25,0,2.27.96,2.27,2.14v8.83Z"/>
      <path class="cls-2" d="M237.22,58.27h-27.15s-.86,0-.86,0v1.46c0,.96-.78,1.74-1.75,1.74h-14.96c-.96,0-1.74-.78-1.74-1.75v-1.46h-28.86v1.46c0,4.19,3.41,7.59,7.59,7.59h60.99c4.19,0,7.59-3.41,7.59-7.59v-1.46h-.86Z"/>
    </g>
  </g>
</svg>
